<svg id="Group_79" data-name="Group 79" xmlns="http://www.w3.org/2000/svg" xmlns:xlink="http://www.w3.org/1999/xlink" width="94.551" height="143.878" viewBox="0 0 94.551 143.878">
  <defs>
    <clipPath id="clip-path">
      <rect id="Rectangle_78" data-name="Rectangle 78" width="94.551" height="143.878" fill="#fff"/>
    </clipPath>
  </defs>
  <g id="Group_78" data-name="Group 78" clip-path="url(#clip-path)">
    <path id="Path_166" data-name="Path 166" d="M14.576,52.847a9.119,9.119,0,0,0-1.405.008c-3.121.711-4.165-.22-4.285-3.443A26.96,26.96,0,0,1,11.75,36.525c.218-.453.78-.753.954-1.211a8.036,8.036,0,0,0,.461-2.2c.1-1.294-1.137-.6-1.685-1.01a2.942,2.942,0,0,1-1.545-2.5,16.3,16.3,0,0,1,1.971-7.384,29.528,29.528,0,0,1,5.314-7.442,65.393,65.393,0,0,1,8.569-7.482,31.145,31.145,0,0,1,7.685-4.61A42,42,0,0,1,42.358.262a37.831,37.831,0,0,1,15.3,1.418c4.713,1.345,8.661,4.149,12.47,7.086a59.324,59.324,0,0,1,9.989,9.563,21.271,21.271,0,0,1,4.618,10.035c.335,2.013-.318,3.059-2.424,3.778-.96.328-1.19.584-.777,1.667,1.1,2.889,2.773,5.544,3.492,8.585a27.35,27.35,0,0,1,.77,7.949c-.116,1.93-2.381,3.3-4.436,2.729a1.688,1.688,0,0,0-1.113-.161,11.129,11.129,0,0,0,3.957,4.267,2.564,2.564,0,0,1,1.24,2.709c-.039,1.255-.954,1.791-1.958,2.077a6,6,0,0,1-3.227.273A71.483,71.483,0,0,1,86.2,68.823a34.549,34.549,0,0,1,4.553,7.828c2.974,6.3,3.791,13.061,3.74,19.952-.04,5.4.256,10.805-.219,16.189a36.53,36.53,0,0,1-5.13,15.262,31.989,31.989,0,0,1-6.526,7.6,34.649,34.649,0,0,1-9.776,5.768c-6.544,2.762-13.405,2.559-20.232,2.33a10.13,10.13,0,0,1-7.256-3.566,4.713,4.713,0,0,0-4.1-1.754,99.811,99.811,0,0,1-11.977.028,30.083,30.083,0,0,1-15.637-5.7,32.335,32.335,0,0,1-11.26-14.231A35.825,35.825,0,0,1,.176,106.542C.013,101.67-.107,96.778.143,91.916A34.63,34.63,0,0,1,2.288,81.045c.546-1.4.7-3.1,1.456-4.362C5.889,73.1,7.153,68.919,10.72,66.241c1-.753,1.382-2.175,2.571-2.911.45-.278.361-.946-.486-1.008-.569-.041-1.123-.251-1.692-.311a2,2,0,0,1-1.862-1.771c-.214-1.083-.164-2.314.956-2.779,2.08-.862,2.579-2.979,4.369-4.615m17.66,5.878c-1.571.693-2.981,1.191-4.267,1.91-2.129,1.189-4.78.943-6.743,2.444A60.369,60.369,0,0,0,15.767,67.7,38.764,38.764,0,0,0,8.5,78.345,33.565,33.565,0,0,0,5.087,91.8c-.227,4.213.1,8.453.012,12.678a27.158,27.158,0,0,0,.975,7.141,28.479,28.479,0,0,0,11.674,16.814,27.38,27.38,0,0,0,11.124,4.731c3.722.643,7.566.377,11.353.253a8.452,8.452,0,0,0,6.208-2.831c2.324-2.49,2.848-5.123,1.611-8.094-1.394-3.349-3.8-5.487-7.684-5.483a43.977,43.977,0,0,1-5.582-.293c-5.815-.734-12.587-7.235-12.484-13.2a15.444,15.444,0,0,0-.419-3.255c-.724-3.612-1.519-7.238-.944-10.932a10.487,10.487,0,0,1,5.665-8.07,13.584,13.584,0,0,1,6.6-1.411,11.989,11.989,0,0,1,10.028,6.893,14.46,14.46,0,0,1,.675,8.282,7.753,7.753,0,0,0,5.732-5.507c1.141-3.561,4.243-5.623,7.763-4.882,4.659.981,6.5,4.04,5.793,8.391a19.961,19.961,0,0,1-6.427,12.31c-1.975,1.728-1.611,2.814.883,3.954,2.515,1.149,5.213,1.734,7.791,2.68.613.225.649-.116.928-.585a9.957,9.957,0,0,0,1.074-2.538c.948-3.562,1.1-7.26,1.774-10.874a2.664,2.664,0,0,1,2.923-2.336c1.523.093,2.178.841,1.966,2.556-.4,3.223-.8,6.451-1.4,9.641a17.961,17.961,0,0,1-2.167,6.642A16.025,16.025,0,0,1,55.6,122.27c-1.8-.065-2.447.361-2.271,2.242A11.356,11.356,0,0,1,49.982,134c-2.081,2.075-2.039,2.585.57,3.98A4.468,4.468,0,0,0,52,138.51a50.179,50.179,0,0,0,13.451-.055,25.073,25.073,0,0,0,9.838-3.874c1.745-1.089,3.879-1.738,5.068-3.523.942-1.415,2.219-2.5,3.222-3.849a27.173,27.173,0,0,0,5.75-14.769c.36-6.043.1-12.093.163-18.14a24.642,24.642,0,0,0,.068-2.932,42.584,42.584,0,0,0-2.01-9.244,37.662,37.662,0,0,0-14.59-19.161,10.752,10.752,0,0,0-3.529-1.223,51.6,51.6,0,0,1-6.824-2.8c-.548,9.839-.376,8.229-3.006,12.3-2.421,3.747-6.48,5.522-10.917,5.953-5.368.522-9.767-1.483-13.349-5.5-3.313-3.716-3.384-8.2-3.1-12.962m45.042-.992a45.407,45.407,0,0,1-4.571-8.8,2.8,2.8,0,0,1,1.03-3.718,2.587,2.587,0,0,1,3.428.855,5.065,5.065,0,0,0,2.744,1.676c1.093.334,1.606-.361,1.23-1.181-1.034-2.258-1.192-4.817-2.469-6.965a19.93,19.93,0,0,1-2.144-5.081c-.546-2.066-.768-4.429,1.194-5.759,2.04-1.383,1.562-2.618.638-4.22a22.7,22.7,0,0,0-1.859-2.72A55.841,55.841,0,0,0,64.418,10.835C62.359,9.392,60.325,7.791,57.9,7.027c-4.628-1.456-9.3-2.6-14.256-1.857-3.6.537-7.212,1.124-10.325,3.045A60.345,60.345,0,0,0,20.48,18.5a24.012,24.012,0,0,0-5,7.47c-.2.516-.923,1.185.01,1.769,3.338,2.09,3.456,4.675,2.007,8.231-1.188,2.914-2.764,5.666-3.519,8.761-.541,2.216-.254,2.868,1.886,3.578,1.607.533,3.474,2.615,3.351,4.636a8.945,8.945,0,0,1-1.406,3.825c-.167.31-.774.536-.475.883a1.7,1.7,0,0,0,1.18.285c2.334-.023,4.371-1.069,6.552-1.583a16.891,16.891,0,0,0,5.75-3.024c.518-.365.373-.462.117-.937a11.676,11.676,0,0,1-1.619-4.422c-.18-1.689-.436-3.619-2.255-4.819a6.1,6.1,0,0,1-2.614-4.907c-.16-2.57-.283-5.147-.447-7.713a3.627,3.627,0,0,1,1.642-3.459,9.983,9.983,0,0,0,2.845-2.442c.2-.321.482-.266.847-.3,3.29-.332,6.635,0,9.837-1.383,2.636-1.136,5.551-1.562,7.476-4.086.95-1.246,3.131-.812,3.924.579a9.458,9.458,0,0,0,5.156,4.114,25.422,25.422,0,0,0,9.559,1.374,5.716,5.716,0,0,1,5.393,5.356c.106,1.889-.579,3.7-.367,5.571a8.463,8.463,0,0,1-2.856,7.294,5.6,5.6,0,0,0-1.759,3.116,13.074,13.074,0,0,1-1.827,5.488c-.884,1.252-.317,1.772.548,2.295C68.292,56.4,72.4,58,77.278,57.733M28.977,34.6a8.838,8.838,0,0,0,.683,4.074c.495,1.007,1.538,1.252,2.252,1.944,1.586,1.539,1.48,3.662,2.019,5.546.545,1.9.83,3.962,2.63,5.106,2.758,1.752,5.6,3.387,8.469,4.947a4.4,4.4,0,0,0,4.311.022c1.943-1,3.66-2.425,5.629-3.292,3.377-1.487,5.353-3.764,5.829-7.489.288-2.254.668-4.6,3.067-5.871a2.693,2.693,0,0,0,1.411-1.909,34.9,34.9,0,0,0,.437-6.618c-.046-.808-.374-1.173-1.181-1.167a27.38,27.38,0,0,1-5.743-.357c-3.49-.717-6.961-1.532-9.634-4.107a1.724,1.724,0,0,0-2.538-.283,13.452,13.452,0,0,1-4.077,2.2c-3.7.831-7.377,1.887-11.235,1.872a2.7,2.7,0,0,0-2.351,3.1,15.21,15.21,0,0,1,.02,2.284m-1.871,67.865a7.479,7.479,0,0,0,2.092,5.368c2.9,3.406,6.631,4.541,10.994,4.259a11.929,11.929,0,0,1,9.336,3.721c.656.638,1.408,1.6,2.209,1.525,3.189-.3,6.633,1.027,9.693-1.468a36.677,36.677,0,0,1-7.334-2.689c-4.435-2.036-4.8-9.071-.794-11.25a8.512,8.512,0,0,0,3.469-4.44,19.018,19.018,0,0,0,1.42-4.885c.156-1.589-.1-2.628-1.479-3.008-1.536-.423-2.255.453-2.648,1.785a11.5,11.5,0,0,1-5.133,6.943c-2.641,1.58-5.651,2.22-8.533,3.175-4.341,1.438-8.648,3.431-13.292.966m30.4-45.207c-1.889,1.119-3.484,2.139-5.148,3.032-3.281,1.761-6.67,2.219-10.017.249-1.7-1-3.369-2.044-5.217-2.989,0,1.661.071,3.189-.013,4.709A9.776,9.776,0,0,0,47.4,72.251c4.838-.345,8-2.409,9.49-6.294,1.031-2.681.677-5.592.62-8.7M32.558,84.919a6.542,6.542,0,0,0-7.08,6.949,7.014,7.014,0,0,0,6.713,6.786c3.036.094,7.234-3.25,7.12-6.246-.178-4.665-2.547-7.479-6.753-7.489" transform="translate(0 0)" fill="#fff"/>
  </g>
</svg>
