<svg id="Group_81" data-name="Group 81" xmlns="http://www.w3.org/2000/svg" xmlns:xlink="http://www.w3.org/1999/xlink" width="120" height="124.294" viewBox="0 0 120 124.294">
  <defs>
    <clipPath id="clip-path">
      <rect id="Rectangle_79" data-name="Rectangle 79" width="120" height="124.294" fill="#fff"/>
    </clipPath>
  </defs>
  <g id="Group_80" data-name="Group 80" clip-path="url(#clip-path)">
    <path id="Path_167" data-name="Path 167" d="M48.086,36.435a20.431,20.431,0,0,1,4.654,4.244,16.629,16.629,0,0,1,3.014,9.682q.045,13.626-.019,27.253c-.008,1.308.131,1.911,1.681,1.762a33.986,33.986,0,0,1,5.7.013c1.271.093,1.279-.5,1.276-1.451-.025-9.132.011-18.265-.024-27.4-.02-5.134,1.607-9.483,5.661-12.813.538-.442,1.6-.6,1.569-1.236s-1.1-.806-1.62-1.286c-3.171-2.927-5.358-6.379-5.543-10.83-.068-1.649-.072-3.3-.048-4.954.022-1.5.628-2.126,1.937-2.134A2.1,2.1,0,0,1,68.606,19.5c.057,1.746-.02,3.489.188,5.237a10.661,10.661,0,0,0,5.339,8.052,15.646,15.646,0,0,0,4.829,1.691.683.683,0,0,0,.549-.081c.669-.675.507-1.676.937-2.477.465-.866.295-1.478-.693-2.2A15.819,15.819,0,0,1,72.88,16.558,16.127,16.127,0,0,1,86.721.2,21.443,21.443,0,0,1,98.212,2a32.355,32.355,0,0,1,11.922,8.687,38.323,38.323,0,0,1,8.24,14.894,42.393,42.393,0,0,1,1.48,7.829,37.026,37.026,0,0,1-2.393,16.444,37.283,37.283,0,0,1-8.335,13.362,31.8,31.8,0,0,1-12.949,8.454,21.439,21.439,0,0,1-7.006,1.306A16.516,16.516,0,0,1,73.241,60.018a14.774,14.774,0,0,1,1.508-11.1c1.318-2.241,2.7-4.515,5.131-5.831a1.291,1.291,0,0,0,.7-1.794c-.945-2.9-.446-2.884-3.736-2.161-5.161,1.134-8.27,6.09-8.244,10.825.054,9.619.023,19.237,0,28.856,0,.981.267,1.278,1.342,1.523,4.868,1.109,9.469,2.822,12.006,7.612,2.184,4.123,2,8.377.215,12.559-1.664,3.9-4.9,6.449-8.232,8.828-1.929,1.378-3.9,2.7-5.72,4.218a4.252,4.252,0,0,0-1.741,3.733c.1,1.5.044,3.011.016,4.516a2.657,2.657,0,0,1-2.286,2.491c-1.159.023-2-1-2.008-2.453a34.722,34.722,0,0,0-.024-3.787c-.465-4.021,1.645-6.689,4.578-8.913,2.694-2.043,5.551-3.882,8.153-6.034a11.107,11.107,0,0,0,4.146-7.437c.727-6.095-2.645-8.862-7.165-10.405a23.7,23.7,0,0,0-8.685-1.5c-3.425.146-6.866-.286-10.281.28a24.531,24.531,0,0,0-7.779,2.465c-5.014,2.687-5.479,9.463-2.6,13.643,2.118,3.071,5.145,5.125,8.13,7.25,2.445,1.74,5.112,3.3,6.487,6.19a6.219,6.219,0,0,1,.784,2.591c.02,1.846.044,3.693,0,5.537a2.449,2.449,0,0,1-2.676,2.518c-.8.013-1.607-1.255-1.61-2.528,0-1.409-.04-2.819.007-4.226a4.721,4.721,0,0,0-2.025-4.082c-2.6-1.962-5.307-3.772-7.881-5.76-4.834-3.733-7.863-8.463-7.264-14.816A12.4,12.4,0,0,1,43,82.876a21.7,21.7,0,0,1,7.214-2.642c1.124-.194,1.6-.6,1.4-2a44.947,44.947,0,0,1-.075-6.256c0-7.044.03-14.088-.011-21.132-.027-4.615-1.769-8.34-5.843-10.81-1.561-.946-3.32-1.043-5.028-1.382-.121-.024-.341.023-.387.107a27.812,27.812,0,0,0-1.087,3.21c-.207.522.616.939,1.133,1.3a15.1,15.1,0,0,1,3.8,3.712c4.6,6.6,3.694,15.861-1.7,21.06a16.311,16.311,0,0,1-12.769,4.894,26.42,26.42,0,0,1-13.781-5.26,37.338,37.338,0,0,1-11.58-13.75A38.487,38.487,0,0,1,.412,42.144a37.831,37.831,0,0,1,.1-11.769A40.5,40.5,0,0,1,7.3,13.91a32.777,32.777,0,0,1,6.614-7.184A28.937,28.937,0,0,1,24.094,1.155C28.221.013,32.357-.5,36.454,1.132,41.845,3.286,45.547,7,46.663,12.877c.893,4.7.307,9.141-2.622,13.092a14.221,14.221,0,0,1-4.167,3.9c-.747.441-1.054.969-.491,1.761a2.359,2.359,0,0,1,.2.374c.37.794-.036,2.206.9,2.366a6.817,6.817,0,0,0,3.294-.668c5.092-1.927,7.52-5.766,7.746-11.106.047-1.115-.006-2.235.027-3.351A1.735,1.735,0,0,1,53.378,17.3a2.07,2.07,0,0,1,2.365,1.946c.215,3.772.022,7.512-1.762,10.94a15.95,15.95,0,0,1-5.9,6.244m67.71-.282a43.368,43.368,0,0,0-1.919-10.6A32.876,32.876,0,0,0,106.1,12.685C102.577,9.12,98.624,6.1,93.641,4.962c-2.829-.648-5.767-1.116-8.647.116-5.548,2.374-8.268,6.858-7.706,12.894.353,3.79,2.4,6.544,5.452,8.643a.9.9,0,0,0,1.239-.07c1.151-.883,2.177-1.963,3.686-2.344s2.595-.136,2.978.881a2.36,2.36,0,0,1-1.424,3.012,9.174,9.174,0,0,0-3.8,13.239,10.3,10.3,0,0,0,4.257,3.724A1.924,1.924,0,0,1,90.9,47.508a1.977,1.977,0,0,1-2.427,1.53A9.085,9.085,0,0,1,84.646,47c-1.206-1.2-2.15-1.1-3.239.195a6.653,6.653,0,0,1-.6.795,10.524,10.524,0,0,0-3.359,11.223c1.908,7.183,8.129,10.722,15.344,9.019a25.9,25.9,0,0,0,12.622-7.265,34.045,34.045,0,0,0,8.71-14.629A52.356,52.356,0,0,0,115.8,36.152m-111.414.7A31.2,31.2,0,0,0,7.558,50.827,31.316,31.316,0,0,0,23.472,67.035c4.376,1.978,8.918,2.466,13.412-.14,7.254-4.207,8.182-15.172,1.134-19.976a1.864,1.864,0,0,0-2.348-.087,14.477,14.477,0,0,1-3.412,2.014A2.529,2.529,0,0,1,29,47.587c-.422-.784.23-2.013,1.4-2.614a9.514,9.514,0,0,0,4.97-5.234c1.166-3.117.311-7.906-2.152-9.9-1.049-.85-2.267-1.4-3.272-2.278a2.141,2.141,0,0,1-.664-2.488A1.829,1.829,0,0,1,31.411,24,8.033,8.033,0,0,1,35.7,26.363c.606.535.962.66,1.7.109a12.465,12.465,0,0,0,5.262-8.328,11.174,11.174,0,0,0-3.3-10.221c-3.6-3.544-8.092-4.273-12.969-2.969-6.955,1.859-12.109,6.22-16.038,11.973a33.238,33.238,0,0,0-5.97,19.924" transform="translate(0 0)" fill="#fff"/>
  </g>
</svg>
