<svg id="Group_55" data-name="Group 55" xmlns="http://www.w3.org/2000/svg" xmlns:xlink="http://www.w3.org/1999/xlink" width="60.501" height="60.217" viewBox="0 0 60.501 60.217">
  <defs>
    <clipPath id="clip-path">
      <rect id="Rectangle_57" data-name="Rectangle 57" width="60.501" height="60.217" fill="#fff"/>
    </clipPath>
  </defs>
  <g id="Group_54" data-name="Group 54" clip-path="url(#clip-path)">
    <path id="Path_120" data-name="Path 120" d="M23.019,27.468a26.017,26.017,0,0,0-.475-5.744,48.439,48.439,0,0,1-.527-6.449c-.142-3.176-.147-6.359-.2-9.539a6.159,6.159,0,0,1,.358-2.324,2.535,2.535,0,0,1,3.456-1.24,1.448,1.448,0,0,1,.649,1.089,34.265,34.265,0,0,1,.794,5.274,69.02,69.02,0,0,0,2.139,13.725A6.372,6.372,0,0,0,30.345,24.8c.506.6.858.595,1.333-.036a10.958,10.958,0,0,0,1.459-3.073c1.573-4.53,2.58-9.214,3.725-13.86a18.317,18.317,0,0,1,2.351-6.184A5.027,5.027,0,0,1,40.4.369a1.321,1.321,0,0,1,2.248.841A6.374,6.374,0,0,1,42.6,3.9c-1,5.219-2.444,10.337-3.485,15.546a22.691,22.691,0,0,0-.651,5.463c.018.4-.067.889.386,1.086.5.219.819-.212,1.1-.52a18.15,18.15,0,0,0,3.316-6.115A112.454,112.454,0,0,1,48.288,7.9a3.6,3.6,0,0,1,1.179-1.389,1.275,1.275,0,0,1,2.142.994,11,11,0,0,1-.29,3.387,60.024,60.024,0,0,1-3.49,9.709c-.991,2.464-2.049,4.9-3.046,7.363a6.052,6.052,0,0,0-.479,3.254c.069.434.181.9.688,1.024a1.018,1.018,0,0,0,1.1-.562,45.312,45.312,0,0,1,4.925-5.679c1.4-1.49,2.8-2.968,4.155-4.5a5.165,5.165,0,0,1,3.654-2.014c1.28-.061,1.8.479,1.656,1.744a6.025,6.025,0,0,1-1.6,3.533A79.588,79.588,0,0,0,50.57,35.25c-1.6,2.386-2.476,5.146-3.654,7.749-.7,1.542-1.373,3.094-2.08,4.632-.109.238-.124.677-.5.607-.258-.048-.248-.427-.3-.681-.408-1.915-.584-3.864-.872-5.8a38.141,38.141,0,0,1-.328-6.548,4.214,4.214,0,0,0-.249-1.809A1.368,1.368,0,0,0,41.2,32.4c-.636.068-.912.582-.993,1.175a35.308,35.308,0,0,0-.343,5.5,5.219,5.219,0,0,1,.009.7c-.033.288.189.741-.249.81-.367.058-.484-.376-.6-.662A47.347,47.347,0,0,1,37.59,34.6c-.3-1.1-.587-2.2-.9-3.294a2.943,2.943,0,0,0-.326-.712c-.4-.654-.936-1.093-1.739-.787a1.241,1.241,0,0,0-.638,1.708c.585,1.869.784,3.833,1.46,5.678a13.689,13.689,0,0,1,.535,2.117c.068.352.167.83-.293.991-.409.143-.607-.262-.8-.544a30.7,30.7,0,0,1-2.225-4.167c-.565-1.186-1.146-2.363-1.727-3.542a2.378,2.378,0,0,0-.7-.882c-.333-.247-.675-.5-1.114-.241a1.088,1.088,0,0,0-.551,1.189,7.582,7.582,0,0,0,.84,2.292c.917,1.76,1.847,3.514,2.744,5.284a12.809,12.809,0,0,1,.639,1.627c.1.3.2.664-.105.891s-.62.006-.879-.178A18.5,18.5,0,0,1,28.84,39.2c-.858-.955-1.695-1.929-2.578-2.86-.49-.516-1-1.191-1.845-.557a1.731,1.731,0,0,0-.125,2.38c.7.892,1.488,1.721,2.214,2.6a22.022,22.022,0,0,0,2.811,2.873,8.406,8.406,0,0,1,2.187,2.6A1.946,1.946,0,0,1,30.111,49.3a4.126,4.126,0,0,1-1.82.11,4.15,4.15,0,0,0-3.665,1.257,1.229,1.229,0,0,0-.442,1.415c.23.556.812.459,1.234.368,2.919-.629,5.45.335,7.908,1.776a8.581,8.581,0,0,0,7.072.993c.207-.063.472-.25.643,0,.15.218-.069.436-.151.647-.735,1.884-2.36,2.788-4.069,3.478-3.823,1.543-7.559.887-11.221-.675a23.629,23.629,0,0,1-8.693-7.033A82.268,82.268,0,0,1,7.952,38.062,13.655,13.655,0,0,0,6.129,35.5,5.065,5.065,0,0,0,2.9,33.733,4.657,4.657,0,0,1,.767,33a1.322,1.322,0,0,1-.175-2.3,6.228,6.228,0,0,1,7.315-.947,18.876,18.876,0,0,1,5.034,3.6,12.417,12.417,0,0,0,2.842,2.168,6.539,6.539,0,0,0,3.919.609,2.8,2.8,0,0,0,2.03-1.521,10.392,10.392,0,0,0,1.278-4.861c.056-.755.009-1.517.009-2.276" transform="translate(0 0.001)" fill="#fff"/>
  </g>
</svg>
