<svg id="Group_53" data-name="Group 53" xmlns="http://www.w3.org/2000/svg" xmlns:xlink="http://www.w3.org/1999/xlink" width="70.71" height="65.736" viewBox="0 0 70.71 65.736">
  <defs>
    <clipPath id="clip-path">
      <rect id="Rectangle_56" data-name="Rectangle 56" width="70.71" height="65.737" fill="#fff"/>
    </clipPath>
  </defs>
  <g id="Group_52" data-name="Group 52" clip-path="url(#clip-path)">
    <path id="Path_113" data-name="Path 113" d="M21.244,83.214a11.012,11.012,0,0,1,3.974.83q7.9,3.2,15.784,6.421a5.945,5.945,0,0,1,2.022,1.1,3.753,3.753,0,0,1,.86,4.217,3.813,3.813,0,0,1-3.393,2.253,3.735,3.735,0,0,1-1.182-.216l-10.9-3.479q-.942-.3-1.888-.59c-.187-.057-.418-.127-.482.132-.053.213.181.225.326.271,4.282,1.344,8.554,2.72,12.851,4.017a4.065,4.065,0,0,0,5.227-4.324,4.507,4.507,0,0,0-.526-1.493.38.38,0,0,1,.192-.586q5.936-3.179,11.866-6.369c2.809-1.5,5.632-2.982,8.44-4.488a4.423,4.423,0,0,1,3.848-.407,4.522,4.522,0,0,1,2.289,1.916.615.615,0,0,1-.193.964q-3.7,2.789-7.384,5.6Q54.832,95.22,46.694,101.47c-1.162.891-2.338,1.766-3.495,2.664a7.319,7.319,0,0,1-6.134,1.426c-3.176-.6-6.355-1.191-9.551-1.661a13.035,13.035,0,0,0-9.835,2.369c-2.361,1.708-4.527,3.664-6.781,5.509-1,.816-2,1.621-2.973,2.465a2.118,2.118,0,0,1-3.552-1.165C3,107.7,1.559,102.338.146,96.97a2.15,2.15,0,0,1,1.061-2.8Q8.393,89.5,15.6,84.856a10.62,10.62,0,0,1,5.649-1.641" transform="translate(0 -49.111)" fill="#fff"/>
    <path id="Path_114" data-name="Path 114" d="M84.634,21.9A13.886,13.886,0,1,1,70.7,35.539,13.859,13.859,0,0,1,84.634,21.9M81.955,42.313a1.42,1.42,0,0,0,1.142-.437c.65-.623,1.31-1.237,1.946-1.876,2.157-2.166,4.274-4.372,6.484-6.485q.7-.667,1.362-1.369a1.259,1.259,0,0,0,.379-1.19,1.2,1.2,0,0,0-2.055-.55c-2.342,2.208-4.559,4.542-6.835,6.817-.694.694-1.4,1.372-2.1,2.067a.382.382,0,0,1-.648-.01c-.316-.343-.648-.672-.978-1-.888-.888-1.763-1.788-2.674-2.653a1.2,1.2,0,0,0-2.04.52,1.238,1.238,0,0,0,.414,1.265q2.208,2.231,4.433,4.444a1.41,1.41,0,0,0,1.166.457" transform="translate(-43.284 -13.409)" fill="#fff"/>
    <path id="Path_115" data-name="Path 115" d="M70.908,12.771c-.09-.479-.184-.984-.28-1.489-.024-.124-.095-.259.029-.36s.24,0,.352.057c.412.218.83.426,1.233.657a.662.662,0,0,0,.724.012c.39-.224.789-.432,1.185-.646.125-.067.253-.19.4-.1s.077.258.05.4c-.078.41-.149.821-.229,1.231a.871.871,0,0,0,.313.9c.306.26.59.546.883.82.1.09.2.19.175.327-.027.17-.194.143-.312.162a9.6,9.6,0,0,1-1.192.159.82.82,0,0,0-.809.557c-.165.384-.355.756-.541,1.13-.064.127-.131.283-.3.272-.154-.01-.169-.171-.224-.283-.184-.375-.387-.742-.548-1.127a.814.814,0,0,0-.728-.536c-.447-.049-.89-.128-1.337-.176-.343-.037-.341-.177-.135-.386.327-.332.666-.652.993-.984a.773.773,0,0,0,.308-.6" transform="translate(-42.526 -6.657)" fill="#fff"/>
    <path id="Path_116" data-name="Path 116" d="M52.743,39.647c.078-.475.134-.955.24-1.424a.717.717,0,0,0-.228-.736q-.468-.452-.933-.907c-.1-.1-.273-.174-.225-.339.055-.19.257-.157.409-.18.444-.066.888-.133,1.333-.185a.644.644,0,0,0,.546-.411c.2-.422.4-.84.6-1.261.047-.1.062-.242.188-.258.154-.018.21.132.266.242.185.356.38.709.531,1.08a1.015,1.015,0,0,0,.916.666c.4.042.8.092,1.2.14.111.014.247.014.294.129s-.062.206-.14.284c-.329.33-.652.667-.995.981a.83.83,0,0,0-.258.869c.088.391.157.787.232,1.181.027.142.072.3-.049.411-.147.13-.26-.035-.382-.093-.058-.028-.109-.069-.166-.1-1.741-.855-1.056-.9-2.942.1-.111.059-.207.17-.349.1s-.114-.179-.086-.291" transform="translate(-31.582 -20.781)" fill="#fff"/>
    <path id="Path_117" data-name="Path 117" d="M99.573,5.644c.078-.476.143-.954.237-1.426a.639.639,0,0,0-.2-.65c-.34-.319-.669-.65-1-.982-.1-.1-.268-.176-.208-.347s.245-.133.379-.153c.429-.064.86-.116,1.291-.162a.73.73,0,0,0,.664-.474c.154-.371.33-.733.51-1.093.067-.135.075-.356.273-.357.214,0,.252.221.33.372.168.33.346.657.485,1a.826.826,0,0,0,.723.548c.446.056.89.135,1.337.187.413.048.372.224.138.451-.311.3-.622.608-.953.888a.819.819,0,0,0-.288.861c.084.41.16.821.236,1.232.026.14.082.3-.068.4-.13.084-.245-.024-.355-.082-.4-.21-.8-.415-1.188-.642a.669.669,0,0,0-.725,0c-.422.233-.854.451-1.28.677-.085.045-.166.113-.266.057-.123-.07-.095-.19-.072-.3" transform="translate(-60.233 0)" fill="#fff"/>
    <path id="Path_118" data-name="Path 118" d="M132.543,11.192c-.081.475-.145.954-.249,1.423a.716.716,0,0,0,.263.764c.371.331.718.69,1.07,1.042.183.183.159.3-.12.327-.463.052-.923.146-1.386.168a.772.772,0,0,0-.756.545c-.165.4-.378.781-.576,1.167-.058.113-.129.243-.274.244-.166,0-.173-.165-.228-.274a1.634,1.634,0,0,1-.113-.266,1.878,1.878,0,0,0-2.056-1.533c-.226.012-.615.061-.689-.171s.271-.4.444-.576c1.222-1.266,1.01-.778.77-2.418-.032-.222-.242-.507,0-.674s.445.1.645.21c1.226.683,1.225.687,2.47.033.156-.082.3-.184.462-.259.254-.121.365-.026.322.247" transform="translate(-78.004 -6.669)" fill="#fff"/>
    <path id="Path_119" data-name="Path 119" d="M146.727,38a.628.628,0,0,0-.242-.507c-.333-.327-.666-.653-1-.983-.087-.088-.231-.173-.184-.315.055-.164.233-.142.372-.16.414-.054.828-.1,1.243-.154a.839.839,0,0,0,.731-.543c.175-.414.376-.818.568-1.225.04-.084.054-.2.171-.211.141-.015.192.1.24.2.185.375.384.745.538,1.132a.96.96,0,0,0,.864.656c.415.042.83.1,1.244.146.112.013.245.007.291.128s-.062.207-.139.286c-.339.344-.673.691-1.025,1.022a.761.761,0,0,0-.23.786c.093.423.172.85.249,1.277.023.126.045.272-.067.363-.129.1-.238-.019-.347-.076-.086-.044-.166-.1-.252-.142-1.567-.812-1.051-.883-2.81.1-.131.073-.242.269-.417.145-.157-.111-.079-.293-.053-.448q.124-.736.25-1.473" transform="translate(-88.949 -20.757)" fill="#fff"/>
  </g>
</svg>
