<svg id="Group_61" data-name="Group 61" xmlns="http://www.w3.org/2000/svg" xmlns:xlink="http://www.w3.org/1999/xlink" width="66.895" height="61.852" viewBox="0 0 66.895 61.852">
  <defs>
    <clipPath id="clip-path">
      <rect id="Rectangle_60" data-name="Rectangle 60" width="66.895" height="61.852" fill="#fff"/>
    </clipPath>
  </defs>
  <g id="Group_60" data-name="Group 60" clip-path="url(#clip-path)">
    <path id="Path_135" data-name="Path 135" d="M84.684,25.219c.028.076.066.192.112.3.286.691.564,1.386.866,2.071.127.288.049.406-.232.517-1.654.652-3.323,1.271-4.937,2.02-.263.122-.4.1-.524-.207-.277-.721-.606-1.421-.9-2.134a.539.539,0,0,0-.641-.357,9.947,9.947,0,0,1-2.459,0,.668.668,0,0,0-.78.455c-.275.669-.569,1.332-.825,2.008-.113.3-.254.387-.546.249-1.632-.771-3.328-1.388-5-2.072-.3-.125-.245-.305-.15-.53.287-.678.557-1.363.852-2.036a.567.567,0,0,0-.163-.751,14.876,14.876,0,0,1-1.886-1.908.5.5,0,0,0-.654-.136c-.732.316-1.474.607-2.207.92-.21.09-.314.034-.4-.166q-1.04-2.517-2.09-5.03c-.118-.282-.037-.414.248-.519.656-.24,1.3-.5,1.946-.78.475-.2.555-.345.5-.855a9.6,9.6,0,0,1,.006-2.385.637.637,0,0,0-.438-.753c-.682-.276-1.358-.567-2.042-.838-.287-.113-.355-.242-.223-.553q1.042-2.456,2.033-4.933c.118-.293.255-.353.526-.215.667.341,1.368.6,2.059.89a.574.574,0,0,0,.749-.173A14.723,14.723,0,0,1,69.28,5.525c.4-.343.417-.455.207-.958-.264-.634-.526-1.27-.81-1.895-.13-.285-.046-.427.224-.535C70.564,1.471,72.22.789,73.853.054c.276-.124.395-.026.5.229.27.684.568,1.358.838,2.043a.664.664,0,0,0,.789.431,11.655,11.655,0,0,1,2.46.006.623.623,0,0,0,.708-.453c.271-.671.559-1.336.815-2.013.109-.288.247-.355.525-.226,1.612.755,3.284,1.365,4.933,2.03.292.118.375.241.233.545-.311.667-.58,1.353-.883,2.024a.6.6,0,0,0,.161.787,20.328,20.328,0,0,1,1.9,1.9.562.562,0,0,0,.725.15c.674-.294,1.36-.565,2.021-.887.326-.159.456-.067.578.231C90.759,8.336,91.38,9.818,92,11.3c.336.81.337.813-.475,1.154-.554.233-1.111.459-1.668.684a.585.585,0,0,0-.378.707,9.911,9.911,0,0,1,0,2.532.569.569,0,0,0,.364.678c.713.3,1.423.6,2.145.876.276.1.329.213.214.487-.666,1.583-1.315,3.173-1.97,4.761-.236.572-.237.574-.818.331-.645-.27-1.292-.534-1.93-.819a.466.466,0,0,0-.619.123,19.674,19.674,0,0,1-1.929,1.92.7.7,0,0,0-.251.485m-7.448-3.064a6.961,6.961,0,0,0,6.977-6.927,7.063,7.063,0,1,0-6.977,6.927" transform="translate(-43.707 0)" fill="#fff"/>
    <path id="Path_136" data-name="Path 136" d="M82.469,170.805H70.138c-.593,0-.6,0-.534-.591q.474-4.349.952-8.7c.2-1.791.374-3.584.6-5.371a1.561,1.561,0,0,1,1.7-1.436c1.914,0,3.828.008,5.742-.005a.583.583,0,0,1,.65.442c.858,2.35,1.735,4.694,2.607,7.039.034.092.069.184.112.272a.505.505,0,0,0,.976-.037c.308-.815.619-1.628.921-2.445.6-1.633,1.208-3.267,1.8-4.9a.466.466,0,0,1,.506-.367c2,.009,4,0,6,.007a1.528,1.528,0,0,1,1.564,1.33c.168,1.251.294,2.507.435,3.761q.325,2.886.646,5.772.265,2.394.521,4.788c.042.386-.024.443-.462.443h-12.4" transform="translate(-49.005 -108.961)" fill="#fff"/>
    <path id="Path_137" data-name="Path 137" d="M9.781,177.157H.506c-.533,0-.543-.037-.479-.58.192-1.655.366-3.313.55-4.969.161-1.449.327-2.9.489-4.347.083-.743.151-1.487.243-2.229a1.294,1.294,0,0,1,1.377-1.292c1.643-.03,3.288-.007,4.931-.009.209,0,.3.115.366.295q1.042,2.812,2.092,5.621c.073.2.15.389.235.58a.48.48,0,0,0,.925-.017q.479-1.255.947-2.514c.454-1.218.911-2.435,1.355-3.657a.409.409,0,0,1,.433-.313c1.632,0,3.263-.01,4.895.008a1.289,1.289,0,0,1,1.336,1.175,26.937,26.937,0,0,1,.335,2.956,17.484,17.484,0,0,1-.224,2.376q-.273,2.5-.553,5c-.055.5-.12,1-.162,1.5-.027.328-.186.422-.505.42-3.1-.01-6.208-.006-9.311-.006v0" transform="translate(0 -115.314)" fill="#fff"/>
    <path id="Path_138" data-name="Path 138" d="M167.647,177.156h-9.166c-.628,0-.643,0-.71-.6-.211-1.888-.41-3.777-.614-5.665-.1-.926-.251-1.85-.285-2.778a17.374,17.374,0,0,1,.323-3.252,1.283,1.283,0,0,1,1.381-1.127c1.607-.017,3.215,0,4.822-.007.274,0,.382.148.466.378q1.017,2.762,2.048,5.52c.073.2.149.389.233.58s.178.368.442.375a.473.473,0,0,0,.487-.365q.577-1.513,1.145-3.029.593-1.585,1.174-3.175a.4.4,0,0,1,.42-.283c1.62,0,3.24-.018,4.859.008a1.291,1.291,0,0,1,1.4,1.274c.163,1.239.281,2.484.417,3.726.16,1.462.316,2.924.477,4.386q.2,1.79.405,3.58c.037.32-.051.465-.412.464-3.1-.011-6.209-.007-9.313-.007" transform="translate(-110.485 -115.311)" fill="#fff"/>
    <path id="Path_139" data-name="Path 139" d="M105.607,114.958a5.493,5.493,0,0,1-5.41,5.439,5.458,5.458,0,1,1-.06-10.916,5.555,5.555,0,0,1,5.471,5.477" transform="translate(-66.703 -77.11)" fill="#fff"/>
    <path id="Path_140" data-name="Path 140" d="M25.677,125.822a4.5,4.5,0,1,1-4.545,4.483,4.493,4.493,0,0,1,4.545-4.483" transform="translate(-14.884 -88.619)" fill="#fff"/>
    <path id="Path_141" data-name="Path 141" d="M183.585,130.324a4.446,4.446,0,0,1-4.558,4.462,4.491,4.491,0,0,1-4.463-4.538,4.66,4.66,0,0,1,4.586-4.481,4.533,4.533,0,0,1,4.436,4.557" transform="translate(-122.949 -88.579)" fill="#fff"/>
  </g>
</svg>
