<svg id="Group_57" data-name="Group 57" xmlns="http://www.w3.org/2000/svg" xmlns:xlink="http://www.w3.org/1999/xlink" width="60.529" height="58.297" viewBox="0 0 60.529 58.297">
  <defs>
    <clipPath id="clip-path">
      <rect id="Rectangle_58" data-name="Rectangle 58" width="60.529" height="58.297" fill="#fff"/>
    </clipPath>
  </defs>
  <g id="Group_56" data-name="Group 56" clip-path="url(#clip-path)">
    <path id="Path_121" data-name="Path 121" d="M60.471,22.252a1.121,1.121,0,0,0-.988-.759c-.471-.055-.941-.14-1.408-.212-5.737-.878-11.469-1.764-17.206-2.625a1.479,1.479,0,0,1-1.264-.912Q35.618,9.407,31.575,1.1C31.333.6,31.113,0,30.43,0s-.9.577-1.158,1.085q-4.21,8.37-8.412,16.748a1.028,1.028,0,0,1-.895.606c-.929.106-1.849.246-2.773.373q-5.953.814-11.91,1.632c-1.463.2-2.926.382-4.384.628-.907.153-1.149.852-.623,1.6A8.693,8.693,0,0,0,1.389,23.8q3.778,3.765,7.56,7.526l.068.068q.229-.483.407-.967a34.509,34.509,0,0,0,1.026-3.6c.131-.526.263-1.073.407-1.615a5.52,5.52,0,0,1,5.529-4.372c.2,0,.407.008.615.025a5.529,5.529,0,0,1,4.846,5.177,24.486,24.486,0,0,1-1.208,8.289c-.119.365-.246.729-.382,1.09.263,0,.53,0,.793,0s.513,0,.767,0c.123,0,.246,0,.369,0h.187A7.324,7.324,0,0,1,29.862,41.6a19.523,19.523,0,0,1,.208,6.738.685.685,0,0,0,.076.042c3.413,1.789,6.8,3.621,10.2,5.44q3.587,1.921,7.162,3.85a.993.993,0,0,0,1.179-.051,1.026,1.026,0,0,0,.356-1.09q-.757-4.579-1.514-9.159-.808-4.891-1.6-9.786a.889.889,0,0,1,.242-.869q3.587-3.428,7.162-6.869,3.4-3.275,6.8-6.559a.909.909,0,0,0,.343-1.03" transform="translate(0 0)" fill="#fff"/>
    <path id="Path_122" data-name="Path 122" d="M32.239,69.744h-.187c-.776,0-1.552-.017-2.328-.017-.526,0-1.052.008-1.573.034-.085,0-.17.008-.246.008-1.319,0-1.425-.623-.89-1.768a22.143,22.143,0,0,0,2.154-10.125,3,3,0,0,0-2.523-2.709c-.136-.013-.267-.017-.394-.017a3.007,3.007,0,0,0-3.07,2.485c-.483,1.815-.852,3.663-1.505,5.436-.674,1.823-1.734,3.464-2.459,5.253-.39.95-.895,1.488-1.781,1.488a1.965,1.965,0,0,1-.31-.021q.006,3.237,0,6.475v11.91h7.607q2.684,0,5.359,0a6.2,6.2,0,0,0,6.038-3.986,16.794,16.794,0,0,0,1.1-10.325,4.77,4.77,0,0,0-4.995-4.117" transform="translate(-9.865 -31.766)" fill="#fff"/>
    <path id="Path_123" data-name="Path 123" d="M5.208,85.324c-.288,0-.577,0-.869,0-.254,0-.509,0-.767,0-1.191,0-1.484.3-1.484,1.505q0,5.355,0,10.711,0,4.274,0,8.552c0,.975.365,1.336,1.34,1.344.28,0,.56,0,.844,0h.95c.407,0,.577-.03.649-.216a1.475,1.475,0,0,0,.047-.475V96.4q0-5.171,0-10.342a1.386,1.386,0,0,0-.064-.543c-.081-.165-.259-.191-.649-.2" transform="translate(-1.202 -49.143)" fill="#fff"/>
  </g>
</svg>
