<svg id="Group_83" data-name="Group 83" xmlns="http://www.w3.org/2000/svg" xmlns:xlink="http://www.w3.org/1999/xlink" width="103.334" height="103.296" viewBox="0 0 103.334 103.296">
  <defs>
    <clipPath id="clip-path">
      <rect id="Rectangle_80" data-name="Rectangle 80" width="103.334" height="103.296" fill="#fff"/>
    </clipPath>
  </defs>
  <g id="Group_82" data-name="Group 82" clip-path="url(#clip-path)">
    <path id="Path_168" data-name="Path 168" d="M52.619,0a3.488,3.488,0,0,1,2.031,2.357A3.071,3.071,0,0,1,51.62,6.111a45.492,45.492,0,0,0-19.386,4.422C18.13,17.551,9.511,28.813,6.781,44.339a43.235,43.235,0,0,0,4.9,28.64c.463.859.734.78,1.305.148.833-.921,1.739-1.777,2.626-2.647,2.036-2,4.61-1.42,5.534,1.3,1.742,5.118,3.427,10.256,5.136,15.386.382,1.147.767,2.293,1.141,3.443a3,3,0,0,1-.739,3.251,3.042,3.042,0,0,1-3.341.749C17.04,92.5,10.725,90.42,4.427,88.288A3.122,3.122,0,0,1,3.206,82.9c1.22-1.251,2.438-2.505,3.715-3.7a1.084,1.084,0,0,0,.207-1.618A51.134,51.134,0,0,1,.66,60.319C.395,58.836.218,57.337,0,55.845V47.378c.139-1.1.253-2.194.422-3.285a50.862,50.862,0,0,1,7.8-20.536A51.639,51.639,0,0,1,37.9,1.742,61.668,61.668,0,0,1,47.378,0Zm-33.1,86.722c-.938-2.808-1.786-5.338-2.626-7.872-.174-.526-.409-.41-.707-.111q-2.3,2.314-4.619,4.618c-.356.353-.4.585.146.764,2.506.828,5.008,1.667,7.806,2.6" fill="#fff"/>
    <path id="Path_169" data-name="Path 169" d="M138.722,60.344a12.91,12.91,0,0,1-.786,5,1.38,1.38,0,0,0,.3,1.545,27.013,27.013,0,0,1,6.5,19.96,24.773,24.773,0,0,1-1.218,6.107,2,2,0,0,0,.1,1.544,12.151,12.151,0,0,1-9.014,17.252,11.3,11.3,0,0,1-6.981-.9,2.657,2.657,0,0,0-2.018-.151,27.058,27.058,0,0,1-24.545-4.268,2.845,2.845,0,0,0-1.755-.591,9.112,9.112,0,0,1-8.4-12.692,2.417,2.417,0,0,0,.149-1.642,26.943,26.943,0,0,1,1.374-17.73,1.433,1.433,0,0,0-.272-1.642,9.152,9.152,0,0,1,5.7-14.715,8.858,8.858,0,0,1,7.033,1.755,2.333,2.333,0,0,0,3.654-1.43,15.23,15.23,0,0,1,29.928-.344,11.919,11.919,0,0,1,.243,2.948M120.447,99.92a11.827,11.827,0,0,1,1.142-5.406,12.166,12.166,0,0,1,15.57-6.085c.753.288,1.038.254,1.153-.618A23.311,23.311,0,0,0,138.226,81c-2.114-13.15-16.576-21.085-28.852-15.83a1.27,1.27,0,0,0-.9,1.346A8.981,8.981,0,0,1,99.4,75.595a1.19,1.19,0,0,0-1.309.8,21.511,21.511,0,0,0-1.517,10.646c.072.64.375.793.946.677a8.827,8.827,0,0,1,3.5-.027,9.143,9.143,0,0,1,5.982,14.023c-.319.5-.59.841.154,1.248a21.189,21.189,0,0,0,13.715,2.422c.65-.1.772-.3.511-.908a10.388,10.388,0,0,1-.94-4.558m12.168-6.148a5.96,5.96,0,1,0,5.956,6.013,6.071,6.071,0,0,0-5.956-6.013m-.088-33.438c-.031-.22-.082-.552-.122-.885A8.924,8.924,0,0,0,115.641,56.2c-.565,1.036-.5,1.171.7,1.121a26.98,26.98,0,0,1,15.115,3.8c.838.493,1.056.343,1.074-.79M102.28,66.416A2.934,2.934,0,1,0,99.422,69.4a3.091,3.091,0,0,0,2.858-2.984M99.317,99.641a2.935,2.935,0,1,0-2.9-2.938,3.089,3.089,0,0,0,2.9,2.938" transform="translate(-65.88 -33)" fill="#fff"/>
    <path id="Path_170" data-name="Path 170" d="M184.907,124.472c-.571,0-1.143.014-1.714,0a3.089,3.089,0,0,1-.093-6.175,48.113,48.113,0,0,0,11.845-1.6c17.815-5.381,28.945-17.139,32.867-35.32,2.343-10.86.32-21.222-5.16-30.9-.419-.739-.722-.8-1.307-.172-.982,1.058-2.019,2.068-3.06,3.07-2.01,1.935-4.582,1.325-5.477-1.328-2.093-6.205-4.152-12.421-6.222-18.633a3.169,3.169,0,0,1,.629-3.468,3.113,3.113,0,0,1,3.441-.734c6.276,2.091,12.563,4.152,18.823,6.291,2.586.884,3.133,3.477,1.23,5.451-1.072,1.112-2.143,2.233-3.289,3.267-.666.6-.639,1.057-.19,1.779a50.691,50.691,0,0,1,.652,52.77c-8.169,13.7-20.2,22.008-35.869,25a38.161,38.161,0,0,1-7.107.7m29.944-87.234c-.461.175-.2.52-.115.792.733,2.23,1.495,4.45,2.209,6.685.21.658.407.738.9.225q2.14-2.2,4.341-4.34c.635-.616.375-.821-.307-1.04-2.138-.689-4.263-1.416-6.394-2.127-.191-.064-.385-.117-.639-.194" transform="translate(-131.63 -21.182)" fill="#fff"/>
  </g>
</svg>
