<svg id="Group_51" data-name="Group 51" xmlns="http://www.w3.org/2000/svg" xmlns:xlink="http://www.w3.org/1999/xlink" width="63.523" height="60.897" viewBox="0 0 63.523 60.897">
  <defs>
    <clipPath id="clip-path">
      <rect id="Rectangle_55" data-name="Rectangle 55" width="63.523" height="60.898" fill="#fff"/>
    </clipPath>
  </defs>
  <g id="Group_50" data-name="Group 50" clip-path="url(#clip-path)">
    <path id="Path_112" data-name="Path 112" d="M33.463,34.059c0,5.923.01,11.847-.013,17.77,0,.685.151,1,.9,1.042a25.806,25.806,0,0,1,6.8,1.288,12.694,12.694,0,0,1,5.785,3.555A5.573,5.573,0,0,1,47.953,59.5c.345.972.054,1.392-.985,1.393q-7.115.007-14.23,0-7.816,0-15.632,0c-1.256,0-1.539-.45-1.079-1.617a8.007,8.007,0,0,1,4.1-3.992,21.909,21.909,0,0,1,8.64-2.346c1.684-.138,1.688-.088,1.688-1.772q0-17.035,0-34.071c0-.489-.03-.979-.019-1.468.009-.406-.135-.475-.471-.278a26.012,26.012,0,0,0-2.389,1.708,10.574,10.574,0,0,1-4.348,2.107,7.5,7.5,0,0,1-6-1.4,1.219,1.219,0,0,0-.1-.083c-.289-.164-.529-.552-.932-.232s-.151.685-.011,1.023c.23.555.477,1.1.715,1.655q2.417,5.609,4.834,11.218,1.705,3.945,3.434,7.881a2.1,2.1,0,0,1-.056,1.981A13.386,13.386,0,0,1,14.42,48.6,13.6,13.6,0,0,1,1.469,43.126a13.323,13.323,0,0,1-1.287-2.1,1.892,1.892,0,0,1,.033-1.675c1.5-3.666,3.027-7.322,4.484-11.006.784-1.982,1.653-3.928,2.408-5.925.514-1.362,1.063-2.731,1.711-4.047a1.679,1.679,0,0,0-.005-1.578,4.279,4.279,0,1,1,7.929-3.168.946.946,0,0,0,.586.653,8.38,8.38,0,0,1,1.751,1.093,4.583,4.583,0,0,0,5.212.22,36.72,36.72,0,0,0,3.1-2.194,10.866,10.866,0,0,1,2.582-1.38.624.624,0,0,0,.48-.7,5.4,5.4,0,0,1,0-.8,2.673,2.673,0,0,0-1.346-3.012c-1.456-.85-1.866-3.178-1.21-4.82A4.331,4.331,0,0,1,32.4.021a4.25,4.25,0,0,1,3.73,3.326,4.225,4.225,0,0,1-2.107,4.7.97.97,0,0,0-.571,1.006c.03.8.017,1.6.007,2.4a.614.614,0,0,0,.431.665,19.413,19.413,0,0,1,4.252,2.734A8.307,8.307,0,0,0,40.3,16.037a4.239,4.239,0,0,0,3.889-.5,10.985,10.985,0,0,1,2.231-1.332c.339-.123.37-.431.444-.7a4.339,4.339,0,0,1,4.105-2.832,4.206,4.206,0,0,1,3.956,2.851,4.128,4.128,0,0,1-.251,3.427,1.171,1.171,0,0,0-.049,1.129q4.354,10.587,8.694,21.18a2.175,2.175,0,0,1-.081,1.985A13.4,13.4,0,0,1,52.6,48.6a13.589,13.589,0,0,1-12.059-4.362,16.936,16.936,0,0,1-1.913-2.648,2.5,2.5,0,0,1-.134-2.535c1.37-3.117,2.7-6.251,4.052-9.377Q44.95,24.1,47.361,18.525c.062-.143.12-.288.184-.43a.505.505,0,0,0-.162-.653c-.218-.184-.407-.088-.606.038-.507.321-1,.669-1.532.944a7.683,7.683,0,0,1-7.992-.511c-1-.614-1.923-1.364-2.887-2.044-.248-.175-.518-.543-.786-.392-.243.138-.112.575-.112.878q-.01,8.852-.006,17.7m17.43,4.7q4.04,0,8.08,0c.819,0,.851-.062.53-.839q-1.464-3.543-2.919-7.09c-1.507-3.686-3.016-7.371-4.5-11.067-.218-.543-.585-.559-1.056-.568a.87.87,0,0,0-.956.613c-1.172,2.784-2.381,5.552-3.577,8.325Q44.37,33.066,42.248,38c-.3.7-.249.755.5.755q4.074,0,8.147,0m-38.243,0q4.072,0,8.144,0c.742,0,.8-.07.519-.761-.384-.947-.8-1.881-1.208-2.818-.934-2.14-1.884-4.273-2.808-6.417q-1.95-4.529-3.863-9.074c-.238-.567-.675-.46-1.108-.488a.721.721,0,0,0-.823.509c-.326.848-.686,1.684-1.029,2.526-.829,2.039-1.649,4.082-2.483,6.119-1.315,3.211-2.643,6.416-3.956,9.628-.3.733-.257.777.538.777H12.65" transform="translate(0 -0.001)" fill="#fff"/>
  </g>
</svg>
