<svg id="Group_85" data-name="Group 85" xmlns="http://www.w3.org/2000/svg" xmlns:xlink="http://www.w3.org/1999/xlink" width="116" height="139.599" viewBox="0 0 116 139.599">
  <defs>
    <clipPath id="clip-path">
      <rect id="Rectangle_81" data-name="Rectangle 81" width="116" height="139.599" fill="#fff"/>
    </clipPath>
  </defs>
  <g id="Group_84" data-name="Group 84" clip-path="url(#clip-path)">
    <path id="Path_171" data-name="Path 171" d="M112.07,76.418a13.8,13.8,0,0,0-19.057-1.154c-.681.583-.733.533-1.227.028a2.759,2.759,0,0,0-.4-.328l-.1-.07a13.088,13.088,0,0,1-1.2-.949,12.785,12.785,0,0,1,.968-1.136l.081-.089c4.957-5.466,7.114-11.726,6.411-18.608a23.069,23.069,0,0,0-9.9-17.158c-8.063-5.73-18.6-4.716-26.207,2.526-.189.181-.356.344-.506.492-.2.2-.427.421-.57.536a12.875,12.875,0,0,1-1.121-1.029c-6.892-6.8-16.913-8.129-24.936-3.3C27.641,40.2,23.9,46.416,23.179,54.664a3.356,3.356,0,0,1-1.049,2.608C12.624,65.789,8.874,75.4,10.665,86.64a12.218,12.218,0,0,1-2.19,9.388C7.451,97.443,6.451,98.9,5.515,100.27c-.529.774-1.111,1.545-1.673,2.292a32.462,32.462,0,0,0-3.256,4.927,4.461,4.461,0,0,0-.273,3.83,4.612,4.612,0,0,0,3.029,2.48,20.2,20.2,0,0,0,5.335.7c.737.025.864.122.877.133s.115.137.177.911c.044.563.062,1.135.051,1.7-.03,1.588,0,3.193.033,4.744.047,2.317.095,4.713-.069,7.048a21.786,21.786,0,0,0,.016,2.878c.274,4.354,3.035,7.288,7.206,7.657a33.245,33.245,0,0,0,4.953-.05l.21-.012c1.007-.059,2.014-.17,2.99-.278a24.723,24.723,0,0,1,6.577-.143c.864.135,1.189.4,1.388,1.146a25.614,25.614,0,0,1,.819,5.925c.04,1.366.035,2.762.029,4.114,0,.736-.006,1.472,0,2.209a2.307,2.307,0,0,0,2.277,2.441c.079.005.156.008.232.008a2.248,2.248,0,0,0,2.333-2.148l.023-.149a3.32,3.32,0,0,0,.052-.589l-.039-1.529a61.608,61.608,0,0,0-.791-10.063c-.473-2.5-1.486-5.429-5.149-5.968a32.92,32.92,0,0,0-7.492-.133c-.851.065-1.7.158-2.547.251a41.808,41.808,0,0,1-4.5.329H18.3c-2.877,0-3.849-.975-3.851-3.845,0-1.214.05-2.458.1-3.661.035-.845.07-1.689.088-2.535a.916.916,0,0,1,.006-.108.871.871,0,0,1,.118,0c.929.017,1.858.012,2.787.009l1.182,0,.9-.061.422,0c1.045.006,2.089.014,3.13-.016a2.3,2.3,0,0,0,2.3-2.546c.029-1.813-1.473-2-2.188-2.1a21.524,21.524,0,0,0-3.5-.17l-1.434.046c-1.162.037-2.324.073-3.485.135a1.084,1.084,0,0,1-.264-.006,1.386,1.386,0,0,1-.023-.275c0-1.084-.054-2.176-.105-3.232l-.056-1.228a5.327,5.327,0,0,0-4.264-5.292,15.976,15.976,0,0,0-3.653-.44,5.669,5.669,0,0,1-1.629-.16,7.031,7.031,0,0,1,.907-1.608C6.831,106.3,7.936,104.777,9,103.3c1.256-1.735,2.556-3.531,3.758-5.364A16.12,16.12,0,0,0,15.6,87.482c-.035-.422-.062-.845-.088-1.267-.052-.808-.105-1.642-.21-2.471-1.013-7.968,1.755-15.077,8.461-21.721a20.7,20.7,0,0,0,4.826,9.635c3.329,3.695,6.755,7.409,10.07,11L40,84.112c.165.178.327.36.488.541A13.472,13.472,0,0,0,42.5,86.605a2.058,2.058,0,0,0,2.841-.025,2.1,2.1,0,0,0,.315-2.991c-.409-.541-.85-1.113-1.338-1.646q-1.406-1.537-2.807-3.081c-2.569-2.824-5.225-5.746-7.908-8.561a21.182,21.182,0,0,1-5.627-11.071c-.111-.595-.011-.714.325-.929a39.563,39.563,0,0,1,6.273-3.37A39.774,39.774,0,0,1,54.42,52.4c9.837,1.038,17.31,5.131,22.85,12.516a9.909,9.909,0,0,0,.672.816,2.338,2.338,0,0,0,3.05.348A1.988,1.988,0,0,0,81.6,63.2a13.728,13.728,0,0,0-1.334-2.037,34.065,34.065,0,0,0-9.742-8.405,42.017,42.017,0,0,0-30.636-4.377,44.209,44.209,0,0,0-11.856,4.631,22.586,22.586,0,0,1,2.9-7.371,16.2,16.2,0,0,1,24.054-3.881,27.348,27.348,0,0,1,2.944,2.962c.319.356.638.711.963,1.06a2.04,2.04,0,0,0,1.471.764h.009a2.077,2.077,0,0,0,1.491-.8c1.222-1.347,2.38-2.535,3.541-3.63a16.12,16.12,0,0,1,16.737-2.907C89.955,42.543,94.3,51.44,92.488,60.362A20.956,20.956,0,0,1,86.72,70.724q-7,7.429-13.95,14.9Q67.318,91.468,61.855,97.3l-.323.345c-.464.5-.907.97-1.178,1.208-.118-.132-.268-.313-.406-.483-.26-.316-.579-.7-.991-1.154-.288-.314-.568-.636-.848-.956a21.958,21.958,0,0,0-2.449-2.52,2.168,2.168,0,0,0-3.077-.153c-.559.491-1.313,1.561-.088,3.209.3.4.61.807.942,1.185q.88,1,1.769,2c1.155,1.3,2.312,2.6,3.437,3.925a2.338,2.338,0,0,0,1.684.964h.028a2.424,2.424,0,0,0,1.74-.961c1.446-1.6,2.923-3.166,4.4-4.735q1.1-1.173,2.2-2.35l5.663-6.082Q77.727,87.119,81.1,83.5q1.083-1.16,2.175-2.315c1.082-1.147,2.165-2.294,3.231-3.456.25-.27.273-.3.652-.056A19.725,19.725,0,0,1,90.583,80.5c.683.693,1.137,1.155,1.819,1.155h.036c.706-.017,1.149-.513,1.82-1.261,2.816-3.149,6.2-4.283,10.058-3.376a9.221,9.221,0,0,1,4.444,15.189c-3.586,3.719-7.325,7.42-10.94,11q-2.394,2.372-4.783,4.749c-.261.263-.55.55-.732.7-.191-.154-.5-.461-.777-.738l-5.263-5.254Q82.8,99.2,79.323,95.737c-.558-.554-1.19-1.122-1.932-1.739a2.156,2.156,0,0,0-3.2-.027,2.1,2.1,0,0,0,.025,3.1c.474.571.983,1.111,1.474,1.63l.258.274q.87.923,1.748,1.837L79,102.18c.151.161.16.206.082.41a125.979,125.979,0,0,1-5.166,12.121l-.291.567a71.177,71.177,0,0,0-4.141,9.129,45.443,45.443,0,0,0-2.155,20c.079.711.149,1.422.22,2.134a60.026,60.026,0,0,0,.863,6.375,2.293,2.293,0,0,0,2.706,1.805c1.275-.068,1.881-.868,1.8-2.375-.088-1.662-.277-3.326-.46-4.935-.163-1.43-.331-2.909-.424-4.358-.525-8.2.519-14.732,3.283-20.556.566-1.193,1.142-2.383,1.718-3.571a137.971,137.971,0,0,0,5.786-13.087c1.491,1.521,3,3.024,4.512,4.526.758.754,1.517,1.507,2.282,2.273,2.437,2.44,3.1,2.456,5.5.088q1.863-1.841,3.737-3.672c4.5-4.41,9.155-8.971,13.479-13.722a13.681,13.681,0,0,0-.26-18.92" transform="translate(0 -15.33)" fill="#fff"/>
    <path id="Path_172" data-name="Path 172" d="M162.044,20.438l.278.278c1.575,1.579,2.906.81,3.405.4a2.2,2.2,0,0,0,.823-1.544,2.952,2.952,0,0,0-.862-2.161l-.194-.213c-.931-1.024-1.862-2.048-2.805-3.06-1.573-1.688-2.511-3.124-2.33-5.058.192-2.058.982-3.324,2.484-3.983a4.317,4.317,0,0,1,4.644.735,3.108,3.108,0,0,1,.508.642c.4.6,1.016,1.506,2.129,1.327a3.56,3.56,0,0,0,1.955-1.386,6.44,6.44,0,0,1,.623-.644,4.127,4.127,0,0,1,3.464-.987,4.184,4.184,0,0,1,2.88,2.23,5.106,5.106,0,0,1-.755,5.923c-2.159,2.442-4.416,4.876-6.6,7.23l-.733.791c-.148.159-.29.339-.432.521a3.264,3.264,0,0,1-.53.589c-.079-.08-.183-.2-.26-.3a4.522,4.522,0,0,0-.574-.605,2.1,2.1,0,0,0-2.924.239,2,2,0,0,0-.788,1.368,1.923,1.923,0,0,0,.521,1.432c.876,1.028,1.748,2.058,2.6,3.1a1.781,1.781,0,0,0,1.323.743h.047a1.9,1.9,0,0,0,1.358-.689q1.771-1.916,3.551-3.823c2.364-2.539,4.809-5.165,7.179-7.781a8.806,8.806,0,0,0,2.331-6.279A9.271,9.271,0,0,0,179.7,1.221a8.275,8.275,0,0,0-9.147.333.9.9,0,0,1-1.283-.015A7.8,7.8,0,0,0,162.8.242a9.22,9.22,0,0,0-6.611,5.824,9.62,9.62,0,0,0,1.146,9.128,45.727,45.727,0,0,0,4.712,5.245" transform="translate(-71.68 0)" fill="#fff"/>
    <path id="Path_173" data-name="Path 173" d="M44.8,133.657l-.3.113a6.5,6.5,0,0,0-1.038.455,6.84,6.84,0,0,1-4.807.568,9.859,9.859,0,0,1-1.424-.4c-.417-.138-.834-.275-1.258-.377-2.031-.483-2.616.686-2.775,1.212a2.428,2.428,0,0,0,1.377,3.178,16.849,16.849,0,0,0,5.9,1.352h.036l.037,0a14.348,14.348,0,0,0,6.233-2.053,2.054,2.054,0,0,0,1-2.855,2.216,2.216,0,0,0-2.975-1.194" transform="translate(-15.231 -61.512)" fill="#fff"/>
  </g>
</svg>
