<svg id="Group_75" data-name="Group 75" xmlns="http://www.w3.org/2000/svg" xmlns:xlink="http://www.w3.org/1999/xlink" width="114" height="108.077" viewBox="0 0 114 108.077">
  <defs>
    <clipPath id="clip-path">
      <rect id="Rectangle_76" data-name="Rectangle 76" width="114" height="108.077" fill="#fff" stroke="#fff" stroke-width="1"/>
    </clipPath>
  </defs>
  <g id="Group_74" data-name="Group 74" clip-path="url(#clip-path)">
    <path id="Path_157" data-name="Path 157" d="M114,82.048a32.37,32.37,0,0,1-2.6,8.927c-4.625,9.364-12.035,15.036-22.378,16.729a28.289,28.289,0,0,1-18.07-3.11,1.245,1.245,0,0,0-1.506.038,8.419,8.419,0,0,1-9.137.639A178.144,178.144,0,0,1,39.961,93.628a2.122,2.122,0,0,0-2.825.027c-3.541,2.443-7.26,4.6-11.011,6.709a2.376,2.376,0,0,1-1.465.426,1.7,1.7,0,0,1-1.571-1.357,1.656,1.656,0,0,1,.833-1.9c1.036-.649,2.112-1.233,3.171-1.845A143.362,143.362,0,0,0,54.667,75.324a4.69,4.69,0,0,0,1.3-2.6A29.055,29.055,0,0,1,69.493,53.575a3.021,3.021,0,0,0,1.365-1.651c4.356-12.351,3.242-23.979-4.644-34.671a33.29,33.29,0,0,0-9.525-8.589c-.149-.092-.314-.158-.7-.352a23.55,23.55,0,0,1,2.251,6.559,37.89,37.89,0,0,1-.667,14.669C55.537,38.935,51.995,47.66,45.9,55.21a85.682,85.682,0,0,1-16.78,15.331A156.211,156.211,0,0,1,6.9,83.806a5.368,5.368,0,0,0-3.289,4.166,4.851,4.851,0,0,0,.448,2.7C5.39,93.69,6.732,96.7,8.133,99.69a4.955,4.955,0,0,0,6.909,2.45c.7-.33,1.385-.72,2.11-1a1.748,1.748,0,0,1,1.664,3.048c-3.746,2.364-7.68,3.321-11.793-.071a8.672,8.672,0,0,1-2.3-3.238Q2.782,96.576.843,92.267A8.5,8.5,0,0,1,4.868,80.848c3.463-1.777,6.915-3.572,10.277-5.535,1.523-.889,1.506-.881.349-2.166A65.991,65.991,0,0,1,4.022,55.911,42.11,42.11,0,0,1,.15,38.35,38.078,38.078,0,0,1,32.073.573C46.028-1.666,57.79,2.683,67.348,13.038c.687.744,1.014.837,1.759.05a8.929,8.929,0,0,1,11.739-1.42,6.435,6.435,0,0,0,7.74.016,9.128,9.128,0,0,1,11.938,1.522c.958,1.048,1.024,2.068.182,2.829-.786.711-1.8.582-2.741-.348a5.694,5.694,0,0,0-7.757-.827,9.306,9.306,0,0,1-11.025-.034,5.79,5.79,0,0,0-7.814,1.013A1.72,1.72,0,0,0,71.2,18.2a36.22,36.22,0,0,1,5.275,14.052,40.18,40.18,0,0,1-.988,16.954,6.663,6.663,0,0,1-.172.644c-.311.812-.072,1,.742.749a29.283,29.283,0,0,1,25.984,4.35c1.42,1.018,1.673,1.035,2.863-.237a5.451,5.451,0,0,0,1.212-5.981c-1.66-4.354-.761-7.991,2.568-11.217a5.651,5.651,0,0,0-2.249-9.581,10.159,10.159,0,0,1-5.558-4.015,5.915,5.915,0,0,1-.579-1.074,1.746,1.746,0,0,1,.761-2.3,1.686,1.686,0,0,1,2.323.652,7.324,7.324,0,0,0,4.544,3.464,8.744,8.744,0,0,1,5.7,5.946L114,31.775v3.337a12.389,12.389,0,0,1-3.487,5.688,5.486,5.486,0,0,0-1.171,6.262,9.2,9.2,0,0,1-2.574,10.774c-.614.554-.547.863-.042,1.4a27.627,27.627,0,0,1,4.443,6.609A32.28,32.28,0,0,1,114,75.375ZM84.69,52.913a25.772,25.772,0,1,0,25.837,25.741A25.79,25.79,0,0,0,84.69,52.913M21.179,8.194a29.547,29.547,0,0,0-6.791,5.07C5.068,22.689,1.906,33.952,4.775,46.831c2.195,9.852,7.755,17.85,14.477,25.142.435.472.77.392,1.24.095a120.219,120.219,0,0,0,14.8-11c.514-.449.547-.749.067-1.249-1.128-1.177-2.233-2.379-3.29-3.619-6.53-7.663-10.31-16.636-12.453-26.367a38.569,38.569,0,0,1-.672-15.219,23.332,23.332,0,0,1,2.232-6.42M52.753,33.962c1.774-6.068,2.835-12.006,2.01-18.156C53.943,9.7,50.348,5.668,44.379,4.22a27.5,27.5,0,0,0-9.709-.406c-6.436.739-10.7,4.537-12.075,10.828a32.128,32.128,0,0,0,.176,12.676A42.075,42.075,0,0,0,24.4,33.891C27.02,27.455,31.579,23.7,38.476,23.664c7-.039,11.608,3.758,14.277,10.3M49.7,38.054a10.972,10.972,0,0,0-8.661-10.585,11.14,11.14,0,0,0-12.614,6.22c-1.632,3.464-1.224,6.929.137,10.342,2.086,5.231,5.661,9.428,9.476,13.45.452.476.734.257,1.089-.1a46.219,46.219,0,0,0,8.219-10.721A17.2,17.2,0,0,0,49.7,38.054M55.37,79.765a2.138,2.138,0,0,0-.45.2A123.9,123.9,0,0,1,42.39,90.085c-.725.514-.275.727.154,1.006a183.7,183.7,0,0,0,19.739,11.129,4.789,4.789,0,0,0,3.356.318c.348-.088.831-.1.949-.477.141-.445-.377-.572-.638-.8a29.852,29.852,0,0,1-8.4-11.451A29.29,29.29,0,0,1,55.37,79.765" transform="translate(0 0.001)" fill="#fff" stroke="#fff" stroke-width="1"/>
    <path id="Path_158" data-name="Path 158" d="M273.535,72.249a5.632,5.632,0,1,1-5.586,5.672,5.548,5.548,0,0,1,5.586-5.672m2.059,5.581a1.962,1.962,0,0,0-2.034-2.008,2.117,2.117,0,0,0-2.069,2.031,2.036,2.036,0,0,0,2.153,2.023,1.868,1.868,0,0,0,1.95-2.046" transform="translate(-188.321 -50.778)" fill="#fff" stroke="#fff" stroke-width="1"/>
    <path id="Path_159" data-name="Path 159" d="M304.356,126.97a5.492,5.492,0,0,1-5.581-5.653,5.632,5.632,0,1,1,5.581,5.653m2.042-5.638a1.863,1.863,0,0,0-2.013-1.984,2.014,2.014,0,0,0-2.072,1.992,2.183,2.183,0,0,0,2.129,2.113,2.06,2.06,0,0,0,1.957-2.122" transform="translate(-209.986 -81.32)" fill="#fff" stroke="#fff" stroke-width="1"/>
    <path id="Path_160" data-name="Path 160" d="M242.046,239.76c-1.186,0-2.372.01-3.558,0a3.311,3.311,0,0,1-3.6-3.6c-.026-2.075-.035-4.151.005-6.226.016-.83-.293-1.1-1.105-1.085-2.075.04-4.15.025-6.226.008a3.289,3.289,0,0,1-3.572-3.517c-.034-2.408-.021-4.818-.007-7.226.014-2.387,1.266-3.679,3.713-3.759,1.777-.058,3.557-.016,5.336-.018,1.848,0,1.848,0,1.848-1.9,0-1.779-.015-3.557.006-5.336.025-2.128,1.161-3.493,3.278-3.591,2.661-.124,5.337-.123,8,0a3.244,3.244,0,0,1,3.248,3.517c.045,2,.062,4-.006,6-.035,1.049.367,1.354,1.36,1.324,1.851-.056,3.705-.035,5.558-.01,2.745.038,3.989,1.311,4,4.063.009,2.223.016,4.447,0,6.67-.02,2.505-1.289,3.772-3.767,3.784-1.964.009-3.93.05-5.891-.017-1-.034-1.284.335-1.255,1.288.058,1.888.024,3.779.015,5.67-.013,2.729-1.23,3.952-3.926,3.961-1.149,0-2.3,0-3.446,0m-10.053-21.8c-1.111,0-2.224.031-3.334-.011-.763-.028-1.066.257-1.051,1.029.033,1.7.042,3.409,0,5.111-.024.884.338,1.169,1.183,1.153,1.963-.035,3.927-.042,5.89,0,2.547.056,3.813,1.356,3.836,3.885.018,1.963.028,3.927-.005,5.89-.013.805.279,1.138,1.1,1.121,1.629-.034,3.261-.049,4.889.007.95.033,1.33-.271,1.3-1.265-.063-1.85-.021-3.7-.017-5.556.006-2.807,1.241-4.058,4.071-4.089q2.889-.032,5.779,0c.747.009,1.074-.262,1.059-1.039q-.049-2.611,0-5.223c.016-.775-.284-1.042-1.046-1.029-2,.034-4,.016-6,.009-2.617-.009-3.85-1.255-3.861-3.907-.009-1.963-.028-3.927.009-5.89.015-.8-.229-1.139-1.075-1.115q-2.554.072-5.111,0c-.829-.022-1.108.292-1.094,1.1q.053,3.111,0,6.223a3.32,3.32,0,0,1-3.626,3.584c-.963.011-1.926,0-2.889,0" transform="translate(-157.408 -142.963)" fill="#fff" stroke="#fff" stroke-width="1"/>
  </g>
</svg>
