<svg id="Group_92" data-name="Group 92" xmlns="http://www.w3.org/2000/svg" xmlns:xlink="http://www.w3.org/1999/xlink" width="291.226" height="236.239" viewBox="0 0 291.226 236.239">
  <defs>
    <clipPath id="clip-path">
      <rect id="Rectangle_86" data-name="Rectangle 86" width="291.226" height="236.239" fill="#dcefe6"/>
    </clipPath>
  </defs>
  <path id="Path_354" data-name="Path 354" d="M298.711,247.312l1.091-.6.037.523.679.518.372-1.683-.037-.531,1.049-1.208,1.128-.08.04.564,1.053-.075,1.127-.079,1.055-.641-.04-.564-.571-.526-.037-.522.531-.037-.043-.606-.531.037-1.161.082-1.085.686-.419.554-.524.6-2.181.154-.04-.563-.675-.477-1.091.6-.526-.487-.043-.606-.563.039-.531.038-.035-.489-.035-.49-.606-.556-.677-.486-.409,1.161-.487.527-.035-.489-.573-.559-.639.045-.037-.531-.489.035.079,1.127.035.489-.529.529-1.043.683.037.522-1.169.082-.525.6.039.564-1.013.639.04.564,1.013-.639.565-.04.563-.039.646.521,1.124.454.525-.57.037.531.567,1.051-.45.6.567,1.06-.447.632.037.531,1.659-.117.562.526,1.651-.683.414-1.7.523-.6Z" transform="translate(-92.974 -77.43)" fill="#dcefe6"/>
  <path id="Path_355" data-name="Path 355" d="M287.083,28.049l1.124.454.042.6,1.209.482,1.087.414.53-.529-.6-.525.485-1.168-.04-.564-.039-.563-.636-.972-1.053.074-1.207-.448-.6.042.037.531L287,26.922Z" transform="translate(-92.44 -8.149)" fill="#dcefe6"/>
  <path id="Path_356" data-name="Path 356" d="M112.744,175.025l.068-.047.17.108.006.1ZM224.912,0l-.637.047L222.051.2l-2.06,1.355-1.091.569-1.621.115-1.159.082.61.6.1,1.5-.522.651.6.481.638.521.569,1.133,1.133-.082.562.495-1.043,1.167-.421,1.694.536-.033.637.556-1.05,1.131-1.085.075-1.207-.976.523-.638-.645-1.085-.569-.495-.481.57-.488,1.166.048.6.074,1.058.035.562-.448,1.166-1.647.116-1.173.081.041.563-.414,2.149.041.562-.936,1.2.041.528.041.6-.692-.549-.521-.495-.969,1.769-.082-1.165-.081-1.092.455-.6-.529-.535-.074-.976-.563.04-.6.041-.529-.563-.488,1.62.6-.04.081,1.125-.6.041-.04-.563-.529.041.034.563.041.563,1.248,1.613-1.126.081-.563-.528-.041-.6-.563.637-.488,1.091-.522.041-.936,2.373-.556.569L201.09,25l.569.529.638.522-1.051,1.206-.556.57-.46.033,1.138,1.051.068,1.017.081,1.092.041.6-.563.536-.976.678-1.654.678-.447.6-1.85-1-1.091-.536-1.1.082-1.159-.414-.041-.6-.081-1.091-.028-.413,1.647-.719-.033-.529,1.091-.081.447-.631-1.091-.454-.569-.529-.6-.521-1.125.081-.6-1.091-.535.035-1.647.685-1.085.074.034.57-1.166.081,1.207.481.563.528.6.488.041.6.081,1.126.59.38.041.529.488-.034-.407,1.193.034.488.122,1.735,1.132-.081,1.051-.075.522.488.041.563.685.563.033.488.6.563-.521.562-.563,1.146,1.281,1.037.57.529-1.051.643-.678-.521-.976.637-1.166.082.556-1.173.536-.04-1.253-1.044-.448.6-1.125.075-1.172-.481.04.563-.481,1.165-.447,1.7-1.017.562-.569.569.081,1.133L185.9,45.99l-.522.651-.447.63.523.455,1.776,1.009,1.091.488.033.529,1.213,1.05.719,1.614.041.521-.645-.481-.562.041-.529.562-.488-.488-1.173.6-1.606-.407-1.173-.528-1.125.081-.041-.521-.528.034-1.7.121-1.653-.414.074,1.051-.556.643.041.523,1.207.528.523.488,1.728.441-.041-.563.57-.04,1.2.942.685,2.177-1.085.685-.494.556-1.166-.441-1.126.081-.488.035L178.943,57.6l-.569-.529-.563-.529-.488,1.173-.6-.529-1.654-.447-.075-1.017-.563.033-.041-.563-.033-.521-.61-.563-.035-.521-.685-1.085-.569-.494-.041-.563.495-.6-.081-1.091-.57-.563-.04-.529-.556-.454-.529-.563-1.735.122-.563.041-.488.034-.685-.556.637-.047-.034-.523-.637.041-.495.041-.033-.57-1.133.082-.528-.529-.746-1.044.6-1.065-.671.048-.529-.529.488-.033.671-.048.488-.033,1.207,1.009.523.455.643-.047L168.076,44l1.085.414,1.131.454.638-.048.488-.033.563.528,1.138-.081,1.125-.081,1.661.454.523-.6.521-.61.563.529.041.562,1.126-.074,1.057-.075,1.125-.082,1.051-1.206.528-.041,1.091-.61.488-.523-.041-.521.57-.61.488-.035-.082-1.125.563-.041.366-2.264-.6-1.085-.074-1.1-.563.041-.081-1.085-.447.555-.645-.481-.081-1.125-1.051.075-.6.041-.047-.6-1.688-.373-1.1.569-.521-.454-.6-.556-1.166-.488.041.563-.569-.523-1.192-.867-1.614.115-1.817-1.011-1.58-.481-1.159.679-3.844.271-.488.034-.711-.549-1.058.678-.04-.6-.523-.5-.528.576-.671-1.057-.536.04L159.65,28.5l-.455.026-.481,1.173-.569.041-.644-1.092-.522.041.122,1.687-1.132.082-.6-.523-.9.061.291-1.721-.1.081-1.133.082-.563.04.529-.563-.082-1.125-.6-.495.563-.041.528-.6-.081-1.125-.562.04-.041-.562-1.125.074-1.058.645-.081-1.126-1.125.075-.6-.522-1.051,1.207.041.563-.481.6-.643-1.085-.041-.569.529-.6-.041-.529-.081-1.125-.563.04-1.058,1.207.041.529-1.092.643.122,1.695.041.563-.6-.528-.041-.563-.562-.529-.041-.563-.041-.563-.034-.528-.569.04.528-.6-.6-.529-1.613,1.247-.6-.521-.488.6.035.528,1.131.488-1.613.678-.6-.521-.529.6.081,1.125-.563.041.6.529L137.759,27.9l-.644-1.058-.481.6.041.529.041.562-.536.61-.6-.528-.563.04.041.563-.6-.521-.563.041-.488.6.041.529-.563.034-.522.65.075,1.085.6.488.082,1.159-.61-.556-.6-.523-.562.041-.448,1.2-.678-1.119-.495.6.081,1.133.61,1.084.041.523-.569-.482-.645-1.085.082,1.126-.488,1.125-.6-.521-.075-1.058-.528.57.122,1.654-.529.033-.6.047-.481.563.563.57-.481.6-.536.563.041.563.61.488-.529.637-1.695.122-.041-.6-.522.637.034.529.082,1.131.04.523-.447,1.159-.075-1.126-.074-1.051-.048-.6-.522.638-.563.033-.563.041-.529.577.57-.041.6.481.041.6-.6-.563-.521.645-.6-.569-.57.04.082,1.133-.488.643,1.62-.725.6.563.041.521-1.133.082-.563.04-.488.6.035.563,1.1-.081.075,1.1-.563.041-.529.033-.522.6-.528.6-1.166-.481-.523.6.041.563.033.529-.521.041-.536.563.617.562-.536.6-1.125.081.6.523.6.529.535-.6.075,1.084-1.14.082-.562.04.04.563.6.488-.521.6-.57.04-.521.638-.523.569.6.555.035.495-.523.6-.563-.529-.034-.488-.528,1.091.04.57.6-.047.082,1.131-.57.6-.521.041.074,1.091-.522.6-.563.04.041.529.562-.041.041.6.04.57-.528.569-1.133-.455-.041-.563-.6-.556-.523.63-.522.6-.6.047-.536.035.081,1.1-.569.563-.407,1.159-.569.041-.562.04.04.61.075,1.051-.6-.488-.529.57-.521.637-.6-.562-.481.637-.57.57-.522.04.081,1.126-.6-.523-.563.041.6.522.041.563-.57.04-.6-.521-.488.6-.563.04-.6.041-.535.035.04.563.61,1.05-.528.041-.61.04-1.166-.481-.488.033-.523.6.6.529.041.569-.563.034-1.131.081-.516,1.172-.081-1.131-.529.04-.521.6-.563-.529-.61.047-.523.035.081,1.125.563.488.6-.04.041.563-.61.04-.481.6-1.166.082.035.528.65.556.034.529L89.248,80l.04.528.041.563.6,1.051,1.173-.081.041.6-.563.041L89.4,82.177l.041.61.041.523.6,1.057.651.523-.569.6-.563-.529-.523.6.041.569,1.125.481-.521.041-.563.041.041.563.6.521.556.495,1.173-.081,1.091-.61L91.573,88.76l-.529.563-.563.65,1.247,1.044-.563.041-.6.041-.488.556-.6-.481-.528.041-.523,1.091.041.6-.454,1.133.576.563,1.01-1.769,1.085-.081.035.535.081,1.159-.521.035.081,1.1-.529.562-.033-.521-.495.556.04.563.075,1.132.041.569,1.173,1.009,1.736.448-1.1,1.173,1.213.515.481-.63.081,1.126,1.689-.122,1.131-.082,1.085-.61.041.536,1.016-.61.563-.637L99,99.417l.569-.6,1.654-.684-.041-.523.488-.61,1.132-.081.041.569.6.488,1.091-.6-.081-1.138,1.011-1.2-.082-1.131-.6-.448,1.045-1.24.528-.569.523-.638.562-.041.081,1.126-.528.6-.563.04.075,1.091.569-.04,1.7,1.009-.936,1.2L107.8,96l.081,1.132.041.521.074,1.126.041.569.04.529.041.6.041.529.562-.041.081,1.133.448-.6.643.522-.529,1.173.041.521.041.563.033.528.082,1.166.04.529.644.522-.562.6.074,1.1.644.523.536-.041.115,1.695,1.2.441.04.563.041.563-.569.04.04.563-.556.576.082,1.126.63.481.041.6.6.481.04.563.082,1.133-.529.6.6.488.528-.569.6.488,1.627-.644.6.488.521-.035.61-.047-.04-.529-.082-1.125-.081-1.132.488-.556,1.125-.081.522-.644-.562.041.528-.563,1.085-.643,1.14.488.033.521.563-.04,1.131-.082.563-.04-.075-1.085-.041-.563.976-1.736-.081-1.084.529-.6.521-.645-.04-.529-.563.041.481-1.172.529-.563-.6-.523-.041-.562-.034-.536.522-.637-.04-.563.481-1.131L126.18,102l-.041-.61-.644-1.044,1.092-.643-1.729-.414.522-.63,1.166.515.563-.041,1.01-1.206-.041-.563-.04-.563.563-.041.562-.04.6.521.495-1.166.488-.556,1.085-.658-1.166-.481-.041-.563.563-.61.523-.033,1.016-1.695-.61-.563-.075-1.091-1.051.61-.034-.536-.04-.6-.645-.488-.563-.481-.041-.563-.033-.569-1.1.643-.6-.521-.61-.563-.074-1.091-.6-.488-.041-.563-.563-.528.522-.035.529-.6-.081-1.131-.041-.563-.075-1.091.563-.041-.6-.482.523-.651-.075-1.084.521-.6-.081-1.126-1.689.115-.081-1.091.528-.6,1.167.481.521-.6.577-.04.481-.556.6-.047,1.051-.638-.6-.521,1.044-1.22-.6-.523,1.132-.081.481-1.125.577.528,1.085-.643-.57-.529.488-.6.57-.04,1.084-.644-.081-1.133-.034-.528-.04-.523.488-1.166.521-.041.481-1.166.529-.6-.6-.488-.041-.563-.081-1.131-.081-1.126.528-.569-.04-.569-.041-.563.529-.6,1.131-.081-.081-1.125-.074-1.085-.035-.529.523-.04.6.488,1.051-1.207.6.563.563-.041.569-.04.563.495.488-.57L143.44,53.2l-.6-.495-.6-1.051-.04-.562-.082-1.126-.081-1.125.488-.569-.562-.529-.041-.563-.6-.523-.04-.569-.035-.529-.041-.562h.034l.034.562.041.529.041.562.6.529.04.563.57.522-.495.569.081,1.131.081,1.126.041.562.6,1.051.6.488.081,1.166.563-.04.6.488,1.126-.082.04.6.563.455.041.563.035.562.081,1.133.041.563.6.488.04.562-.569.041-.522.04-.563.041.041.563L144.674,62.1l.041.529-.488,1.132-.522.643L142.7,65.6l.033.521.041.536-1.091.678-.521.57-.523.6.035.563.081,1.125-1.05.6-.61-.482-.563.035.082,1.091-1.051,1.213.081,1.126.034.521.6.529.082,1.092-.523.637.035.529,1.172.488.034.523.082,1.166.115,1.62.081,1.126-1.091.643.081,1.133.041.562,1.241,1.539,1.662-.122.6.57,1.131-.082.563-.04.644,1.084.075,1.058.6.556.569.495,1.695-.122.563-.041.481-1.166.488-.569.638,1.091.521-.638.529-.569,1.1-.6,1.613-.684.563-.041.563-.033-.041-.57-.041-.6.529-.563.645,1.091.488-.643,1.084-.6.488-1.133.6.488,1.159-.081.488-.035.529-.569.556-1.342.089,1.22,1.084-.081,1.085-.638.462-.033.033.563-.373,1.125.041.563,1.05-.075.576.6,1.193.441.454-.556,1.1-.081.671-.048.522.488.563-.033.082,1.091-.563.041-1.166.081-1.091.075-1.647.122.041.563-.536.033-.04-.563-.557.61.041.523.035.563.04.562-.454.035-.644-1.091-.521.6.04.563.041.569.075,1.091-.488.035-2.257.162-.528.035-.6-.523-.523.035-1.091.644-.04-.563-1.126.082-.488.033-.528.041-.6.041-.529.6-.529.035-1.084.081-.61.041-.523.034-.6.047.035.523.047.6-.488.033-.57.041-.563.041-.522.6.041.521.035.563.04.563,1.132-.075.027.455.041.563-.562.041.04.521.122,1.736,1.2.969.488-.034-.033-.488.563-.61.521-.035.651.523L152,99.458l.075,1.084.026.414-.583.19.041.563.041.569.033.529.075,1.084.04.563.082,1.131-.523.6-.495.569-.562.041-1.207-1.018-.569-.488-.082-1.166-1.2-1.009-.529.04-.562-.495-.041-.562-1.085.074-1.091.645-.569.576-.522.035-.413,1.125.087,1.166-.488,1.126-.536,1.064-.325,3.39.115,1.647.041.563.04.536.678,1.647.122,1.695,1.166-.082.041.488.529.529.521-.041.644.523.278-.014-.19.237-1.091.075-.671.047-.149.014-.19-.441-.494-.617-.821.218-.563.041.035.521.569-.041-.488,1.139-.522.6-1.091.074-.035-.562-.041-.529-.04-.569-1.614,1.22.041.562-.921.854,1,.272.035.521-.523.645-.528.04.04.563.035.521.04.563-1.687.122-.041-.563-.569.041-1.614.678-.637-.523-.041-.521-.033-.563-.048-.61-.562-.481-.041-.563-1.695.115-.521.6-.563.041-1.125-.488-.529.61-.563.034.035.521-.563.041-.528.65-.6-.569-.481.645-.522.6-.528.563-.563.04-.529.6-.562.041.04.562-.528.035-1.126.081-.569.041-1.085.643-.481,1.18-.488.556.563.488.041.6-.155-.068-.828.061-.658-.746-.007.481-.087-1.268-1.689.122-.081-1.138-.082-1.126-1.091.075-.6.047-.035-.563-.569-.488-.041-.562-.6.041-.488.6-.6.041-.528.041-1.091.6-1.085.643-.562-.521.04.563-.563.04-1.131.075-.563.04-1.173-.481.6-.04-.041-.523.536-.04-.04-.563-.047-.6-.529.035-.6.041-.481.643-.643-1.085-.529.035-.6.041-.04-.563-.529.041-.6.041-.04-.563.556-.61-.638-.488-.6-.522-.169-.136.04-.047-.007-.007.285-.312.562-.041-.6-.521-.637-.522.562-.563.563-.041-.6-.529-.033-.528.562-.041-.047-.6-.033-.528.569-.041.488-.6.6-.041-.041-.563,1.044-.643.488-1.133-.6-.521.522-.6.563-.041.041.562.569-.04.488-.6-.041-.563-.04-.563-.57-.481-.563.035-.563.041-.041-.563-.563.041-.041-.563.522-.6.569-.041-.6-.495-.04-.6-.563.041-.529.041.048.6-1.173.082-.522.033-.536.577.617.521.035.563-.61-.522-.523.6-.04-.563-.041-.563-.6.041-.447.6.04.562-.569.041-.643-.523-.523.041-.041-.569-.563.04.041.57-.523.6.041.563.075,1.084.041.563.04.563.041.569.035.529.04.562-.521.6.6.522.562-.041.041.569.6.488.047.6.035.529.081,1.091.035.488-.15.007L97.1,122l.034.563.563.5.041.563-1.091.643-.522.035.041.562.523-.033.04.521.041.6,1.166.488L97.45,127l.563.529-1.132.081-1.085.075.041.563.081,1.131.041.569-.529.563.035.521-.638-1-.04-.577-.041-.563-.562.041.04.563-.528.041-.041-.563.488-.6-1.172-.481-1.085.075-1.132.081-.563.035.041.569-.522.6.041.562.563-.04.041.569.6.488-.068.074-.57-.481-.556.563-.536.041-.155-2.223-1.126.081-.481.637-1.091.61-.035-.528-.041-.6-.563.643-.521.041-.57.041-1.1.61-.521.6.04.521.034.563.041.563.04.569.082,1.125-1.011,1.173-.562.04-.563.035-.082-1.091.523-.637-.563.04.528-.569.523-.6-.041-.563-.6-.529-1.091.081-.521,1.167.081,1.1-.488.63.035.536-.6.04.041.563-.488.6-1.133.075.081,1.131.563-.04.04.521-1.051.638-.074-1.085-.6.047.034.521.041.563.075,1.091.61-.04.529.528-.461.035-.522.563.041.562-1.133.082-.562.033-.523.041-.04-.563-.6-.481-.57.04-.04-.61-.563.041-.522.644-.61-.563.048.6-1.051.6.041.563.041.6.026.414-.04-.035L70.4,142.3l-.041-.563-.033-.563-1.133.082-1.125.081-.563.034-.522.04-.529.6.041.563.041.523-.5.6.041.563.081,1.139.041.563-.6.041-.563.04-.529.563-.569.041-1.051.638-1.091.61-1.125.081-1.091.081.04.6.563-.041,1.131.448.6.528-.562.041.04.6-1.138-.523-1.126.082-1.125.081-.041-.569-1.131.081-1.119-.455-1.173-.515.041.6-1.18-.516.536-.569-.61-.529-.033-.521.528-.6-.569.041-.522.04-.6-.536-.57.041.041.569-.562.61.074,1.085.041.529.685,1.085-.57.61.047.6.035.488.643.563.041.521-1.132.082-.637-.481-.522.04-.535.035.488-.645-1.091.082-1.126.075-.6-.447.034.488-1.085.081-.033-.488-.082-1.166-.6.047-.522.033-.041-.529-1.166-.521-.521.637.033.536-1.091.075-.04-.528L40.641,150l-.61.041-.563-.563-.562.645-.488.034-.563.04-.563.041.035.529.562-.041.563-.041.495-.033.041.563.041.6-.488.033.033.488-.563.041-.569.041-.516.643.563-.033.6.481.645,1.085-.041-.562,1.14.488-.041-.563.523-.041.04.563,1.207,1.018.6-.041.041.563.521-.041.041.562.034.569,1.139-.081,1.126-.081-.563.61.6-.047.563.488-.441,1.172.523-.04.643.521.041.563.488-.033.035.521L45.942,161.9l.035.563.685,1.058.488-.041.081,1.132.638.521.04.523,1.166.481.522-.6.081,1.125-.528.61.569-.041-.529.6.082,1.126.04.528-.528.6.04.57.563-.041.041.562.041.529.6.521.04.57.082,1.125.033.523-.6-.481-.04-.6-.035-.523-.61-.528-.033-.563-.6-.488-.041-.563-.556.6.116,1.661.04.523-.447.637.075,1.085-.6.041,1.132.488-.447.569-1.133.075.041.6.04.529-.563.6.034.562-.522.041.082,1.085-.57.04-.528.6.04.563-1.051,1.22-.976,1.126-.108.007-.643-.529-1.058.075-1.166-.481-.637-.522-.529.034-.6.04-1.091.082-.61-.529-.637-1.044-1.1.081-.6-.529-.521.041-1.126.075-.6.047-.563-.494-.6.041-.521.04-.577-.563-.637-.521-.529.04-1.166-.454-.6.04-1.139-.515-.034-.488-1.125.074-.61-.562-.528.034-1.085.081-.644-.481-.6-.523-1.045.638-.685-1.085-.563-.521-.041-.57-.04-.528-1.085.61-.569.04-.6-.488.033.529-.528.033-1.126.082.6.528-.529.6-.522.61-.041-.569-.6-.523-1.125.082-.569-.529-.488,1.165-.6-.521L9.308,176.74l.6.529.034.522.529-.563.033.523-.521.643,1.131-.081.035.488-.523.638.041.528-.529.61.563-.04.047.6-.528.57-.6-.488-.523.569.075,1.085.075-.007.033.488.041.61.04.521-.481.6.04.562L9,186.78l-.522.562-.494.6.081,1.125-.563.57-.488.6.081,1.131-.521.6-.488,1.166-.529.529-.522.637.041.529-.488.6-.521,1.166-.523.041-1.139.081-.521.562.033.563.041.563.041.569-.481.6-.523.6.035.521.04.563,1.085-.075.6.523.536-.035.075,1.126.041.563-.488.6-.529.529.041.6-.488.563.569.569-.447,1.118.04.563-.563.04-.569.577.041.6-.441,1.133-.569.6.041.562.6-.041.521-.033.569-.61.6.529.034.528.529-.04.563-.041.569.529,1.166.488.645.521.481-.6.04.563.563-.04,1.559-.645.556-.033.6.563.6.481.563.528.041.563,1.166.454.6.556.034.529-.522.6.563-.041.569-.041-.488,1.126.041.61-1.125.074.6.482.082,1.139.6.528.562-.04.6.481.643,1.084.488-.6-.04-.563,1.091-.6,1.131-.081.523-.6.562-.04,1.132.488.57-.041.481-1.18,1.084-.075,1.167.495.61.523,1.166-.081.6,1.044,1.091-.075,1.688-.122.569-.041,1.167.488.488-.6,1.131-.081.638.521.528-.033.041.563.522-.035.563-.61-.082-1.125,1.091-.6-.04-.563,1.131-.082.481-.61,1.125-.081.529-.033,1.173.495.563-.617,1.044-.644-.075-1.125.5-.563.6-.04.488-.6-.04-.563,1.091-.61.521-.034L45,213.368l1.051-1.207-.563-.529-.041-.562-.644-.482-.04-.6-.035-.521-.081-1.1-.075-1.126.563-.6.481-.6,1.091-.643,1.009-1.173.569-.041.563-.6,1.05-1.207.482-.563,1.085-.684-.035-.523.563-.04-.04-.529.521-.637.569-.041,1.051-.075,1.166-.082,1.091-.075.6-.047.521-.033.563-.041,1.058-.643.6-.041.488-.569,1.125-.075.563-.04.523-.6.569-.041.523-.6.521-.6-.033-.521.488-.6-.041-.563-.081-1.139-.1-.116.115-.108-.27-.162-.176-.3-.129-.291.521-.6-.6-.521.481-1.173-.033-.528.521-.6.563-.041.529-.6.563-.04.523-.034.569-.041.529-.6.521-.6.6-.041.569.521.6.529.522-.041,1.132-.081.075,1.133.528-.6.563-.041.521-.6.563-.04.041.563.041.563.528-.035.57-.04.033.528.041.563.522-.6.6.528.6.523.041.562.6.523.528-.035.57-.04.6-.041.528-.041.6-.04.488-.6-.034-.563-.04-.563.562-.04.523-.041.563-.035-.041-.569.6-.041.529-.033.04.563.936-1.051.007-.007.481-.251.515-.644.569-.041.563-.04,1.091-.6.521-.6-.041-.563.481-.6.529-.6,1.125-.081.57-.041,1.207,1.05.488-.6,1.769,1.011-.041-.563.522-.6.563-.041.569-.041-.529.6.041.563.6.529-.529.563,1.173,1.018.759,2.244.685,2.142.6.536,1.329,2.7.562-.041,1.207,1.044.61,1.091.63.448.577.569,1.762,1.532,3.593,3.112.6-.041.61,1.091,1.126-.081.643,1.057.523-.6,1.776,1.573.637.523.57.481.521-.034L117.5,207.6l.6-.041.562.529.081,1.092.041.6.035.495,1.173.521.562-.04.529-.035,1.2.481.57.482.04.61.6.481.638,1.62.725,1.647.115,1.662-.563.6-.521.04-.563.041.041.562.035.563.04.523.034.529-.488.637-.522.569.041.6.6.488.529-.033.563-.041.521-.035.57-.576.521-.035-.04-.6,1.131-.61-.041-.6-.075-1.051.523-.6.488-.6.521-.6.57-.041.521-.033.6-.047-.041-.563-.034-.529-.041-.563-.081-1.132-.041-.563-.04-.563-.645-.481-1.044.6-.63-.9-.3-1.451.129-.921.562-.035-.041-.61.529-.528-.562.04.521-.637.481-.569.61-.041.523-.035.033.529,1.173.516.563-.041.562-.041.563-.033.57-.041.033.488.041.6.569.529.035.521.643.563.488-.033.6-.047.523-.645-.075-1.084-.081-1.091-.041-.6-1.206-.447-.57-1.1-.637-.523-1.132-.481-1.125.075-.6-.481-.562-.529-1.769-.441-.563-.523-.6-.529-.57.041-1.091.075-.6-.488-1.167-.481-.6.041.563-.6.521-.04.57-.6-.082-1.133-1.769-.407-.521.041-1.661.116-1.126.081-1.125-.488-.685-1.044-.563-.569-1.213-1.051-.678-1.011-1.131-1.05-.082-1.126.495-.6-.61-1.051-.678-1.091-.04-.563-.57-.528-.075-1.051-.6.041-1.131-.523-1.166-.481-.563.04-1.166-.454-.04-.6-.563-.447-.047-.61-.638-1.044.523-.6-.041-.563-.041-.569.495-.562.557-.61-.041-.563-.6.04-.569-.521-.035-.523-.569.035.522-.645.536-.033-.081-1.1,1.132-.075.563-.04.562-.041.563-.041.523-.6.521-.041-.033-.523.6-.04.535-.035.034.523.637.521-.075-1.091.529-.033.115-.157-.129-.033-.021-.251.041.007.5-.638.035.6.047.6.034.6-.495.643-.569.041-.542.59.617.556.04.6.075,1.187.61.521.047.59.57.556.494-1.233.543-.6.488-1.233-.041-.6.577-.04.61.549.61.556.576.556.651,1.118-.5,1.187.041.637.081,1.146,1.146-.082.041.638.576-.041.577.481.658.584-1.736.122.617.521.577.556.7,1.146.529-.041,1.22,1.065.04.6,1.186.508,1.105-.684.576-.035,1.193,1.105,1.22,1.065.651,1.146,1.1-.082.65,1.112,1.186.549.576-.041.658,1.064.529-.033.616.6,1.146-.089.576-.041.645.5.047.643.536.516.6-.047.075,1.152,1.119-.075.04.6.57-.047,1.253-.034-.033-.495.169.155.041.529.041.569-.563.035.04.569.035.563.04.528.041.563.041.563.074,1.131-.522.563.041.563.035.563.61.521-.529.6.041.536.562-.041.041.6-.563.041.075,1.091,1.131-.082.569.529,1.125-.081.041.521.643,1.091-.075.007.6,1.058.6.521,1.1-.074.033.562.081,1.126.644.521.488-.6.6-.04.522-.041.6-.041.041.563.041.535-1.133.075-.6.047-.481.6.563.529.04.563.041.562.6-.04,1.165.441.482-.556.562-.041.536-.035.033.523,1.091-.6.563-.041.6-.04,1.1-.082.556.488.644.488-.034-.535,1.085-.075.569.5.6.556,1.166.454-.481.63-.6.047-.529.57-.569-.5-.041-.6-.6-.495-1.085.61-.04-.529-.523.041-.6.04-.495.035-.6.04-.521.57-.57.04-.556.041-.535.041-.563.04-.481.631.041.528.6,1.091.569-.04.563.488.61.563.034.536.081,1.125-.521.6.6.481.04.562.041.569.644,1.085.563-.04.6-.041.454-.6-.529-.529-.04-.569.447-.6.644.523.082,1.125.04.57.563.488.6-.041.6,1.091.563-.041-.082-1.125-.04-.529-.035-.569.488-.6.081,1.125.563-.04.074,1.091.61-.041,2.251-.157-.041-.563-1.166-.454-.034-.563-.65-.522-.075-1.125-.523.033-.684-1.043-.6-.523-.074-1.1.562-.04.644.488.041.569.556.523.61-.041,1.085-.645,1.051-.637-.081-1.14-1.043.685-.61.04-.563-.569-.035-.523.481-.6,1.051-1.173.563-.04.638,1.058,1.172.481-.081-1.126-.082-1.125-.081-1.133-.6.047-1.131-.454-.638-1.051-.521.041-1.166-.488-1.173-.481-1.166.082-.569-.522.495-.569.523-.6-.041-.57-.562.041-.61-1.085.488-.6.562-.04,1.132-.082.644.523.041.562.04.563.522-.033.522-1.173-.6.047-1.769-1.546-.685-1.085-1.131-.447-.6-.523-.074-1.091-.041-.6-.041-.536-.563-.523.481-.6,1.058-.644.563-.041.081,1.133.644.521.6,1.091.678,1.051,1.173.481,1.118.448-.034-.523-1.125-.488-.651-.562-.033-.488-.041-.6.645.556.562.448.6.569,1.728.44-.033-.562-.6.041-.6-1.058-.61-.556.562-.04.536-.034.074,1.085,1.133-.082,1.091-.569.522-.637-.569.04-1.159-.447-1.173-.488-.569-.523-.6-.528-.04-.563.563-.041,1.66-.115.563-.041-.033-.521-.041-.563.523-.6.6.521.563.529,1.172-.081.522-.6-.6-.529.563-.041,1.05-.068,1.173.481,1.688-.122.6.523.528-.035-.034.035.6.528,1.125-.081.563-.041.5-.6.04.57.035.563-.529.034-1.044,1.206.6.495.528-.576,1.613-.712.529-.569,1.091-.645-.041-.563.482-.562,1.1-.685.521-.563.523-.644,1.091-.569.521-.035,1.173-.081,1.085-.082.563-.04.529-.6-.081-1.126-.563.041-1.173-.481-.521.035-1.248-1.044-1.084.075-.041-.529-.041-.562-.6-.488-.19.013-.04-.528-.075-1.126-.569.041-.6-.481-.04-.569-1.133.081-.488.6-.081-1.133-.041-.562.495-.563.563-.041-.041-.6.529-.576-.6-.523-.082-1.084.57-.041-.082-1.126-.081-1.1,1.132-.081,1.125-.074.481-.6-.468-.963.054-.216-.041-.529.448-1.125-.57-.57-.075-1.085-.041-.6.488-.563.522-.6-.562.041-.523.041-.04-.57.441-1.131-.035-.563.523-.6.643.521.082,1.126.521-.035.523-.6-.041-.563.563-.041.488-1.166-.155-2.223-.353.9-.82-.969-.157-.054-.034-.536-.04-.562-.6-.488-.041-.563.523-.6.569-.041.041.563.521-.6,1.051-.075.521-.6.563-.04.529-.041-.081-1.085-.563-.569-.563.041-1.131-.407-.035-.495.529-.035.521-.637.61.556.556.454.529-.04-.115-1.614.523-1.172.562-.041.529.529,1.084-.645,1.051-1.173.535-.033.034.488.6-.041-.074-1.058-.041-.563-.074-1.084.6,1.051.562.521.041.57.685,1.051-1.133.074.041.57.04.563.041.528,1.166.516,1.091.42,1.654-1.213.976-.6.563-.035.563-.61.643,1.655.523-.638.488-1.131-.041-.563.488-.033.678.515.488-.6.523-.033,1.695-.122.04.563.529-.035-.041-.563.563-.04.374-1.695,1.091-.645.082,1.133.637-.047,1.5-1.8,1.091-.6.413-.6.557-.61.528-.035,1.2.481.495-.6-.569-.521,1.009-.61.488-1.126.57-.6.521-.04.488-.645-.041-.521.637.481.488-.033.041-.529-.007-.074.488-.569.569-.035.454-.481.075,1.051.6-.04,1.065-1.14.488-.521,1.05-.075.068.936.041.6-1.018.6-1.125.692-.448.6.523.488.691.523-1.1.61-1.125-.454-.563.04-.569.57-.488.033.041.563.528.536,1.662-.122.63.523.041.521,1.694.448-.522.033-.6.61-.529-.529.075,1.133.528.454-.447.638-.637-.563-.529-.455-.529.529.081,1.172-.563.6.645.488.074,1.085-1.091.081-.488,1.654.041.57,1.125.481,1.213.481.488-.033,1.085-.075.685.515.041.536,1.009-.075.529-.57.6.488,1.131-.074.041.562,1.166.441,1.091-.075.563.523.57.528,1.125-.081,1.776,2.109,1.763.4.529-.033.569-.041.563.569.529-.04.556-.645.529-.041.61.57,1.166-.089.074,1.091.523-.04,1.1-.075.528.529.041.569.712.969.563.523,1.2,1.016.529.529.041.6-.488.033-.482,1.139.034.523.041.563.563-.041-.04-.562.488-.035.643-.047,2.149-.15.557-.562.528-.041.481-.6,1.14.488.6-.04.033.521.041.563.576-.041,1.085-.075,1.7.413.04.6.529.495-.414,1.119.041.569.569,1.091.6.562.6-.041.536-.04.562-.035.523-.04.528-.034.523-.645.643.563.034.521,1.092-.081.569-.041,1.166.488.035.455,1.687.969,1.173.528.562.488,1.654-.122,1.173-.081.488-.035,1.091-.6,1.085-.075.027-.087.014.081-.007-.094.38-1.065-.041-.562-.034-.455,1.125-.643,1.01-1.207-.04-.562.481-1.173.454-1.119,1.166-.081.407-1.166.6-.041,1.131,1.051.678.523.082,1.085-.645.047.685.515.61,1.132.034.521-1.125.645-.529.04,1.2.373,1.051.5.562-.61.563-.041,2.224.414-.6-.529.536-.495L279.945,183l-.569-1.092.454-.6-.04-.562-.041-.563.563-.041.082,1.133.481-1.173-.075-1.084-.04-.529-.6-.556-.645-1.058.57-.041-.041-.523-.074-1.091-.048-.6-.6-.529-.041-.563.529-.57.481-1.206.536-.448,1.1-.081-.041-.569-.529-.529-1.131.644-1.126.081-1.058.074-.637-1.043-1.091.074-.57-.528-.718-1.078-.57-.529-.556-.495-.651-.555-.488.041-1.132-.427.007-.028h-.074l-.529.041-1.091-.488-1.2-.481-.645-.482-1.654-.982-1.165-.488L264.1,162.43l-.157-2.177-.6-.454-.65-.549-.075-1.1-.563-1.133-.576.041-.035-.488-1.166-.488-1.7-1.011.041.563-.482.6-.644-.521-1.125-.488.407-2.257-.035-.529.481-.6-.081-1.085.563-.643-.638-.481-.108-1.546.521-1.207-.081-1.091.521-.035.57.488,1.009-1.206.563-.61.488-.523.5-1.172.515.536.529-1.173-.725-1.613-1.051.074-.523.035-1.166-.441.441-1.207.569-.57.522-.033-.562-.529-1.769-1-2.292-1.431-1.138-1.057-.563.651-1.159.081.041.522-.495.6-1.125-.488-.569-.488-.075-1.091-.047-.638-1.192-.44-1.058.074-.521.563-.115-1.62-.082-1.126,1.01-1.769-1.695-.338-.563-.563.481-.644-.115-1.613-.562-.563-.631-.9.481-1.207.522-.035-.122-1.695-.522.041.936-1.735,1.172.528.563,1.018,1.2.481.576.562,1-1.24-.041-.563-.6-1.058-.678-1.613-1.166-.488,1.092-.6,1.085-.075-.041-.57-.041-.528-.162-2.285,1.1-.081.556-.569.535-1.058.976-1.2.448-1.091-.048-.638-.034-.528.6-.047.556.495.576.6,1.044-.719.529-1.1.447-1.159,1.011-.637.6-.047,1.254,1.077-.041-.6.414-1.126.563-.04,1.085-.082.6.495,1.133.488,1.647-.115.61.557,1.091-.082.6-.04.529.495-.081-1.126-.529-.528-.034-.536.488-.035,2.861.333,1.695.447.481-1.133-.034-.563-.04-.562.488-.041-.041-.521-.529-.529,1.058-.074,1.125-.075-.643-1.1.563-.041.562-.637,1.133.515,1.091-.075-.081-1.126,1.018-.075-.529-1.057.414-.516.529-.569,1.159-.651.576.523.556.989,1.133-.081,2.182-.645.522-.04.61-.041-.041-.529-.075-1.091.969-.671,1.7-.691,1.531-1.729.447-.6-.075-1.126-.569-1.051-1.207-1.017-.522.041-.528.529L287.2,89.9l-1.613.115-1.058.074-.563.041-1.735-.488-.035-.488-.643-1.119-.488.035-.536.034L279.41,89.35l-.529.529-1.01.075-1.173-.976-1.207-1.661-.075-1.085-.033-.455-.645-.521-.6-.523-.041-.521-1.206-1.091-.157-2.184.447-1.688-.6-.521-1.091-.495-.122-1.689-.075-1.091-.528.57.04.563-.929,2.332-1.051,1.735-1.62.679-1.607.678-1.057.61-1.811-2.109-.115-1.647,1.126-.61,1.545-.637.6.481.63.488.455-.563-.082-1.159-.04-.569.528-1.133.448-1.051-.6-1.1-1.126-.406-.04-.6-.6.04-.516.645-1.1.081-.488.035-.563.521-2.142,1.3-1.085.075-.678-1.573-1.22-1.7-.6-.481.529-.569.6-.041-.116-1.654-.725-1.647-1.288-1.573.529-1.173.521-.562.61-.041-.047-.61L257,62.132l-.04-.563-.115-1.647-.041-.6-1.173.081-.074-1.057L255,57.251l-.61-.523-.6-1.091-.6.041-.041-.529-.556-.488-.529.563-.643-1.614-1.288-2.175-.671-2.068-.645-1.085-1.769-1.011-.122-1.661-.6-.488-1.138-1.085-.068-1.023-.65-1.159-.57-.488-.637-.522-.712-2.109-.528-.488-1.166-.481-.041-.563-1.091-.488-.6-.528-.773-2.746-.6.047-.075-1.1-.644-1.044.041.523-.61-1.051-.082-1.166-.556-.455-.617-1.125-.664-.9-1.125.081-.041-.6-.041-.535,1.132-.075.549-.643-.156-2.217-.115-1.62-.075-1.125.529-.041.407-1.7-.163-2.257-1.24-2.624.454-1.131.969-1.207.488-1.166-.677-1.58-.122-1.647-.6-1.058-1.1-.563.454-1.131-.535.04L232.9,3.9l-.61.041-.441,1.126-.488.034-.61-1.051-.685-.563-.487.033-.6-.406-.074-1.051-.563.041-1.159.081-.455.556-.6.047-.488.035-.6-1.126-.678-.447.6-.61Z" transform="translate(0 0)" fill="#dcefe6"/>
  <path id="Path_357" data-name="Path 357" d="M210.757,145.6l.606-.043.564.569.037.523.568-.565-.043-.606,1.086-.077.531-.037-.035-.489.483-.6.6-.642-1.206-.448-1.537,1.241-.685-1.084-.484.567.042.6.04.565-1.094.569Z" transform="translate(-67.713 -46.116)" fill="#dcefe6"/>
  <path id="Path_358" data-name="Path 358" d="M213.377,140.312l.077,1.086.527-.562.491-.6-.033-.456-1.134-.487-.483.6-.605.043.033.456.6-.043Z" transform="translate(-68.352 -44.864)" fill="#dcefe6"/>
  <rect id="Rectangle_84" data-name="Rectangle 84" width="0.565" height="0.49" transform="translate(9.425 178.433) rotate(-4.04)" fill="#dcefe6"/>
  <path id="Path_359" data-name="Path 359" d="M89.974,308.216l-.6-.523-.04-.564-.6-.524-.524.6.04.565-1.128.08-.531.037-.563.04.04.563,1.093-.077.6-.042.611,1.09.564-.039.037.53.563-.039.527-.571-.04-.564.564-.04.524-.6-.564.04Z" transform="translate(-27.706 -98.753)" fill="#dcefe6"/>
  <path id="Path_360" data-name="Path 360" d="M98.909,306.524l-.571.041-.564.039-.6-.523-.564.039.04.564.6.525.564-.04.6.523.571-.04-.039-.563Z" transform="translate(-31.115 -98.584)" fill="#dcefe6"/>
  <path id="Path_361" data-name="Path 361" d="M77.218,312.4l-.522.037.039.564-1.128.08.04.563.04.564,1.088-.644.522-.037-.039-.563.565-.607Z" transform="translate(-24.352 -100.606)" fill="#dcefe6"/>
  <path id="Path_362" data-name="Path 362" d="M31.7,56.762l.565.559.645.521.559.494.564-.04.571-.04.043.6.037.531.04.564.037.522.563.527,1.207,1.056.606-.043.522-.037.042.6.035.489,1.134.487.637.522-.04-.564.524-.6.04.564.564-.039,1.013-.639.6-.043,1.167.484.484-.6.645.522L45.6,63.07l.04.565,1.046-.641.565-.607,1.169.484.489-.035.557-.606.6.524.039.565.525-.6.564-.04,1.055-.641L52.7,60.91l.647.555.522-.037,1.169-.083-.079-1.128.521-.645L56,59.535l-.04-.564-.037-.523.533-.6-.038-.531-.615-.556-.037-.531-.04-.564-1.086.077-.042-.6.529-.529.557.453-.035-.49-.562-.527-.039-.563-.04-.564,1.055-.642-.04-.563-.533.6-1.087.077-.039-.563-.038-.531.525-.6-.04-.564-1.167-.484.04.564-.566.607-.482.6-.605.043-.561-.526-.04-.564-1.056.641-1.088.643-.563.04.444-1.731-.6-.525.04.564-.518,1.17.04.563-.451.565-.643-.488-.08-1.127.567-.607-.077-1.1-.649-.553-.48.633-.647-.554.042.6-.485.567-.524.6-.573.04-.04-.564-.037-.531-.08-1.127-.559-.485-.53,1.1-.444,1.164-.6.043-.037-.531-.522.037-.605.043L39.731,51.2l-.04-.564-.564.04-.04-.565.527-.57-.042-.6-.037-.531-.08-1.128.563-.04.49-.035.525-1.17-.605.043-.037-.522.565-.607-.038-.53-.082-1.161-1.172-1.018-1.127.079.6.525.643,1.087-.563.039.04.565.037.53.04.565-.527.562-.6-.483-.077-1.095-.561.573L37.494,44.1l-.079-1.127.037.531-.531.037-.6-.491.12,1.691-1.168-.484.645.521.56.494-1.088.644-.523.037-.04-.565-.037-.53-.645-.521.04.564.037.53-.523.037-.037-.531-.534.571.04.565.571-.041L34.263,46l.642.479,1.128-.08.565.568.6.483.043.606.531-.037.6-.043.075,1.053-.6.043-1.131-.454-1.128.079.643.488.565.56.6.491-.523.6-.522.037-.646-.521-.56-.494-.6.043L33.4,49.383l-1.124-.454-1.089.611.042.6,1.127-.08,1.086-.077.609.49.039.564L34.617,51l.039.564.04.564-.483.6.077,1.095.483-.6.04.563-.483.6-.532.6-.564.04-.522.037-.6.043-.483.6-.646-.52-.442,1.164.557.453Z" transform="translate(-9.835 -13.608)" fill="#dcefe6"/>
  <path id="Path_363" data-name="Path 363" d="M42.964,177.877l.037.531.606-.043.485-.568.563-.039,1.128-.08,1.128-.08,1.053-.074.643.487,1.089-.61.483-.6-.039-.564.6-.043.482-.6-.037-.522.573-.041-.04-.564-.04-.564-.04-.564.525-.6-.038-.531-.043-.605.485-.559-.079-1.127-.038-.531.563-.64.485-.567-.027-.047.447-.507.483-.6.6-.043.522-.037-.077-1.095.566-.605.04.563.04.564.522-.037-.04-.564-.039-.563-.562-.527-.566.607-.563-.527.483-.6.606-.043-.037-.523-.043-.6-.683-1.044-.04-.563-.039-.565-.523.037-.6.043-.522.037-.038-.53-.572.04-.527.571-.563.039-.564.04-1.018.072.036-.045,1.137-.08.522-.037-.559-.485.523-.037.6-.043.482-.6-.559-.494-.647-.563.043.606-.523.037-.564.04-.573.041-1.169-.527-.481.643-1.127.079-.567.574-.45.6-1.654.642.6.524,1.17.526.489-.035-.453.557-1.127.08.039.563.04.563-1.124.613-.568-.494-1.125-.486-.04-.564-.643-.479-.565-.569-1.128.079-.491,1.169-.564.04.6.524.039.563.038.531-.525.6-.482.6-.6.043-.483.6.6,1.091.037.523.6-.043.077,1.095.485-.568,1.136-.08.523-.037.037.53-.481.635-.572.041-1.653.65L37.49,172.1l-1.127.08.642.479-.605.043.043.606-1.651.117-.531.038-.559.573.04.563.6-.042,1.127-.08.6.525-.565.04-.6.042-.531.037-.557.606-.491.6.568.485.559-.564.568.484-.491.6.04.564.531-.037.6-.043-1.087.645,1.691-.12.037.531.04.564,1.056-.641.521-.037.646.521,1.127-.079.482-.6.6.524,1.1-.077-.04-.564.6-.043Z" transform="translate(-10.735 -51.139)" fill="#dcefe6"/>
  <path id="Path_364" data-name="Path 364" d="M35.28,188.3l.531-.038,1.123-.612Z" transform="translate(-11.363 -60.438)" fill="#dcefe6"/>
  <path id="Path_365" data-name="Path 365" d="M136.484,288.982l-.08-1.128-.037-.531-.043-.6-.262-.506-.283-.247-.109.124-.5-.081-.545.305-.6.042-.257.136-.239.391-.582.266-.446.641-.355.4.151.481-.074.614.159.589.258.473.04.563.056.188-.357.367.382.573.449.46.039.563.377.507.38.047.571.527-.04-.564.557-.605-.038-.531.451-1.165-.04-.564-.04-.563.527-.562Z" transform="translate(-42.565 -92.105)" fill="#dcefe6"/>
  <path id="Path_366" data-name="Path 366" d="M134.416,303.255l.485-1.167-.043-.606-.564.039-.037-.529-.567-.486.531-.037-.574-.567-.633-.48-.04-.564-.491.6-.6.042.037.522-.531.037-.563.04-.481.642-.6.043-1.128.08-.526.563-.567-.485.037.523-.527.57.043.606.037.522.644,1.087.039.565.078,1.095.53-.038,1.127-.079-.524.6-.523.6.04.564.039.564-.494.56-.564.04.6.524-.485,1.167.6.524.04.564.037.531,1.134.487.564-.04.564-.04-.04-.563-.037-.531.565-.607,1.126.487.531-.037.635.489.494-.569-.04-.564-.08-1.127-.079-1.128.519-1.128-.04-.565-.039-.564-.04-.563-.04-.564-.037-.531.53-.038.525-.6-.037-.522Z" transform="translate(-40.914 -96.257)" fill="#dcefe6"/>
  <path id="Path_367" data-name="Path 367" d="M172.528,325.4l-1.047.641-1.128.079-.523.6-.646-.521-.522.037-.565.607-.49.035-.563.039-.564.04-1.089.644-1.127.08L163.1,327.2l-1.134-.487-.6-.525-1.128.08-1.087.644-.04-.564-.56-.493-.568.572-.523.037.08,1.128-.565.607.04.563.642.48,1.171.525.523-.037.641.479,1.69.447.6.524.652,1.1,1.127-.08.56.485,1.127-.079,1.165.451.042.6.644,1.087,1.091.456.567-.573,1.165.451-.079-1.127,1.089-.61-.08-1.129-.564.04.527-.562-.564.04-.043-.6-.038-.531.524-.6-.039-.563-.037-.522-.043-.605.527-.562.522-.037.485-1.168-.04-.563Z" transform="translate(-50.557 -104.806)" fill="#dcefe6"/>
  <path id="Path_368" data-name="Path 368" d="M70.056,180.848l.522-.037.568-.565-.645-.521-.522.037-.531.038.077,1.086Z" transform="translate(-22.368 -57.887)" fill="#dcefe6"/>
  <path id="Path_369" data-name="Path 369" d="M81.207,206.986l-1.128.079.6.525.563-.04.565-.04-.04-.564Z" transform="translate(-25.792 -66.654)" fill="#dcefe6"/>
  <path id="Path_370" data-name="Path 370" d="M91.3,132.912l-.04-.564-.037-.531-.04-.563-.557.605-.564.04.6.492Z" transform="translate(-29.008 -42.275)" fill="#dcefe6"/>
  <path id="Path_371" data-name="Path 371" d="M101.113,123.419l.6.524.037.523-.524.6,1.088-.644-.037-.523.523-.6-.039-.564-.04-.565-.04-.563-.077-1.095-.445,1.7.039.564-1.128.08Z" transform="translate(-32.554 -38.815)" fill="#dcefe6"/>
  <path id="Path_372" data-name="Path 372" d="M69.746,136.885l.035.489.529-1.137.526-.562.6.483.043.6.479-.642-.037-.522.53-.647.564-.039-.037-.523.483-.6-.037-.531-.485.567-.564.04-1.095.077.077,1.087-.6-.483-.04-.564-.523.6.037.523-.526,1.171Z" transform="translate(-22.45 -42.92)" fill="#dcefe6"/>
  <path id="Path_373" data-name="Path 373" d="M73.122,172.421l-.043-.605-.6-.491-.568.574-.48.642.559.486Z" transform="translate(-23.007 -55.181)" fill="#dcefe6"/>
  <path id="Path_374" data-name="Path 374" d="M71.926,140.988l-1.088.644.037.522.043.6L72,142.074l-.037-.523Z" transform="translate(-22.816 -45.41)" fill="#dcefe6"/>
  <path id="Path_375" data-name="Path 375" d="M73.4,140.869l-.491.6-.568.565L71.9,143.2l.563.527.04.565.525-1.171-.037-.523-.043-.6.494-.56Z" transform="translate(-23.159 -45.372)" fill="#dcefe6"/>
  <path id="Path_376" data-name="Path 376" d="M70.582,150.122l.583.233-.018-.273Z" transform="translate(-22.733 -48.339)" fill="#dcefe6"/>
  <path id="Path_377" data-name="Path 377" d="M55.912,205.844l-.563.04,1.094-.077Z" transform="translate(-17.827 -66.287)" fill="#dcefe6"/>
  <path id="Path_378" data-name="Path 378" d="M79.422,175.314l-.532.6.549-.6Z" transform="translate(-25.409 -56.465)" fill="#dcefe6"/>
  <path id="Path_379" data-name="Path 379" d="M64.6,169.161l.564-.04.523-.6.637.522.449-.6.564-.04.04.564-.527.57.04.563.04.565-.489.035.529.529-.449.6-.6.042-.526.562-.521.645-.607-.565-.521.645-.531.037-.563.04-.564.04-.607-.565-.521.645.037.523-.524.6L61.6,174.4l.565-.04.037.531-.564.04.04.564,1.128-.08.523-.6.531-.038.565-.039.039.564.043.6.037.522,1.128-.08.563-.039-.521.645.6.483.635.489.489-.035,1.128-.08.564-.04.534-.571-.008-.116.937-.066.522-.037-.482.6-.524.611-.563.04-.564.039-.527.563.04.564-.564.039-1.094.077-.564.04-.564.04-.6-.524-.564.04-.037-.523-.563.04-.523.037-.563.039.6.483-.523.6-.613-.524-.564.04.04.564L61.313,181l-1.128.08-1.609.712.038.531-.563.039-1.088.644.079,1.127.564-.04.564-.04-.039-.563.563-.04.04.563.524-.6,1.047-.641,1.168.485,1.127-.079.04.563.613.523,1.086-.077.523-.6-.04-.563-.04-.565.525-.6.6.524.565-.04.564-.04.529-.037.564-.04.6.525.6.523.04.564.564-.039.523-.6,1.086-.077.6.524,1.128-.08-.04-.564.532-.6.6.523.562.527.564-.039.563-.04.037.522,1.128-.08.564-.04.565-.039.529-.038.6.525.564-.04.6.524,1.087-.643.565-.04.562.527.524-.6.524-.6.605-.043.494-.559.524-.6-.6-.523-.53.037-.565.605-.6-.523-.564.04-.562-.527-.6-.524-.037-.531.564-.04.522-.037.6.492.526-.571-.042-.6-.564.04.529-.53.605-.043.53-.037.564-.04-.043-.6.564-.04.523-.037.524-.6.526-.562-.04-.571.529-1.129-.04-.564-.079-1.129-.646-.521-1.167-.483-1.086.077-.6-.491-.494.568-.6.043-.525.6-.6-.523-.038-.53-.04-.564.565-.04.524-.6.565-.607-.037-.523-.043-.6-.037-.523-.645-.521-.04-.565-1.165-.451-.522.037-.043-.6.523-.037.564-.04.606.557-.2-2.786-.04-.563-.04-.565-.04-.564-.6-.524-.039-.563-.564.04-.559-.486-.564.039-.04-.563-.08-1.128-.039-.564.526-.571-.039-.563-.6-.483-.043-.6-.037-.522.485-1.168-.6-.491-.643-1.087-.042.1-.63-1-.6-.525-.6-.491-.564.04-1.087.077-.53.038-.637-.522-.563.039-.037-.522.563-.04.635.48.531-.037.6-.042-.037-.523,1.053-.074.52-.645-.563.04-.6-.525-.489.035-.038-.531,1.053-.075.563-.039.6.491.569-.574.523-.037-.043-.6,1.06-.567.554-.647-.037-.522-.636-.522.557-.606.531-.038-.04-.563.6-.043.485-.567-.04-.565-.039-.564-.523.037-.6.043-.531.038-.04-.564-.636-.522-.531.037-1.086.077-.607.043-1.127.079-.564.04-1.047.641-.531.038-.039-.564-.04-.563-.04-.564,1.091-.6.489-.035-.04-.564.524-.6.563-.039.564-.04.568-.574.48-.642,1.095-.077-.04-.563.562-.531-.639-.555-.531.037-.564.04-.038-.531-1.091.611-1.165-.452-.042-.6-.522.636-.531-.562.489-.035-1.124-.454-.53.037.037.531-.518,1.169.6-.042-.556.639-1.169-.517.606.557-.564.04-.529.529.6.524.043.6.037.531-.6-.491-.531.037-.043-.6-.563.04-.564.039-.521.645.037.531.04.564.039.564.6.482.039.565-1.095.077.04.563.04.564-.6.043-.49.6.04.564.04.564-1.091.611.186.161-.609-.243.021.292-.521.645.564-.04.6-.043-.042-.6.4.346.6.525.45-1.165.6-.042.494-.568.564-.04-.527.57-.491.6-.558.607.6-.042.04.563-.6.042-.529.038-.527.562-.487,1.135.042.6.038.53.526-.57.487-1.126.53-.038.632.448.043.6-.561.573-.529.038.04.564.529-.037.6-.042.573.567.565-.039.037.522-.564.04.04.564-.494.568-.557.607-.49.6-.564.039.04.563-.527.563-.564.04.043.6-.563.04.037.522.08,1.128.04.563.563-.04-.04-.563-.04-.565.564-.039.6.524.04.563.6.525-.04-.565-.039-.563.489-.6.637.521.04.563,1.056-.641.039.563.564-.04-.04-.563.563-.04.571.525.564-.04.524-.6.026.374-.49.607-.564.04.037.523-.559-.486-.527.563-.532.6.038.531.082,1.161.037.531.611.523.564-.04-.51.562.547-.039,1.127.486.039.564L73,163.425l.04.563-.564.04.04.565.039.563-.571.041-.523.612.037.523.564-.04.04.564.038.531.571-.041-.529.637-.564.04-.043-.6-.456.557-.473-.382-.04-.565-.523.037-.563.04-.037-.522-1.663.642-.565.04-.524.6-1.086.077-.523.6-.564.039Z" transform="translate(-18.347 -43.489)" fill="#dcefe6"/>
  <path id="Path_380" data-name="Path 380" d="M146.208,156.976l-.606.043-1.616.115-.564.039-.557.607.038.531.677,1.085-.037-.531-.043-.6.527-.571.489-.035.6-.043.522-.037.606-.043.531-.037.557-.607.564-.039,1.095-.078.6.525.6.491-.038-.531.483-.6.568-.565-.079-1.127-.605.043-.039-.565.565-.607.485-.567-.522.037-.567.574-.523.037-.563.04-.525.6-.564.04-.491.6-.524.6.039.564-.559.565Z" transform="translate(-46.014 -49.367)" fill="#dcefe6"/>
  <path id="Path_381" data-name="Path 381" d="M149.723,174.513l.08,1.128,1.161-.082.037.522L152.1,176l.564-.04-.037-.522-.04-.564-.04-.564-.037-.531-.565.04-.606-.557-.489.634-.606-.557.042.6-.6.042Z" transform="translate(-48.211 -55.807)" fill="#dcefe6"/>
  <path id="Path_382" data-name="Path 382" d="M155.576,170.943l-.527.562.043.606.6.523-.527.563.039.563.6.491,1.128-.08.563-.04.042.6-.563.039,1.165.451.564-.04-.6-.491.522-.637.531-.038.487-1.133-.6-.484,1.045-1.249.527-.562-.644-1.087.527-.57-.564.04.524-.6-1.127.08-.564.039-.491.6.531-.037.6.491-.524.6-.531.037-.564.04.04.565.037.522-.564.04-.6-.483.523-.6-.04-.563-.563.039.039.563-.524.6Z" transform="translate(-49.939 -54.228)" fill="#dcefe6"/>
  <path id="Path_383" data-name="Path 383" d="M155.852,180.108l-.04-.563-.564.039-.564.04.04.563.6.482.6.533.564-.04.564-.039-.04-.573-.6-.483Z" transform="translate(-49.821 -57.829)" fill="#dcefe6"/>
  <path id="Path_384" data-name="Path 384" d="M160.011,179.852l-.564.04-.6-.523.04.563.037.522.6.533-.041-.573.565-.04Z" transform="translate(-51.161 -57.772)" fill="#dcefe6"/>
  <path id="Path_385" data-name="Path 385" d="M241.512,319.595l.686,1.084.522-.037-.08-1.127-.565-.569-.643-.479-.037-.531-.564-.559-.565.04-.6-.491-1.167-.485-1.127.08-.53-.529-.643-.488-.564.04-1.09.611.6.524.564-.04,1.169-.083.53.529,1.164.451.607.557,1.165.451.6.482Z" transform="translate(-75.543 -101.619)" fill="#dcefe6"/>
  <path id="Path_386" data-name="Path 386" d="M184.039,53.475l.037.531.527-.571-.04-.564.573-.041.523-.037.49-1.66-.647-.553-.523.037.043.6-.573.041-.564.039.037.531.037.523-.523.6Z" transform="translate(-59.082 -16.291)" fill="#dcefe6"/>
  <path id="Path_387" data-name="Path 387" d="M158.964,141.608l.033,0Z" transform="translate(-51.2 -45.609)" fill="#dcefe6"/>
  <path id="Path_388" data-name="Path 388" d="M240.581,340.381l-.026,1.228-.039,1.841,2.454.053,3.081-.549,2.441.666-.039,1.841,4.334-1.75,3.682.079.039-1.841-1.853.575-1.2-1.254-1.241.588-3.068-.065.013-.614-1.227-.026-1.854.574-1.841-.039.026-1.227-.614-.014-.013.614-1.227-.026-.587-1.24Z" transform="translate(-77.467 -109.442)" fill="#dcefe6"/>
  <path id="Path_389" data-name="Path 389" d="M173.491,345.571l-.013.614.6.627,1.227.026.013-.613-1.214-.64Z" transform="translate(-55.875 -111.303)" fill="#dcefe6"/>
  <rect id="Rectangle_85" data-name="Rectangle 85" width="0.614" height="0.614" transform="translate(116.389 234.242) rotate(-88.734)" fill="#dcefe6"/>
  <g id="Group_91" data-name="Group 91">
    <g id="Group_90" data-name="Group 90" clip-path="url(#clip-path)">
      <path id="Path_390" data-name="Path 390" d="M312.652,336.016l2.493-1.788A8.975,8.975,0,0,0,312.039,336a16.8,16.8,0,0,1-4.347,2.363l-2.455-.051-.039,1.841-1.228-.026a.851.851,0,0,1-.026,1.228c-.627.6-1.841-.039-1.841-.039,1.149,3.707,3.642,1.919,3.642,1.919l1.828.653,2.506-2.4.026-1.227,3.081-.548a2.179,2.179,0,0,1-1.815-1.266c-.588-1.24,1.279-2.428,1.279-2.428" transform="translate(-97.303 -107.65)" fill="#dcefe6"/>
    </g>
  </g>
</svg>
