<svg id="Group_77" data-name="Group 77" xmlns="http://www.w3.org/2000/svg" xmlns:xlink="http://www.w3.org/1999/xlink" width="138.841" height="143.878" viewBox="0 0 138.841 143.878">
  <defs>
    <clipPath id="clip-path">
      <rect id="Rectangle_77" data-name="Rectangle 77" width="138.841" height="143.878" fill="#fff" stroke="#fff" stroke-width="2"/>
    </clipPath>
  </defs>
  <g id="Group_76" data-name="Group 76" clip-path="url(#clip-path)">
    <path id="Path_161" data-name="Path 161" d="M167.757,55.7A51.66,51.66,0,0,0,168.9,66.983c.19.924-.037,1.612-1.011,1.88a1.456,1.456,0,0,1-1.85-1.279c-1.472-7.511-1.966-15.043,0-22.539a25.681,25.681,0,0,1,8.039-13.512,15.832,15.832,0,0,1,4.6-2.851c2.636-1.007,5.259-2.047,7.906-3.023.743-.274.906-.624.619-1.352q-2.938-7.424-5.832-14.866c-.2-.521-.407-1-1.124-.7-5.112,2.176-10.519,3.686-15.262,6.7-6.026,3.826-11.081,8.571-14.28,15.091-1.529,3.118-2.122,6.5-3,9.81a45.314,45.314,0,0,1-4.413,11.61c-2.95,5.008-7.2,7.835-13.167,7.721a3.228,3.228,0,0,1-1.421-.224,1.48,1.48,0,0,1-.812-1.5c.022-.7.5-.972,1.114-1.055a11.582,11.582,0,0,1,1.8-.178c4.054.092,6.99-1.808,9.206-5.062a33.137,33.137,0,0,0,2.931-5.824c.409-.963.117-1.352-.789-1.7a19.286,19.286,0,0,1-8.8-6.582,19.349,19.349,0,0,1-3.36-17.166c.275-1.032-.353-1.376-.956-1.835-.665-.506-1,.011-1.387.437-1.952,2.15-3.888,4.315-5.884,6.423-.721.762-.738,1.284.088,1.968,3.231,2.673,5.406,5.948,5.7,10.267A31.6,31.6,0,0,1,126.809,47a66.571,66.571,0,0,1-4.181,12.222,30.82,30.82,0,0,0-2.031,8.927,40.362,40.362,0,0,0,1.834,17.064c.237.769.406,1.561.583,2.347a1.346,1.346,0,0,1-.94,1.815c-.985.281-1.553-.279-1.812-1.143-.589-1.97-1.2-3.938-1.67-5.937a43.485,43.485,0,0,1,.715-22.579c.817-2.78,2.239-5.35,3.185-8.1a39.732,39.732,0,0,0,2.288-11.1c.183-3.978-.761-7.606-4.084-10.262a17.1,17.1,0,0,1-2.2-2.241c-1.16-1.346-1.17-1.881.026-3.245,2.153-2.456,4.326-4.9,6.557-7.28a1.276,1.276,0,0,0,.153-1.957,2.388,2.388,0,0,1-.061-3.031c.779-1.127,1.5-2.3,2.354-3.369a2.623,2.623,0,0,1,3.854-.592c.95.606,1.832,1.319,2.762,1.96.474.327.99.967,1.581.389.722-.705,2.06-1.071,1.682-2.517-.316-1.209-.695-2.4-.984-3.617a2.686,2.686,0,0,1,1.957-3.471c1.191-.374,2.4-.709,3.62-.97,1.957-.419,3.088.3,3.633,2.208.089.31.163.624.251.934.643,2.277.722,2.316,3.063,2.092.682-.065,1.019-.354,1.067-1.045s.132-1.364.242-2.039A2.6,2.6,0,0,1,153.127,0a21.77,21.77,0,0,1,4.432.552,2.552,2.552,0,0,1,2.111,3.031c-.13,1.121-.178,2.259-.412,3.357a1.307,1.307,0,0,0,.728,1.673,14.8,14.8,0,0,1,3.829,3.119c.378.413.741.738,1.342.354,4.123-2.633,8.846-3.878,13.316-5.7,3.652-1.49,4.517-.988,5.932,2.739,1.732,4.561,3.521,9.1,5.28,13.652.16.413.3.835.429,1.258.593,1.961.234,2.993-1.656,3.814-2.845,1.237-5.759,2.317-8.643,3.464-.225.089-.456.164-.675.264s-.5.174-.464.474.331.3.563.36A29.95,29.95,0,0,1,190.9,38.333a37.693,37.693,0,0,1,10.8,14.225,68.091,68.091,0,0,1,5.6,22.294c.272,3.014.48,6.027.466,9.053,0,.363.009.727-.013,1.089-.056.918-.321,1.753-1.419,1.748s-1.377-.823-1.411-1.753c-.073-2.015-.085-4.032-.208-6.044-.539-8.834-2.043-17.459-5.855-25.538-2.75-5.828-6.51-10.856-11.969-14.44a30.773,30.773,0,0,0-10.682-4.376,1.815,1.815,0,0,0-1.89.755A27.074,27.074,0,0,0,168.041,49.9a47.391,47.391,0,0,0-.284,5.794M132.208,25.563a17.18,17.18,0,0,0,10.807,15.809c.98.387,1.413.137,1.631-.83.319-1.415.707-2.814,1.017-4.231a31.848,31.848,0,0,1,3.259-8.685A39.548,39.548,0,0,1,160.9,14.689c1.069-.763,1.079-.905.09-1.77a23.58,23.58,0,0,0-3.263-2.29,2.619,2.619,0,0,1-1.433-2.7c.133-1.16.162-2.336.376-3.48.165-.879-.163-1.2-.95-1.279-.36-.037-.723-.067-1.078-.133-1.073-.2-1.712.081-1.679,1.326a7.448,7.448,0,0,1-.227,1.674,2.655,2.655,0,0,1-2.774,2.335c-.724.031-1.448.08-2.169.153-2.9.293-3.6-.181-4.385-3.026-.7-2.531-.776-2.571-3.27-1.7-.038.013-.078.022-.116.034a.772.772,0,0,0-.589,1.1c.256.806.418,1.645.709,2.437.753,2.044.074,3.455-1.573,4.827-2.573,2.145-2.856,2.918-6.638.2-2.034-1.461-2.034-1.383-3.568.549-.632.8-.453,1.2.31,1.72,1.2.814,2.354,1.7,3.475,2.615A2.52,2.52,0,0,1,133,20.2a16.724,16.724,0,0,0-.794,5.359" transform="translate(-93.576 0)" fill="#fff" stroke="#fff" stroke-width="2"/>
    <path id="Path_162" data-name="Path 162" d="M478.046,476.923c0,1.9,0,3.793,0,5.689-.009,2.869-1.3,4.152-4.137,4.15-3.55,0-7.1.032-10.649-.01-1.082-.013-1.491.329-1.473,1.458.054,3.55,0,7.1.009,10.652,0,2.807-1.226,4.151-4.026,4.119-3.99-.045-7.975-.162-11.968-.014-2.526.094-3.861-1.344-3.873-3.916-.017-3.591-.023-7.183.038-10.773.02-1.155-.385-1.5-1.533-1.551a79.682,79.682,0,0,0-9.426.025,11.373,11.373,0,0,1-1.693-.011c-2.357-.189-3.524-1.235-3.572-3.583-.086-4.235-.084-8.474.031-12.708.07-2.562,1.539-3.719,4.318-3.52,3.428.247,6.854.091,10.28.134,1.488.018,1.547-.063,1.549-1.589,0-3.51-.012-7.021,0-10.531.01-3.02,1.279-4.284,4.276-4.288q5.567-.008,11.133,0c3.324,0,4.478,1.189,4.467,4.553q-.016,4.9-.01,9.8c0,1.874.068,2,1.972,2.029,3.468.056,6.938.028,10.407.029,2.636,0,3.843,1.168,3.871,3.8.022,2.017,0,4.035,0,6.053ZM458.851,493.1h-.016c0-1.533,0-3.066,0-4.6-.008-3.63,1.066-4.7,4.661-4.694,3.387.01,6.775-.027,10.162.018,1.046.014,1.429-.351,1.418-1.4-.038-3.67,0-7.341-.012-11.012,0-1.476-.178-1.722-1.66-1.735-3.384-.031-6.773-.2-10.154.1-2.956.26-4.409-1.061-4.406-4.02,0-3.55-.038-7.1,0-10.648.012-1.07-.3-1.52-1.439-1.5q-5.564.081-11.129.012c-1.066-.012-1.4.392-1.389,1.426.041,3.711.031,7.422,0,11.133-.017,2.329-1.2,3.458-3.53,3.471-3.748.021-7.5-.077-11.245.128-1.111.061-1.467.437-1.454,1.515.043,3.67.055,7.342-.008,11.011-.02,1.179.4,1.542,1.539,1.525,3.588-.054,7.178-.032,10.767-.021,2.609.008,3.929,1.347,3.933,3.972.006,3.63.02,7.261-.016,10.891-.01.97.3,1.378,1.32,1.368q5.685-.059,11.371,0c1.037.012,1.321-.407,1.295-1.368-.051-1.854-.015-3.71-.015-5.566" transform="translate(-339.207 -359.104)" fill="#fff" stroke="#fff" stroke-width="2"/>
    <path id="Path_163" data-name="Path 163" d="M17.138,411.784c-.51,1.481-1.055,2.95-1.52,4.445a2.311,2.311,0,0,1-2.572,1.838c-3.588-.081-7.179-.041-10.769-.054a4.983,4.983,0,0,1-.963-.069C.581,417.8.015,417.417,0,416.6a1.3,1.3,0,0,1,1.256-1.373,6.749,6.749,0,0,1,1.682-.116c2.9.311,5.8-.07,8.7-.011a1.541,1.541,0,0,0,1.739-1.259c.779-2.459,1.658-4.887,2.5-7.326a7.833,7.833,0,0,1,.4-1.011c.306-.6.728-1.126,1.469-1.076a1.57,1.57,0,0,1,1.375,1.349c.337,1.286.594,2.592.88,3.891q1.7,7.735,3.406,15.471a.555.555,0,0,0,.429.509c.86-2.413,1.737-4.822,2.578-7.244,1.222-3.517,1.419-3.58,5.136-3.278,2.366.192,4.754.106,7.131.167.793.021,1-.543,1.237-1.109q2.015-4.8,4.034-9.59c.2-.483.421-.961.655-1.43.32-.642.754-1.212,1.554-1.13.846.087,1.209.745,1.38,1.491.441,1.925.854,3.857,1.283,5.785q1.353,6.079,2.714,12.157c.061.272.157.535.3,1a17.112,17.112,0,0,0,1.2-3.768c.96-3.429.949-3.431,4.476-3.428,3.025,0,6.05,0,9.075.009a6.612,6.612,0,0,1,1.435.149,1.273,1.273,0,0,1,1.035,1.321,1.309,1.309,0,0,1-1.119,1.379,6.531,6.531,0,0,1-1.321.106c-2.944,0-5.89.038-8.833-.029a1.714,1.714,0,0,0-2.011,1.529c-.725,2.893-1.592,5.75-2.41,8.619a7.511,7.511,0,0,1-.377,1.019,1.314,1.314,0,0,1-1.193.888,1.369,1.369,0,0,1-1.348-.859,9.923,9.923,0,0,1-.537-1.724c-1.315-5.9-2.612-11.807-3.928-17.709a1.843,1.843,0,0,0-.561-1.241c-.626,1.449-1.227,2.825-1.815,4.207-.5,1.187-1.033,2.367-1.48,3.576a2.3,2.3,0,0,1-2.656,1.744c-2.893-.308-5.8-.152-8.7-.222a1.316,1.316,0,0,0-1.484,1.047c-1.364,3.88-2.791,7.737-4.2,11.6-.083.227-.148.463-.249.681-.312.672-.674,1.39-1.515,1.372-.9-.019-1.322-.746-1.5-1.517-.666-2.825-1.285-5.66-1.915-8.493-.735-3.305-1.461-6.612-2.2-9.917-.077-.344-.207-.676-.313-1.014l-.257-.009" transform="translate(0 -320.354)" fill="#fff" stroke="#fff" stroke-width="2"/>
    <path id="Path_164" data-name="Path 164" d="M226.684,548.658c-7.674-.068-14.855-2.181-21.826-5.227-7.244-3.166-13.224-8.131-19.1-13.26a86.868,86.868,0,0,1-9.252-9.713c-.233-.277-.445-.572-.662-.863a1.262,1.262,0,0,1,.179-1.918,1.247,1.247,0,0,1,1.924.129c1.23,1.333,2.383,2.736,3.618,4.065a88.035,88.035,0,0,0,20.254,16.736,54.783,54.783,0,0,0,20.014,6.876,36.324,36.324,0,0,0,10.362.049c1-.148,1.864-.046,2.083,1.062.229,1.158-.768,1.4-1.578,1.584a26.072,26.072,0,0,1-6.018.481" transform="translate(-139.838 -412.199)" fill="#fff" stroke="#fff" stroke-width="2"/>
    <path id="Path_165" data-name="Path 165" d="M373.617,359.045a1.364,1.364,0,0,1-1.913,1.2,14.857,14.857,0,0,1-5.561-5.918c-.344-.627.012-1.173.56-1.554a1.188,1.188,0,0,1,1.649.085,3.743,3.743,0,0,1,.473.549,20.073,20.073,0,0,0,3.911,4.266,1.749,1.749,0,0,1,.88,1.375" transform="translate(-291.654 -280.875)" fill="#fff" stroke="#fff" stroke-width="2"/>
  </g>
</svg>
