<svg id="Group_63" data-name="Group 63" xmlns="http://www.w3.org/2000/svg" xmlns:xlink="http://www.w3.org/1999/xlink" width="62.823" height="62.925" viewBox="0 0 62.823 62.925">
  <defs>
    <clipPath id="clip-path">
      <rect id="Rectangle_61" data-name="Rectangle 61" width="62.823" height="62.924" fill="#fff"/>
    </clipPath>
  </defs>
  <g id="Group_62" data-name="Group 62" clip-path="url(#clip-path)">
    <path id="Path_142" data-name="Path 142" d="M36.618,62.924C31.374,62.6,27.5,60.2,25.19,55.4c-.147-.305-.274-.621-.393-.939-.072-.193-.169-.235-.372-.186q-2.088.512-4.182,1a.394.394,0,0,0-.359.437A5.224,5.224,0,1,1,12.9,50.636a5.152,5.152,0,0,1,6.212,2.229c.21.366.38.479.812.363,1.25-.335,2.518-.6,3.777-.9.526-.125.519-.132.466-.676a12.342,12.342,0,0,1,3.058-9.594c.217-.252.206-.374-.01-.608Q25.409,39.5,23.64,37.508c-.217-.242-.351-.275-.642-.067a12.345,12.345,0,0,1-8.581,2.315A11.971,11.971,0,0,1,11,38.875c-.353-.143-.538-.087-.716.254Q9.575,40.482,8.809,41.8a.42.42,0,0,0,.075.612,5.212,5.212,0,0,1,1.522,2.967A5.284,5.284,0,0,1,5.917,51.3,5.23,5.23,0,0,1,4.328,40.966a5.264,5.264,0,0,1,2.164.09A.387.387,0,0,0,7,40.823c.5-.918.994-1.836,1.525-2.734.181-.306.115-.453-.145-.641a12.06,12.06,0,0,1-4.869-7.264A12.246,12.246,0,0,1,6.586,18.657,11.414,11.414,0,0,1,9.125,16.6c.227-.139.27-.24.143-.5q-1.292-2.643-2.535-5.31c-.145-.312-.286-.43-.651-.375A5.277,5.277,0,0,1,0,5.053a5.337,5.337,0,0,1,4.618-5,5.252,5.252,0,0,1,5.74,6.214A5.026,5.026,0,0,1,8.679,9.149a.471.471,0,0,0-.123.673q1.286,2.667,2.535,5.352c.136.293.3.308.564.212a11.95,11.95,0,0,1,4.295-.685,12.267,12.267,0,0,1,7.76,2.9A11.765,11.765,0,0,1,26.6,21.049c.166.3.328.328.634.2q5.307-2.268,10.626-4.511c.457-.194.448-.192.278-.863a12.464,12.464,0,0,1-.139-5.9c.171-.755.16-.753-.574-1.024-.79-.292-1.58-.584-2.364-.893a.266.266,0,0,0-.394.118,5.213,5.213,0,0,1-9.357-4.233A5.217,5.217,0,0,1,35.55,5.755a.306.306,0,0,0,.216.376q1.466.55,2.931,1.1c.22.083.26-.1.324-.221a13.333,13.333,0,0,1,1.607-2.459A12.457,12.457,0,0,1,47.993.227a11.96,11.96,0,0,1,7.643,1.015,12.249,12.249,0,0,1,6.9,8.743,12.459,12.459,0,0,1-15.2,14.8c-.251-.059-.372-.03-.469.24q-2.409,6.728-4.844,13.447c-.106.293-.066.442.225.592A12.542,12.542,0,0,1,46.4,42.436c.133.168.224.167.4.052,1.818-1.2,3.636-2.393,5.472-3.56a.61.61,0,0,0,.313-.822,5.145,5.145,0,0,1,2.284-5.881,5.227,5.227,0,1,1,3.8,9.58,5.05,5.05,0,0,1-4.582-1.264c-.144-.128-.235-.21-.443-.073-1.785,1.178-3.583,2.334-5.369,3.51-.656.432-.6.3-.275.985a12.361,12.361,0,0,1,1.188,4.873A12.575,12.575,0,0,1,39.024,62.643a11.684,11.684,0,0,1-2.406.281M39.61,38.112c.393.085.4-.156.457-.319q2.422-6.7,4.844-13.4a.382.382,0,0,0-.22-.565A12.59,12.59,0,0,1,39.35,18.76c-.148-.261-.291-.3-.574-.183Q33.349,20.9,27.91,23.192c-.245.1-.281.2-.2.447a11.454,11.454,0,0,1,.454,5.288A12.362,12.362,0,0,1,25.4,35.194c-.511.612-.5.62.043,1.221l.075.085c1.1,1.211,2.2,2.42,3.289,3.637.161.18.266.19.462.04a10.128,10.128,0,0,1,1.071-.7,12.361,12.361,0,0,1,7.452-1.688c.656.058,1.283.244,1.821.327m7.525,12.3A10.5,10.5,0,0,0,34.363,40.087a10.466,10.466,0,0,0-5.875,16.791c.143.179.254.33.4-.015A7.2,7.2,0,0,1,32.6,53.074c.238-.111.3-.182.1-.419a5.143,5.143,0,0,1,.463-7.284,5.222,5.222,0,0,1,7.43.48,5.142,5.142,0,0,1,.012,6.773c-.186.23-.189.355.1.459a5.119,5.119,0,0,1,1.086.6,7.651,7.651,0,0,1,2.627,3.147c.095.2.169.346.38.075a10.592,10.592,0,0,0,2.331-6.494M5.244,26.542a10.864,10.864,0,0,0,2.263,7.23c.25.32.277.315.457-.067A7.641,7.641,0,0,1,11.3,30.176c.611-.333.6-.324.2-.9a4.98,4.98,0,0,1-.436-5.417,4.916,4.916,0,0,1,4.545-2.866,4.96,4.96,0,0,1,4.761,2.885,5.016,5.016,0,0,1-.662,5.682c-.241.312-.156.37.136.5a7.233,7.233,0,0,1,2.6,2.024,8.008,8.008,0,0,1,1.041,1.744c.1.209.175.286.356.056a10.489,10.489,0,0,0-12.96-15.937,10.034,10.034,0,0,0-5.63,8.593m44.973-24.4a9.226,9.226,0,0,0-4.675,1.07,10.512,10.512,0,0,0-3.433,15.97c.17.214.254.268.385-.034a7.286,7.286,0,0,1,3.737-3.818c.237-.111.271-.186.088-.4a5.144,5.144,0,0,1-1.27-3.53,5.213,5.213,0,1,1,9.528,3.042c-.168.246-.514.517-.477.722.051.276.5.294.773.45a7.609,7.609,0,0,1,3.157,3.5c.117.255.205.267.38.047a10.227,10.227,0,0,0,2.17-8.392A10.361,10.361,0,0,0,50.217,2.141" transform="translate(0 0)" fill="#fff"/>
  </g>
</svg>
