<svg id="Group_94" data-name="Group 94" xmlns="http://www.w3.org/2000/svg" xmlns:xlink="http://www.w3.org/1999/xlink" width="206.278" height="256.602" viewBox="0 0 206.278 256.602">
  <defs>
    <clipPath id="clip-path">
      <rect id="Rectangle_87" data-name="Rectangle 87" width="206.278" height="256.602" fill="#dcefe6"/>
    </clipPath>
  </defs>
  <g id="Group_93" data-name="Group 93" clip-path="url(#clip-path)">
    <path id="Path_391" data-name="Path 391" d="M256.472,156.041a1.666,1.666,0,0,1-.437-1.21c-.019-2.122-.756-2.635-2.309-3.33-.843-.378-1.868.095-2.767-.677-.393-.337-1.3-.38-1.963-.65-.689-.279-1.029-.929-1.648-1.225a5.617,5.617,0,0,1-3.115-3.216,1.294,1.294,0,0,0-1.261-.8c-.5-.015-1,0-1.5-.015-.243-.007-.557.059-.7-.169-.386-.62-.984-.466-1.551-.53-1.431-.16-2.988.569-4.286-.584-.05-.044-.161-.019-.243-.027a4.845,4.845,0,0,0-4.495,1.737c-.135.163-.242.4-.528.228a2.011,2.011,0,0,1-.36-2.888c.2-.216.42-.455.149-.711a6.635,6.635,0,0,0-1.948-1.637,23.409,23.409,0,0,1-3.232-1.622,1.435,1.435,0,0,0-1.4-.217,7.72,7.72,0,0,0-1.872,1.033,10.094,10.094,0,0,1-3.073,2.462c-.55.212-.9.6-1.373-.031-.194-.254-.545-.245-.842-.3a5.726,5.726,0,0,1-2.793-1.347c-.99-.9-1.579-.883-2.523.115-.826.873-1.024.842-1.914.019-.665-.616,0-.946.229-1.321a7.633,7.633,0,0,1,3.734-3.526,1.079,1.079,0,0,0,.654-.6,21.221,21.221,0,0,1,1.368-2.82c.34-.568.165-.894-.521-.881-.555.011-.72-.284-.678-.794.027-.327.173-.82-.073-.956-.832-.458-.51-1.2-.578-1.841-.023-.219.047-.574-.061-.638-.722-.432-.57-1.124-.622-1.771a.886.886,0,0,0-.691-.846c-.427-.062-.746.294-.942.67a5.524,5.524,0,0,0-.313.855c-.414,1.287-1.558,2.124-2.054,3.372a1.173,1.173,0,0,1-1.175.636c-1.273,0-2.546.053-3.819.068a.839.839,0,0,1-.463-.145,3.344,3.344,0,0,0-3.37-.161,4.788,4.788,0,0,1-3.188.9,3.553,3.553,0,0,0-2.219.55c-.846.468-1.726.875-2.586,1.317a1.432,1.432,0,0,1-1.577,0,5.118,5.118,0,0,1-1.627-1.748c-.388-.764-.663-1.578-1.117-2.315-.243-.394-.478-1.141-.193-1.314,1.06-.645.582-1.61.7-2.446.035-.251.032-.478.3-.631.622-.358.494-.762.055-1.2a7.817,7.817,0,0,1-.751-.886c-.225-.3-.4-.317-.75-.117-1.432.821-2.815,1.724-4.256,2.535-1.632.918-2.974,1.244-4.476-.111-.509-.459-1-.14-1.037.552a1.614,1.614,0,0,0,.147.89c.649,1.182.866,2.545,1.557,3.71.137.229.207.451-.049.662a4.454,4.454,0,0,0-1.229,1.741,1.521,1.521,0,0,1-.731.768c-.912.455-1.848.869-2.736,1.369-.818.461-1.556.783-2.2-.234a.667.667,0,0,0-.346-.221c-1.283-.425-1.755-1.538-2.21-2.642-.372-.9-.568-.988-1.331-.406a2.27,2.27,0,0,0-.42.4.954.954,0,0,1-1.561.176,1.291,1.291,0,0,0-1.545-.1c-.272.137-.545.272-.82.4-.762.36-.8.51-.269,1.2,1.066,1.4,1.045,1.686-.221,2.841-.163.149-.34.285-.506.431a.628.628,0,0,0-.175.825c.7,1.187.888,2.585,1.623,3.768a2.1,2.1,0,0,1,.1,2.153c-.736.893-.447,1.82-.56,2.737-.033.269.057.583-.215.764-.359.24-.358.587-.365.954a10.436,10.436,0,0,1-.081,1.243,1.536,1.536,0,0,1-.837,1.072c-.355.2-.625-.251-.844-.523a.834.834,0,0,0-1.137-.273c-.945.376-1.96.573-2.923.909-.98.343-2.139.562-2.582,1.619a8.287,8.287,0,0,0-.7,2.258,9.7,9.7,0,0,1-1.223,3.486c-.165.323-.364.706-.133,1.027,1.256,1.746,1.244,4.365,3.741,5.286.6.219,1.012.922,1.513,1.4a.623.623,0,0,0,.992.019,1.642,1.642,0,0,1,2.6.476,5.373,5.373,0,0,0,3.155,3.248c.514.2.733.163,1.023-.19a6.9,6.9,0,0,1,1.934-1.533c1.712-1.007,3.639-1.5,5.391-2.4a.451.451,0,0,1,.47.038,1.971,1.971,0,0,1,1.117,1.268,18.52,18.52,0,0,0,1.314,4.017c.267.627.956.9,1.121,1.513.323,1.2,1.356,1.417,2.268,1.557a18.063,18.063,0,0,1,3.977,1.253c1.536.615,2.987,1.444,4.472,2.187a2.761,2.761,0,0,1,1.461,1.516,22.817,22.817,0,0,1,1.227,3.682c.068.367.237.822.578.85,1.1.089,1.988.84,3.094.861a1.812,1.812,0,0,1,1.97,1.443,6.7,6.7,0,0,0,1.284,2.305,8.759,8.759,0,0,1,1.229,2.345.758.758,0,0,1-.1.865,2.06,2.06,0,0,0-.518,1.6,1.877,1.877,0,0,1-1.485,1.409c-.259-.016-.527-.053-.547-.378a.394.394,0,0,1,.436-.409c.726.063.782-.369.792-.917a1.34,1.34,0,0,1,.2-.792c.72-.849.408-1.626-.045-2.447-.692-1.255-1.746-2.286-2.233-3.669a.61.61,0,0,0-.683-.38,7.359,7.359,0,0,1-2.977-.637,2.8,2.8,0,0,1-2.027-1.924,28.569,28.569,0,0,1-.77-2.786,2.427,2.427,0,0,0-1.479-2.036c-1.189-.518-2.305-1.2-3.465-1.785a12.53,12.53,0,0,0-3.714-1.282c-1.639-.251-3.071-.645-3.691-2.4a1.4,1.4,0,0,0-.353-.456c-1.327-1.353-1.549-3.182-2.089-4.871-.079-.247.071-.585-.275-.716a.793.793,0,0,0-.9.249c-.174.191-.34.386-.61.374a4.529,4.529,0,0,0-2.463.87,13.9,13.9,0,0,0-3.451,2.114c-.426.448-.671.868-.228,1.445.62.807.433,1.943,1.091,2.74.013.016,0,.054,0,.081,0,.915-.006,1.83-.016,2.745,0,.305.027.712-.2.867-.589.4-.435.957-.444,1.485-.013.72-.007,1.441,0,2.162a1.344,1.344,0,0,0,.209.873c.676.852.892,1.955,1.537,2.823a.38.38,0,0,1-.013.465,22.57,22.57,0,0,1-1.6,2.869.505.505,0,0,0-.053.69c.8.75,1.049,1.88,1.833,2.615a1.68,1.68,0,0,1,.6,1.459c-.02.273-.167.646.224.8.479.193.422.589.428.977.007.5-.169,1.271.072,1.437.883.611.483,1.437.586,2.175.037.263-.051.526.152.786a18.533,18.533,0,0,1,1.566,2.23,11.936,11.936,0,0,0,1.244,1.712c.295.358.488.557.823,0a3.95,3.95,0,0,1,2.415-1.453c.885-.263,2.14-.572,3,.478.088.108.366.077.556.082a9.026,9.026,0,0,1,1.411.023c1.151.215,1.99-.516,2.912-.936a2.245,2.245,0,0,0,1.1-1.087c.418-1.084,1.023-2.069,1.477-3.129.61-1.421,1.215-2.771,2.81-3.5,3.115-1.428,2.44-1.46,5.4-.019a6.12,6.12,0,0,1,2.891,3.556c.2.481.721.724.72,1.315,0,.8-.231,1.68.587,2.291.091.068.072.317.063.479-.046.888.246,1.519,1.214,1.662a1.4,1.4,0,0,1,.77.468,7.75,7.75,0,0,0,2.318,1.421,15.464,15.464,0,0,1,5.372,3.5,2.11,2.11,0,0,1,.7,1.676,2.309,2.309,0,0,0,.352,1.345,20.786,20.786,0,0,0,1.031,1.984,2.117,2.117,0,0,1,.056,2.563,10.447,10.447,0,0,1-2.694,3.61c-.531.4-1.211.52-1.68,1.044a12.449,12.449,0,0,0-1.928,2.451c-.395.746-.336,1.151.245,1.611a2.076,2.076,0,0,1,.81,1.127,1.688,1.688,0,0,0,1.121,1.215,33.851,33.851,0,0,1,7.58,4.522,14.874,14.874,0,0,1,2.479,2.66c.949-1.939,1.527-3.893,3.191-5.346.6-.524.881-1.584,1.607-2.2.089-.076.023-.32.049-.484.178-1.168-.536-2.493.611-3.49-.007-1.226,1.455-1.592,1.624-2.8.049-.351.4-.748.342-1.241-.051-.47-.275-1,.253-1.377.735-.526.52-1.166.13-1.745a1.956,1.956,0,0,1-.448-1.3,1.141,1.141,0,0,0-.236-.7c-.673-1.108-.626-1.575.262-2.487.425-.437.86-.864,1.3-1.289.156-.152.315-.4.539-.346.523.122.794-.193,1.016-.54.662-1.037,1.832-1.35,2.769-1.99a.648.648,0,0,1,.484-.031.907.907,0,0,0,1.143-.394c.081-.123.278-.271.4-.252.686.111.951-.424,1.355-.786.46-.411.728-1.173,1.463-1.117s1.64-.306,2.19.577c.055.088.247.115.38.125a2.366,2.366,0,0,0,2.491-.931,2.816,2.816,0,0,1,.69-.713c.55-.414,1.5-.4,1.432-1.464-.012-.2.432-.32.51-.685.174-.814.971-1.454.68-2.417-.019-.064.165-.207.273-.288.241-.181.252-.452.354-.7.292-.718.918-1.329.581-2.218-.015-.04.132-.183.225-.216.5-.179.492-.56.5-1,.019-.69-.346-1.517.58-1.969.089-.043.06-.359.062-.55.006-.582,0-1.165,0-1.747,0-.221-.036-.507.188-.6.6-.249.426-.743.478-1.2.121-1.073-.458-2.286.614-3.184.073-.061.031-.265.031-.4q0-1.664,0-3.327c0-.25.047-.558-.154-.71a1.707,1.707,0,0,1-.52-1.742c.131-1.2-.251-2.4.572-3.617.646-.954,1.059-1.92,2.325-2.084.149-.019.312-.068.295-.223-.081-.714.437-1.177.72-1.728.814-1.582,1.322-3.362,2.842-4.506a.885.885,0,0,0,.362-.54,1.97,1.97,0,0,1,.818-1.29c.416-.408.816-.832,1.245-1.225a1.34,1.34,0,0,0,.534-1.386.593.593,0,0,1,.273-.722c.435-.225.4-.6.382-1a2.11,2.11,0,0,1,.479-1.841,1.068,1.068,0,0,0-.061-1.51" transform="translate(-50.54 -40.536)" fill="#dcefe6"/>
    <path id="Path_392" data-name="Path 392" d="M219.435,264.036a1.261,1.261,0,0,0-.357-.209q-2.152-1.076-4.306-2.146a3.729,3.729,0,0,1-1.78-1.8,4.761,4.761,0,0,0-1.009-1.483c-.281-.275-.478-.65-.256-.969a10.586,10.586,0,0,1,1.662-2.521,14.857,14.857,0,0,1,2.631-2.084c1.577-.81,1.96-2.645,2.787-4.085a.414.414,0,0,0-.06-.473c-.838-.931-1.012-2.2-1.658-3.228a1.055,1.055,0,0,1-.226-.7,2.363,2.363,0,0,0-1.07-2.194,7.024,7.024,0,0,0-1.828-1.269c-1.057-.478-2.049-1.1-3.117-1.55-1.112-.466-1.9-1.4-3-1.893a2.982,2.982,0,0,1-1.507-2.076c-.291-1.036-.39-2.127-.755-3.117-.741-2.009-1.689-3.924-4.054-4.514a.728.728,0,0,1-.223-.11,1.673,1.673,0,0,0-1.811-.044c-.787.406-1.564.832-2.354,1.231a1.912,1.912,0,0,0-.878,1.048,43.147,43.147,0,0,1-2.691,5.3c-.124.046-.281.062-.359.149a5.412,5.412,0,0,1-4.435,1.818,3.537,3.537,0,0,1-2.058-.55c-.92-.621-3.819.339-4.558,1.252a.854.854,0,0,0-.228.686,4.725,4.725,0,0,1-1.087,3.814c-1.756,2.076-.067,4.083-.131,6.108,0,.1.159.222.269.3a.633.633,0,0,1,.12,1.065c-.98.818-1.3,2.022-1.954,3.03a6.946,6.946,0,0,0-1.1,4.478c.011.136-.014.259.109.374.6.551.89,2.567.367,3.124a2.414,2.414,0,0,0-.25,2.778,44.293,44.293,0,0,0,2.517,4.914c.356.623.678,1.073.045,1.7-.194.193-.189.626-.206.953-.081,1.6.927,2.78,1.679,4.03.263.438.289.584-.109.813-.854.492-1.031,1.466-1.547,2.2a.551.551,0,0,0,.107.762c.563.336.547.842.532,1.373a2.231,2.231,0,0,0,.368.969c.361.816,1.023,1.494.95,2.53-.069.982-.261,2.056.564,2.913.116.12.044.426.052.645a10.2,10.2,0,0,0,.131,3.058c.654,1.87,1.444,3.692,2.136,5.549.606,1.627,1.814,2.886,2.6,4.4,1.022,1.969,2.073,3.9,1.672,6.249a.869.869,0,0,0,.164.792,1.865,1.865,0,0,1,.473,1.677c-.017.692,0,1.386,0,2.079a3.028,3.028,0,0,0,.458,1.81,1.4,1.4,0,0,1-.126,1.774c-.161.189-.412.4-.272.648.395.7.526,1.64,1.437,1.927a4.393,4.393,0,0,1,2.944,2.915,1.224,1.224,0,0,0,.476.666,7.51,7.51,0,0,0,5.323,1.414c1.1-.184,1.463-.942.856-1.808a1.566,1.566,0,0,1,.162-2.03.773.773,0,0,0,.23-.666,1.615,1.615,0,0,1,.122-.891c.65-1.284,1.233-2.607,1.961-3.846.389-.661.838-1.169.013-1.8a.666.666,0,0,1-.131-.544c.177-.991-.45-1.419-1.2-1.729a4.01,4.01,0,0,1-1.235-.81,10.765,10.765,0,0,1-1.766-2.427c-.5-.82-.412-1.159.187-1.7.285-.26.8-.41.736-.926a1.1,1.1,0,0,1,.494-.985c.425-.4.834-.81,1.242-1.226a.6.6,0,0,0,0-.987,1.571,1.571,0,0,1,.09-2.343c.489-.459,1-.9,1.528-1.37-2.889-1.246-2.889-1.246-4.005-3.52a3.4,3.4,0,0,0-.35-.657c-.484-.6-.358-1,.2-1.531s.95-.68,1.525-.123c.149.145.406.173.582.3.717.512,1.674.536,2.328,1.2.347.352.668.147.82-.27a8.463,8.463,0,0,1,1.311-2.48c.139-.171.2-.353.045-.522a8.924,8.924,0,0,1-.925-1.664c-.215-.357-.65-.743-.271-1.191.394-.467.748-.986,1.545-.935,1.325.083,2.659.031,3.989.034a1.335,1.335,0,0,0,.72-.137,16.554,16.554,0,0,1,3.74-1.8c.24-.067.233-.243.307-.424a6.413,6.413,0,0,1,1.226-2.393c.195-.19.378-.447.1-.623a1.653,1.653,0,0,1-.657-1.747.577.577,0,0,0-.249-.5c-.93-.646-1.183-1.712-1.64-2.645-.141-.288-.237-.511-.6-.592a9.156,9.156,0,0,1-1.79-.839c-1.055-.488-1.117-.978-.44-2.008.109-.167.175-.272-.02-.4-1.312-.83-1.307-2.34-1.65-3.58a5.074,5.074,0,0,1,.32-3.314,7.768,7.768,0,0,0,.934-3.5c-.031-.5.366-.786.633-1.13.15-.193.349-.307.562-.111a.334.334,0,0,1-.047.518,1.5,1.5,0,0,0-.46,1.431,3.991,3.991,0,0,1-.323,1.353,13.807,13.807,0,0,0-1.036,3.722c-.048,1.372.735,2.47,1.023,3.725a.883.883,0,0,0,.938.68c.3-.017.494.225.738.348a10.019,10.019,0,0,0,2.126.987,3.8,3.8,0,0,1,1.3.4,4.746,4.746,0,0,0,3.482.93c.308-.055.59-.065.8-.348a2.145,2.145,0,0,1,1.573-1.085,1.035,1.035,0,0,0,.838-.736,9.711,9.711,0,0,1,.654-1.414c.261-.6.749-1.144.055-1.912-1.315-1.455-3.1-2.315-4.442-3.714m-9.13-12.068a.533.533,0,0,1-.361-.175c-.39-.619-.995-.5-1.569-.486-1.635.039-2.4-1.064-1.7-2.546a13.6,13.6,0,0,1,.945-2.467c.288-.4-.664-1.842-1.333-2.092-.906-.34-1.825-.644-2.748-.932a18.587,18.587,0,0,1-8.024-5.1,20.215,20.215,0,0,0-1.592-1.58,1.054,1.054,0,0,1-.348-1.421c.382-.078.593.1.771.438a11.737,11.737,0,0,0,3.757,3.876c.58.421,1.183.812,1.79,1.2a16.086,16.086,0,0,0,4.709,1.811,5.236,5.236,0,0,1,3.836,3.324.515.515,0,0,1,0,.548c-.683.854-.721,1.956-1.117,2.922-.378.925-.157,1.134.832,1.189a5.29,5.29,0,0,1,1.8.453,3.293,3.293,0,0,0,3.015-.127,3.045,3.045,0,0,1,.664-.313c.131-.041.321-.029.39-.116.848-1.071,1.9-2.022,2.158-3.458.071-.4.016-.83.055-1.243.017-.181.077-.414.309-.442s.326.193.379.37a2.289,2.289,0,0,1-.081,2.086c-.864,1.037-1.278,2.4-2.414,3.228a5.716,5.716,0,0,1-4.117,1.063" transform="translate(-59.257 -75.697)" fill="#dcefe6"/>
    <path id="Path_393" data-name="Path 393" d="M53.953,49c.4-.774.865-1.341,1.851-1.175a2.769,2.769,0,0,0,.911-.017,1.1,1.1,0,0,0,.679-1.757,1.44,1.44,0,0,1-.135-1.841c.656-.776,1.283-1.736,2.565-1.541a.669.669,0,0,0,.653-.292.762.762,0,0,1,.736-.293,1.691,1.691,0,0,0,1.453-.667,2.416,2.416,0,0,1,1.093-.716,1.774,1.774,0,0,0,1.2-.944.48.48,0,0,1,.694-.255c.837.708.987.262,1.4-.5.324-.6.277-1.5,1.075-1.839.034-.014.046-.167.017-.232-.5-1.1.523-1.75.874-2.533.435-.968.644-.87-.416-1.359-.251-.116-.484-.268-.733-.388a2.7,2.7,0,0,0-2.634-.023,3.394,3.394,0,0,1-1.755.521c-1.491.1-3.046,1.347-2.972,2.587a4.76,4.76,0,0,1-.923,2.443c-.642,1.346-2.371,1.511-3.278,2.648-.186.233-.583.071-.884.055-.248-.013-.61-.077-.68.163-.169.582-.6.438-.992.495-.89.127-1.951-.46-2.635.614-.054.085-.319.024-.481.054a4.36,4.36,0,0,1-2.9-.752c-1.3-.689-2.6-1.239-3.174-2.912A23.092,23.092,0,0,1,43.3,36.059a9.181,9.181,0,0,1-.5-2.239c0-.225.011-.474-.189-.611-.495-.337-.482-.829-.468-1.335a1.749,1.749,0,0,0-.474-1.6c-.107-.087-.113-.3-.155-.461-.372-1.4.836-2.462.812-3.791,0-.095.174-.2.282-.286a.579.579,0,0,0,.216-.511c0-1.188.694-2.177.968-3.292a6.961,6.961,0,0,1,.854-1.607c.286-.506.165-.874-.43-.79a2.4,2.4,0,0,1-2.129-1.014,5.22,5.22,0,0,1-1.943-3.619.67.67,0,0,0-.2-.437,1.24,1.24,0,0,1-.4-1.211,3.761,3.761,0,0,0-.788-2.608c-1.333-2.447-3.42-2.795-5.614-1.079a7.911,7.911,0,0,0-.768.758c-.223.23-.512.332-.738.106-.989-.991-2.579-1.545-2.475-3.351A.6.6,0,0,0,29,6.635a1.575,1.575,0,0,1-.468-1.355,1.153,1.153,0,0,0-1.077-1.249,1.279,1.279,0,0,1-.98-.554,1.916,1.916,0,0,0-2-.879,5.438,5.438,0,0,1-1.245,0,1.349,1.349,0,0,0-1.516.748,1.119,1.119,0,0,1-1.171.578q-2.452-.04-4.906,0a5.851,5.851,0,0,1-3.32-.645C10.86,2.411,9.289,1.715,7.757.959A5.726,5.726,0,0,0,4.179.051,10.424,10.424,0,0,1,2.353.066C.8.053.8.051.782,1.584c0,.3.089.618-.151.874A2.708,2.708,0,0,0,.4,5.623c.862,1.942,1.914,3.8,2.908,5.682a.9.9,0,0,1-.1,1c-.62,1.01-1.516,1.987-.422,3.234.158.18.2.459.34.659.124.176.3.414.475.441,1.3.2,1.87,1.307,2.692,2.089a1.535,1.535,0,0,1,.127,1.983c-.671.954-.644,1.34.157,2.144a6.727,6.727,0,0,1,1.535,2.022A6.547,6.547,0,0,0,10.307,27.1a.44.44,0,0,0,.611,0c.146-.153.04-.326-.053-.453-.616-.832-.9-1.84-1.443-2.708a5.315,5.315,0,0,1-.973-3.6c.027-.208.025-.529-.1-.631-.738-.6-.535-1.4-.5-2.15a4.755,4.755,0,0,0-.5-2.375c-1-2.122-2.409-4.043-2.954-6.407-.134-.585-.476-1.206-.568-1.868A.879.879,0,0,0,3.59,6.5c-1.032-1.141.165-1.976.445-2.907A1.394,1.394,0,0,1,5.461,2.523a2.428,2.428,0,0,1,1.189.313,5.693,5.693,0,0,0,.806.422A1.667,1.667,0,0,1,8.622,5.043c-.015.806-.452,1.781.572,2.386.1.062.025.418.05.635.1.884-.35,1.895.593,2.594.069.051.043.213.09.311a6.553,6.553,0,0,0,1.216,2.24c.811.737.9,1.984,1.87,2.6.053.034.062.151.076.232a10.089,10.089,0,0,0,1.043,2.2c.169.394.137.512-.121.707-.473.358-.436.693-.025,1.09,1.135,1.1,2.252,2.216,3.371,3.331.255.253.624.486.713.794.447,1.538,1.651,2.623,2.345,4.018a3.473,3.473,0,0,1,.519,1.738c-.009.212.129.341.275.484.366.36.6,2.229.228,2.471-.744.482-.487,1.161-.53,1.789-.027.379.071.778-.346,1.039-.622.389-.518.821-.047,1.271,1.423,1.359,2.839,2.726,4.264,4.083a1.954,1.954,0,0,0,.483.316c2.578,1.275,5.162,2.541,7.738,3.82a20.565,20.565,0,0,0,3.858,1.888,10.441,10.441,0,0,1,3.764,1.628c1.609,1.223,2.673-.616,4.025-.331.011,0,.028-.047.049-.063a6.3,6.3,0,0,1,2.391-1.127c.74-.137,1.135.5,1.709.732a6.433,6.433,0,0,1,4.019,3.542,1.069,1.069,0,0,0,.49.519A4.831,4.831,0,0,1,53.953,49" transform="translate(0 0)" fill="#dcefe6"/>
    <path id="Path_394" data-name="Path 394" d="M154.05,195.438c.563-1.045,1.012-2.152,1.563-3.205a1.045,1.045,0,0,0-.047-1.227A8.479,8.479,0,0,1,154.2,185c.025-.277-.021-.61.257-.748.461-.229.353-.623.407-1a11.684,11.684,0,0,0-.83-5.091c-.224-.738-.454-1.637-1.4-1.922a4.29,4.29,0,0,1-2.8-2.811c-.406-1.03-1.33-1.144-2.078-.32-.261.287-.55.364-.784.111-.981-1.064-2.377-1.608-3.361-2.621-1.428-1.472-2.034-3.458-2.886-5.279a1.009,1.009,0,0,1,.191-1.023c1.053-1.4,1.166-3.138,1.584-4.736a3.829,3.829,0,0,1,2.357-2.737,15.9,15.9,0,0,1,3.749-1.169c.187-.034.432-.043.5-.238.08-.245-.161-.293-.336-.381-.32-.16-.474-.575-.309-.756.446-.49.45-1.287.88-1.618.848-.653.2-.888-.191-1.166a5.115,5.115,0,0,0-1.391-.732c-.808-.259-1.774-.532-2.42.094a1.24,1.24,0,0,1-1.673.245c-.811-.732-1.778-1.2-2.633-1.834a8.016,8.016,0,0,1-2.323-3.28,2.347,2.347,0,0,0-.952-1.221c-.319-.169-.622-.217-.7.216-.168.9-.651,1.692-.812,2.6a4.289,4.289,0,0,1-1.493,2.764c-.512.394-1.226.517-1.766.884a18.573,18.573,0,0,1-3.33,2,.789.789,0,0,0-.415.476,24.389,24.389,0,0,1-1.271,3.458c-.76,1.2-1.151,1.588-2.321.837a37.785,37.785,0,0,0-3.819-2c-.47-.231-.659.271-.909.516-.2.2-.482.517-.125.776.683.5.612,1.187.59,1.881a2.2,2.2,0,0,0,.283,1.006,3.472,3.472,0,0,0,2.225,2.241c.166.045.283.257.434.379a7.032,7.032,0,0,1,2.148,3.086c.618,1.672,2.006,3.032,2,4.954a.271.271,0,0,0,.112.212c.642.275.517.828.511,1.345,0,.215-.055.473.177.6.392.219.332.7.528.945.536.671.529,1.632,1.323,2.17.506.342,1.135.747,1.237,1.393a2,2,0,0,0,.69,1.158,10.561,10.561,0,0,1,1.872,1.98,20.612,20.612,0,0,1,1.273,3.418c.552,1.574,1.945,2.593,2.42,4.17a.563.563,0,0,0,.381.29,5.437,5.437,0,0,1,1.569.725c1.858,1.037,4.025,1.524,5.566,3.132a.679.679,0,0,0,.452.179,1.467,1.467,0,0,1,1.151.709c.5.585.953,1.232,1.822,1.333a.821.821,0,0,1,.478.3c.708.9,1.971,1.423,2,2.905.6-.924,1.537-1.479,2.024-2.383" transform="translate(-40.164 -48.166)" fill="#dcefe6"/>
    <path id="Path_395" data-name="Path 395" d="M160.825,118.227c-.768.019-.84-.9-1.483-1.049-.169-.039-.13-.293.013-.418.532-.465.342-1.337.995-1.746a.48.48,0,0,0,.039-.465c-.634-.723-.42-1.756-.96-2.518-.388-.546-.375-2.323.039-2.591.494-.32.352-.75.412-1.167.094-.656-.359-.692-.805-.79a.927.927,0,0,1-.384-.294.672.672,0,0,0-1.083-.028c-.327.334-.587.332-1,.063a11.971,11.971,0,0,0-2.265-1.207c-.8-.3-1.416-1.011-2.331-1.007a4.486,4.486,0,0,1-2.028-.468,4.728,4.728,0,0,1-2.643-2.9,25.582,25.582,0,0,0-1.377-3.283A2.836,2.836,0,0,1,146,95.811c.533-1.149,1.168-2.245,1.687-3.406A2.545,2.545,0,0,1,150,90.647a1.694,1.694,0,0,0,1.32-.763c.113-.14.247-.328-.048-.464a3.243,3.243,0,0,0-2.393.464c-.62.633-1.3,1.213-1.863,1.895a2.067,2.067,0,0,1-2.146.872,2.019,2.019,0,0,0-2.221.912.969.969,0,0,1-.856.435.913.913,0,0,0-.89.615c-.591,1.189-1.17,2.384-1.8,3.554a3.382,3.382,0,0,1-1.924,1.708,2.364,2.364,0,0,0-1.6,1.546,2.212,2.212,0,0,1-1.938,1.778c-.722.113-.75.423-.5,1.029.432,1.037,1.211,1.966.959,3.234-.105.531-.22,1.176.522,1.479.152.062.123.283.12.455-.011.636-.005,1.271,0,1.908,0,.279.02.584-.309.7-.42.144-.37.455-.39.8-.042.709.418,1.57-.546,2.044-.058.029-.081.216-.055.312.352,1.308-.644,1.865-1.409,2.549-.182.163-.492.273-.44.556.115.612-.305.894-.657,1.239s-.7.711-1.036,1.079c-.3.327-.243.546.185.738,1.106.5,2.177,1.079,3.293,1.555,1.158.494,2.2,1.351,3.553,1.279,1.764-.093,3.031,1,4.39,1.843a5.177,5.177,0,0,1,1.661,2.533,3.826,3.826,0,0,0,1.78,2.012,5.044,5.044,0,0,1,1.61,1.106,1.408,1.408,0,0,0,1.807.1,1.419,1.419,0,0,1,1.346-.428,6.362,6.362,0,0,1,3.884,2.026c.16.148.225.366.066.518-.459.436-.486,1.094-.877,1.581-.358.444-.483,1,.215,1.39a3.872,3.872,0,0,1,.66.621c.135.127.235.369.456.292.243-.085.113-.333.123-.512.044-.762-.326-1.622.549-2.19.089-.058.067-.313.067-.476,0-.554,0-1.109-.023-1.662-.013-.323.009-.645.327-.79.4-.183.338-.5.354-.832.079-1.8-1.2-3.148-1.606-4.81-.209-.856-.469-1.361.328-1.91.271-.187.49-.449.75-.653a.551.551,0,0,0,.159-.847c-.3-.491-.473-1.056-.814-1.536-.293-.413-.236-.73.195-1.126a10.885,10.885,0,0,1,2.155-1.207,1.146,1.146,0,0,1,1.463.175c.535.712.942.352,1.358-.029a1.873,1.873,0,0,1,1.87-.672.366.366,0,0,0-.355-.444" transform="translate(-43.191 -29.75)" fill="#dcefe6"/>
    <path id="Path_396" data-name="Path 396" d="M176.892,133.314c0,.008,0,.013,0,.021l.016-.018-.016,0" transform="translate(-58.903 -44.392)" fill="#dcefe6"/>
    <path id="Path_397" data-name="Path 397" d="M176.892,133.336c.008,0,.017,0,.026-.008l-.009-.01-.017.018" transform="translate(-58.903 -44.394)" fill="#dcefe6"/>
    <path id="Path_398" data-name="Path 398" d="M167.594,93.234c-.036-.223-.029-.46-.317-.51a11.9,11.9,0,0,1-2.639-1.185,1.11,1.11,0,0,0-1.432.225,6.073,6.073,0,0,1-2.537,1.914c-.824.305-.792.981-.686,1.658.071.453.509.63.812.9.271.245.545.464.315.91a9.439,9.439,0,0,1-1.725,2.413c-.418.416-.7.348-.956-.129-.318-.583-.62-1.175-.96-1.745-.275-.463-.355-.856.149-1.224a.9.9,0,0,0,.293-.828c-.022-.582-.037-1.163-.041-1.746,0-.514-.128-1.072.468-1.4a.329.329,0,0,0,.115-.285c-.037-.176-.217-.125-.343-.134-.73-.047-1,.532-1.273,1.023-.462.815-.826,1.685-1.289,2.5-.785,1.383-1.161,2.737-.081,4.161a4.64,4.64,0,0,1,.637,1.7,4.172,4.172,0,0,0,3.719,3.337,4.661,4.661,0,0,1,1.967.564c.854.458,1.722.888,2.593,1.313.546.267,1.083.752,1.718.137.067-.065.282-.036.4.019a10.307,10.307,0,0,1,2.135,1.094,1.713,1.713,0,0,1,.217,2.1,2.061,2.061,0,0,0-.289,2.379,3.039,3.039,0,0,1,.522,1.867c-.037.593.921.567.72,1.177-.144.435-.887.516-.744,1.179a.472.472,0,0,1-.307.537c-.187.08-.364.161-.324.41s.254.258.446.272a1.73,1.73,0,0,1,1,.542c.215.186.445.36.362.686-.1.377-.444.2-.672.289a4.169,4.169,0,0,1,1.041,1.792c.343,1.011,1.479,1.258,2.11,2.008.266.316.435.3.858.075.646-.336,1.323-.669,1.976-1,.589-.295,1.422-.331,1.717-1.064a2.294,2.294,0,0,1,.9-1.153c.374-.235.393-.484.159-.82-.8-1.157-.966-2.575-1.542-3.829-.4-.878.208-1.47.8-1.98.491-.426.847.083,1.247.282a9.1,9.1,0,0,1,1.451.8.484.484,0,0,0,.614.078c1.527-1.139,3.552-1.433,4.9-2.887a1.628,1.628,0,0,1,.5-.289c.328-.161.941.021.832-.659-.064-.4,0-.846-.324-1.178-.174-.179-.348-.358-.532-.525a2.244,2.244,0,0,1,.078-3.126,1.689,1.689,0,0,0,.732-1.377c.081-1.06,1-2.936,2.5-3.187a3.4,3.4,0,0,0-1.861-1.446,1.5,1.5,0,0,1-.924-.658c-.3-.475-.646-.817-1.285-.661a.857.857,0,0,1-.554-.112c-1.455-.8-3.02-1.383-4.416-2.293a2.181,2.181,0,0,0-2.479.224,3.266,3.266,0,0,1-2.507.021c-.4-.526-.894-.457-1.419-.446-.432.009-.921.167-1.245-.253a1.293,1.293,0,0,0-1.191-.409c-.46,0-.984.149-1.35-.225a1.772,1.772,0,0,0-1.275-.483,1.346,1.346,0,0,1-1.466-1.348" transform="translate(-51.547 -30.429)" fill="#dcefe6"/>
    <path id="Path_399" data-name="Path 399" d="M199.8,320.659c-.3-.2-.548-.895-1.045-.324a2.329,2.329,0,0,1-2.53,1c-.6-.081-1.277.239-1.844-.19a8.611,8.611,0,0,0-1.969-1.043,2.547,2.547,0,0,1-1.545-1.615,2.3,2.3,0,0,0-1.129-1.552,4.839,4.839,0,0,1-3.074-2.927c-.137-.434-.307-.728.075-1.1a1.208,1.208,0,0,0,.214-1.539c-.688-.989-.515-2.06-.55-3.124-.023-.72.206-1.579-.11-2.128a4.97,4.97,0,0,1-.516-2.881,7,7,0,0,0-.958-3.454c-.7-1.448-1.647-2.731-2.457-4.1-.962-1.632-1.4-3.477-2.21-5.175a7.992,7.992,0,0,1-.924-4.492,2.038,2.038,0,0,0-.161-1.224,5.536,5.536,0,0,1-.49-2.748,2.2,2.2,0,0,0-.229-1.373c-.85-1.16-.912-2.651-1.654-3.852a.4.4,0,0,1-.021-.472c.639-.7.71-1.759,1.508-2.347.274-.2.34-.4.125-.693a14.658,14.658,0,0,1-1.462-2.779,2.149,2.149,0,0,1,.075-2.285,1.026,1.026,0,0,0,.075-1.334c-.907-1.681-1.814-3.362-2.657-5.075a2.69,2.69,0,0,1-.047-2.632,3.069,3.069,0,0,0,.206-2.874,4.687,4.687,0,0,1,.243-4.564c.62-1.045.912-2.3,1.734-3.19.658-.71,1.007-1.241.316-2.082a1.232,1.232,0,0,1-.15-.719,3.93,3.93,0,0,0-.41-1.678,2.715,2.715,0,0,1,.055-2.552c.44-.832.912-1.648,1.316-2.5a3.008,3.008,0,0,0,.1-3.014,24.2,24.2,0,0,0-2.169-2.792c-1.423-1.571-1.57-3.546-2.044-5.378a11.07,11.07,0,0,1-.8-3.331.314.314,0,0,0-.11-.218,5.333,5.333,0,0,1-1.6-2.272c-.17-.448-.44-.416-.789-.031a7.029,7.029,0,0,1-1.545,1.5c-.128.075-.373.247-.193.372a3.023,3.023,0,0,1,1.368,2.092c0,.017.043.032.069.041.436.16.382.507.41.883.048.671-.4,1.509.558,1.94.083.037.056.306.089.466.247,1.184-.64,2.569.633,3.57-.279,1.025.632,2.264-.57,3.138-.106.077-.078.363-.08.552-.007.582.007,1.165,0,1.747a.823.823,0,0,1-.15.622,2.233,2.233,0,0,0-.085,2.765,4.034,4.034,0,0,1,.8,1.617c-.034,1.213.711,2.586-.474,3.667-.109.1-.088.366-.089.556q-.01,2.537,0,5.074c0,.187.015.518.094.541.848.246.543.927.556,1.455.026,1.053,0,2.107-.011,3.16,0,.218-.079.517.162.594.632.2.519.7.525,1.153.009.665.008,1.331.013,2,0,.276-.046.6.241.749.477.249.358.677.426,1.078.139.827-.508,1.826.52,2.479.078.05.025.313.025.477q.006,4.159.006,8.318c0,.546.253,1.188-.523,1.485-.091.035-.137.3-.137.451,0,1.275.019,2.549.037,3.824,0,.337.011.735.368.866,1.119.41.861,1.721,1.607,2.383.239.213-.048.5-.27.684a1.136,1.136,0,0,0-.468.746c-.195,1.388.844,2.441,1,3.735.021.174.29.321.447.477,1.357,1.348,2.7,2.707,4.078,4.037a.893.893,0,0,1,.13,1.415,1.418,1.418,0,0,0,.257,2.177c.243.225.563.429.614.764a2.609,2.609,0,0,0,.991,1.483,1.28,1.28,0,0,1,.234,1.8,2.211,2.211,0,0,0-.51,2.126c.039.277.055.694-.235.715-.713.051-1.176.613-1.825.757-.3.067-.642.123-.653.515-.009.364.3.46.583.608a10.5,10.5,0,0,1,2.4,1.267,9.571,9.571,0,0,1,2.253,4.09,9.01,9.01,0,0,1,.716,1.914,4.877,4.877,0,0,0,1.561,3.036,6.093,6.093,0,0,1,1.605,2.574,1.058,1.058,0,0,0,.823.8,4.41,4.41,0,0,1,3.144,3.183c.251.764.4.888,1.06.393a1.789,1.789,0,0,1,2.089-.115q.7.363,1.384.751c.161.09.328.314.486.063a7.591,7.591,0,0,1,2.909-2.259c.308-.183.524-.436.149-.689" transform="translate(-56.071 -73.827)" fill="#dcefe6"/>
    <path id="Path_400" data-name="Path 400" d="M203.885,109.536a2.82,2.82,0,0,1-.936,1.762,2.088,2.088,0,0,0,.028,2.8c.334.292.8.58.743,1.043a2.3,2.3,0,0,0,1.086,2.088,9.68,9.68,0,0,1,.787.855c.232.26.314.668.068.824-.758.479-.566,1.189-.575,1.855a1.833,1.833,0,0,1-.35,1.158,1.475,1.475,0,0,0-.079,1.575c.434.9.923,1.764,1.377,2.651a1.211,1.211,0,0,0,1.668.657,19.413,19.413,0,0,0,2.938-1.505,1.97,1.97,0,0,1,1.21-.329c.752.013.955-.342.546-.982a1.849,1.849,0,0,1-.383-.985,5.318,5.318,0,0,0-1.684-3.821c-.233-.235-.559-.554-.324-.858.542-.7.679-1.634,1.375-2.25.568-.5,1.235-.956,1.356-1.82a.354.354,0,0,1,.512-.273.479.479,0,0,1,.294.541,1.156,1.156,0,0,1-.38.627,14.66,14.66,0,0,0-2.028,2.6c-.345.622-.524,1.074.147,1.546a5.108,5.108,0,0,1,1.41,2.409c.354.8.082,1.771.667,2.665.454.694.622.622,1.219.324.942-.471,1.758-1.379,2.777-1.07.543.039.875.055,1.206.09.243.026.411.021.474-.294a8.264,8.264,0,0,1,1.123-2.278c.151-.275.387-.609.184-.842-.664-.763-.349-1.9-1.077-2.631a.6.6,0,0,1,.024-.839c.514-.536.6-1.3,1.048-1.874a.542.542,0,0,0-.053-.818,3.306,3.306,0,0,0-2.29.186.922.922,0,0,1-.929.388c-.736-.039-1.574.3-2.08-.585-.037-.066-.2-.075-.31-.084a8.154,8.154,0,0,1-3.838-1.588,7.988,7.988,0,0,1-3.284-4.067,2.324,2.324,0,0,0-.9-1.353c-.692-.434-.946.346-1.407.542a2.464,2.464,0,0,0-1.361,1.957" transform="translate(-67.405 -35.599)" fill="#dcefe6"/>
    <path id="Path_401" data-name="Path 401" d="M127.617,154.1c.488-.3.4-.779.472-1.245a3.164,3.164,0,0,1,1.341-2.6c1.5-.77,2.888-1.709,4.327-2.568.5-.3,1.183-.315,1.5-.952a38.885,38.885,0,0,0,1.642-4.657c.072-.209,0-.294-.193-.358a6.414,6.414,0,0,0-2.791-.659,2.462,2.462,0,0,1-1.422-.376c-1.425-.736-2.855-1.463-4.282-2.2-.536-.275-1.147-.467-1.316-1.16-.027-.112-.086-.2-.224-.194-.147.044-.261.15-.243.293.087.7-.423,1.048-.839,1.435a5.873,5.873,0,0,0-1.3,1.806c-.646,1.346-1.333,2.673-2.031,3.993a3.525,3.525,0,0,0,.366,3.17c.179.175.421.1.635.117a2.38,2.38,0,0,1,1.531.546c.275.259.457.58.075.83-1.081.706-1.169,2.167-2.258,2.877-.36.235-.3.631.161.832,1.345.578,2.629,1.279,3.919,1.968.438.234.985.477.759-.464a.409.409,0,0,1,.171-.442" transform="translate(-40.637 -45.664)" fill="#dcefe6"/>
    <path id="Path_402" data-name="Path 402" d="M103.209,88.527a2.213,2.213,0,0,0,1.788.458,1.416,1.416,0,0,1,1.194.445.888.888,0,0,0,.974.294c.327-.141.181-.54.205-.831.045-.548-.256-1.343.112-1.6.778-.537.452-1.213.56-1.85.181-1.07-.546-2.319.621-3.207.073-.055.037-.264.039-.4,0-.387,0-.774,0-1.162h0q0-.664,0-1.329c0-.191.019-.376-.194-.5a3.148,3.148,0,0,0-2.321.187,6.076,6.076,0,0,1-3.546,1.81c-.591.124-1.367.348-1.575.955a3.15,3.15,0,0,1-.533.942c-.421.554-1.1.612-1.636.927-.386.225-.792.494-.077.838.247.119.26.34.249.565a.976.976,0,0,0,.364.792q1.023.972,2,1.987a1.367,1.367,0,0,0,1.227.548.645.645,0,0,1,.549.132" transform="translate(-32.774 -26.209)" fill="#dcefe6"/>
    <path id="Path_403" data-name="Path 403" d="M115.177,44.969a.532.532,0,0,0,.735-.147c.212-.222.426-.532.739-.48.985.165,1.679-.506,2.431-.879a2.86,2.86,0,0,1,3.234.1.7.7,0,0,0,.544.161,3.983,3.983,0,0,1,2.672.692,18.429,18.429,0,0,0,3.741,1.777,3.03,3.03,0,0,1,2.576,2.408.645.645,0,0,0,.267.4c1,.548,1.922,1.362,3.192,1.165a.881.881,0,0,1,.982.4c.3.426,2.077.538,2.307.117.329-.6.793-.479,1.273-.479h1.5a5.077,5.077,0,0,0-3.282-2.455,10.891,10.891,0,0,1-4.559-2.352,10.268,10.268,0,0,0-4.423-2.291,14.837,14.837,0,0,1-2.371-.814,4.21,4.21,0,0,0-1.788-.475c-1.746.011-3.491.042-5.237.065a1.657,1.657,0,0,0-.872.2A6.9,6.9,0,0,1,117.1,43c-.644.16-1,.811-1.677.821-.255,0-.522-.033-.536.34-.01.3-.041.6.289.8" transform="translate(-38.255 -13.924)" fill="#dcefe6"/>
    <path id="Path_404" data-name="Path 404" d="M116.47,104.437c.579.612.838-.141,1.2-.37s.4-.482.029-.781a.709.709,0,0,1-.119-1.149,5.716,5.716,0,0,1,3.022-1.443c1.284-.222,2.275.483,3.336.95a.757.757,0,0,1,.363,1.179c-.305.518-.642,1.017-1.039,1.64a4.74,4.74,0,0,0,1.757-.547,1.378,1.378,0,0,0,.5-2.412,3.259,3.259,0,0,0-1.193-.734,1.214,1.214,0,0,1-.753-.48,1.612,1.612,0,0,0-1.69-.777c-.579.039-1.163,0-1.744,0-.281,0-.576,0-.729.292-.209.394-.55.4-.924.374a.95.95,0,0,0-.791.159c-.538.532-1.43.45-1.888,1.133-.136.2-.415.117-.606-.019a28.707,28.707,0,0,0-2.693-1.407,2.83,2.83,0,0,1-1.451-1.525c-.184-.578-.694-.942-.937-1.427a2.618,2.618,0,0,0-2.168-1.64c-.593-.1-1.247-.458-1.926-.509a1.816,1.816,0,0,1-1.073-.36c-.66-.528-1.059.051-1.477.423-.454.4-.386.815.063,1.188a.742.742,0,0,1,.3.647c-.029.42.233.517.576.664a6.609,6.609,0,0,1,2.609,1.476c.807.91,1.736,1.713,2.549,2.619.442.492.639.339.984-.084a2.315,2.315,0,0,0,.388-1.568c0-.185-.035-.442.2-.491.281-.057.374.226.436.414a1.7,1.7,0,0,1-.232,1.424c-.185.325-.368.512.293.754.863.317,1.942.461,2.477,1.428a.828.828,0,0,0,.961.49,1.272,1.272,0,0,1,1.388.467" transform="translate(-34.353 -31.425)" fill="#dcefe6"/>
    <path id="Path_405" data-name="Path 405" d="M98.1,80.2c.279-1.517,1.606-1.743,2.683-2.124a7.924,7.924,0,0,0,3.227-1.695,2.568,2.568,0,0,1,2.7-.088c.149.14.21.452.5.278.22-.133.141-.4.154-.613.045-.69-.524-1.144-.678-1.754-.125-.493-.4-.635-.9-.614-.686.029-1.457.269-1.94-.537-.059-.1-.3-.12-.459-.121q-1.245-.008-2.49.019c-.157,0-.388.023-.456.122-.444.656-1.1.514-1.728.516-.913,0-1.826,0-2.739,0-.273,0-.584-.042-.78.194a21.668,21.668,0,0,1-2.779,2.641,7.813,7.813,0,0,1,3.732,2.159c.265.285.382.46,0,.791a.817.817,0,0,0,.07,1.437c.43.24,1.807-.147,1.894-.616" transform="translate(-30.772 -24.284)" fill="#dcefe6"/>
    <path id="Path_406" data-name="Path 406" d="M79.93,77.941l-.017-.011c0,.01,0,.02,0,.031s.011-.007.018-.009,0-.007,0-.012h0" transform="translate(-26.61 -25.95)" fill="#dcefe6"/>
    <path id="Path_407" data-name="Path 407" d="M86.728,74.282q1.56-1.49,3.1-3c.277-.272.6-.649.3-1s-.55.092-.8.277c-.446.338-1.647.252-1.7-.148a3.134,3.134,0,0,1,.123-2.182,2.482,2.482,0,0,0,.407-1.636,1.4,1.4,0,0,1,.474-1.34.473.473,0,0,0,.177-.586.567.567,0,0,0-.588-.368,1.223,1.223,0,0,0-.87.2,2.111,2.111,0,0,1-1.227.428,1.5,1.5,0,0,0-1.168,2.539c.235.334.45.684.135,1.051-.766.894-1.471,1.918-2.92,1.571-.288-.069-.673-.109-.8.251a6.379,6.379,0,0,0-.744,2.092.949.949,0,0,1-.685.981c.036.2.217.3.332.445.96,1.205,2.435,1.583,3.693,2.307a1.441,1.441,0,0,0,2.291-1.13,1.293,1.293,0,0,1,.468-.75" transform="translate(-26.621 -21.409)" fill="#dcefe6"/>
    <path id="Path_408" data-name="Path 408" d="M228.481,121.548c.83.652.318,1.895,1.147,2.571.2.162,0,.524-.135.772-.5.949-.979,1.91-1.508,2.843-.259.458-.095.508.324.5,1.163-.018,2.328-.051,3.489,0,.59.026,1.029.059.984-.733-.016-.282.267-.473.465-.664a6.886,6.886,0,0,0,.9-1.263c.592-.9.531-2.308,2.217-2.614-1.8-1.31-2.768-3.092-4.606-3.948-.7-.324-1.333-.663-2-.179a4.382,4.382,0,0,0-1.346,2.483.265.265,0,0,0,.069.231" transform="translate(-75.875 -39.49)" fill="#dcefe6"/>
    <path id="Path_409" data-name="Path 409" d="M217.887,376.408a2.062,2.062,0,0,1-.841-1.717c.089-.629-.265-.7-.735-.682-1.157,0-1.622.453-1.658,1.645-.013.426-.041.825-.475,1.072-.495.281-.348.6-.025.924q.877.881,1.742,1.775a.806.806,0,0,0,.747.285c1.3-.334,2.167.56,3.164,1.085.171.09.329.207.5.285a.4.4,0,0,0,.466-.027c.134-.142.042-.308-.034-.455a17.313,17.313,0,0,0-2.854-4.191" transform="translate(-71.212 -124.54)" fill="#dcefe6"/>
    <path id="Path_410" data-name="Path 410" d="M165.807,60.832a1.29,1.29,0,0,0,1.407-.191,1.608,1.608,0,0,1,1.355-.42c.4.008.9.155,1.177-.21.416-.537.953-.454,1.571-.454.3-.079.9.245,1.023-.221.1-.408-.528-.534-.842-.775a4.709,4.709,0,0,0-.442-.221,9.012,9.012,0,0,0-2.964-1.514,11.074,11.074,0,0,0-1.894-.388c-.528-.011-.749.172-.73.718.031.882-.006,1.768.018,2.65.009.364-.143.848.322,1.025" transform="translate(-55.099 -18.793)" fill="#dcefe6"/>
    <path id="Path_411" data-name="Path 411" d="M229.515,380.167c-.383-.025-.939.183-1.117-.1-.443-.711-1.066-.569-1.68-.558-.4.007-.569-.279-.8-.518-.279-.292-.45-.786-.924-.762a1.317,1.317,0,0,1-1.152-.677,1.327,1.327,0,0,0-1.015-.637.8.8,0,0,1-.622-.372c-.622-.866-1.618-1.1-2.6-1.572a1.9,1.9,0,0,0,.723,1.483,4.617,4.617,0,0,1,1.261,1.525c.416,1.061,1.47,1.7,1.776,2.843.1.37.451.688.842.147.245-.339.614-.325.98-.314,1.439.041,2.879.082,4.318.112.206,0,.5.039.494-.289,0-.308-.266-.295-.489-.31" transform="translate(-73.128 -124.861)" fill="#dcefe6"/>
    <path id="Path_412" data-name="Path 412" d="M152.978,59.655c-.47.017-.941-.009-1.41.019-.246.015-.665-.116-.66.272.006.418.433.334.721.332a1.509,1.509,0,0,1,1.166.265,2.141,2.141,0,0,0,2.561.029,1.9,1.9,0,0,1,1.045-.336c1.177-.213,1.956.559,2.821,1.057.506.291.732.173.68-.285-.153-1.357.1-2.708-.009-4.061-.023-.3-.087-.481-.414-.481h-3.435a8.455,8.455,0,0,1,.907,1.642c.439.879.124,1.508-.909,1.523a1.714,1.714,0,0,0-1.747.964c-.068-.958-.677-.962-1.318-.938" transform="translate(-50.251 -18.802)" fill="#dcefe6"/>
    <path id="Path_413" data-name="Path 413" d="M244.49,144.448a3.122,3.122,0,0,0,3.048,2.15,1.43,1.43,0,0,0,1.278-.451c.546-.637,1.323-1.059.538-2.078-.209-.273-.234-.627-.676-.609a.8.8,0,0,1-.64-.321,1.114,1.114,0,0,0-1.365-.278c-.594.35-1.237.559-1.836.872a.545.545,0,0,0-.348.715" transform="translate(-81.402 -47.529)" fill="#dcefe6"/>
    <path id="Path_414" data-name="Path 414" d="M96,60.6a3.479,3.479,0,0,1-1.745,1.192.364.364,0,0,0-.255.391,6.279,6.279,0,0,1-.518,2.677,10.084,10.084,0,0,1-.7,2.507,1.086,1.086,0,0,0-.09.424c-.023.443.139.7.521.788s.482-.19.546-.468a3.3,3.3,0,0,1,.383-.817,13.146,13.146,0,0,0,1.469-3,10.5,10.5,0,0,1,1.229-2.888c.191-.338.324-.709.041-.984s-.629-.063-.876.173" transform="translate(-30.864 -20.079)" fill="#dcefe6"/>
    <path id="Path_415" data-name="Path 415" d="M93.82,80.369a17.937,17.937,0,0,0-2.327-1.06c-.263-.065-.3-.676-.7-.314-.238.215-.62.367-.651.72a2.127,2.127,0,0,1-1.191,1.674c-.289.175-.253.394.034.456.9.195,1.636,1.008,2.707.672,1.146.435,1.592-.573,2.285-1.161.567-.481.446-.742-.162-.987" transform="translate(-29.555 -26.267)" fill="#dcefe6"/>
    <path id="Path_416" data-name="Path 416" d="M141.217,63.473c.207-.037.477.067.581-.193.089-.223-.143-.333-.263-.472-.584-.674-2.509-.856-3.615-.277,1.157.425,2.087,1.159,3.3.943" transform="translate(-45.926 -20.706)" fill="#dcefe6"/>
    <path id="Path_417" data-name="Path 417" d="M199.951,97.052c.4.657.41.637,1.228.4.36-.1.865-.043.838-.586-.029-.579-.517-.631-.98-.65-.192-.007-.384-.029-.576-.045-.341.086-.82-.145-1,.208-.157.3.339.424.491.672" transform="translate(-66.408 -32.024)" fill="#dcefe6"/>
    <path id="Path_418" data-name="Path 418" d="M184.094,63.4a1.247,1.247,0,0,1,1.2-.562.288.288,0,0,0,.348-.273c.013-.257-.189-.315-.388-.321-.467-.014-.935-.023-1.4-.009a3.753,3.753,0,0,0-2.115.3,4.394,4.394,0,0,1,1.916.991c.117.113.329.005.441-.123" transform="translate(-60.517 -20.718)" fill="#dcefe6"/>
  </g>
</svg>
