<svg xmlns="http://www.w3.org/2000/svg" xmlns:xlink="http://www.w3.org/1999/xlink" width="191.494" height="228.737" viewBox="0 0 191.494 228.737">
  <defs>
    <clipPath id="clip-path">
      <rect id="Rectangle_74" data-name="Rectangle 74" width="191.494" height="228.737" transform="translate(0 0)" fill="#dcefe6"/>
    </clipPath>
  </defs>
  <g id="Group_70" data-name="Group 70" transform="translate(0 -0.004)">
    <g id="Group_69" data-name="Group 69" transform="translate(0 0.004)" clip-path="url(#clip-path)">
      <path id="Path_150" data-name="Path 150" d="M188.74,78.841c-.211.168-.422.359-.656.517a24.541,24.541,0,0,1-3.262,2.151,25.289,25.289,0,0,1-8.727,1.976,14.1,14.1,0,0,1-5.026-.4c-1.458-.414-2.336-1.418-2.175-2.685a5.523,5.523,0,0,0-2.642-5.6c-1.858-1.291-3.66-2.661-5.5-3.985a3.616,3.616,0,0,1-1.9-2.67,2.424,2.424,0,0,0-.356-1c-1.165-1.988-2.311-3.99-3.547-5.933-1.176-1.849-2.51-3.617-3.039-5.788a44.445,44.445,0,0,0-4.926-11.438q-3.167-5.551-6.293-11.125c-.314-.559-.527-1.175-.833-1.868,1.4.532,2.4.326,2.71-.62.83-2.513,1.352-5.073.525-7.7a4.419,4.419,0,0,0-3.339-3.2c-1.011-.232-2.074-.226-3.106-.377a3.5,3.5,0,0,1-1.522-.429,2.546,2.546,0,0,0-2.191-.543c-1.277.288-2.554.581-3.839.83a10.51,10.51,0,0,1-6.378-.378,9.887,9.887,0,0,0-4.18-1.033,6.68,6.68,0,0,1-2.152-.462c-1.287-.426-2.557-.9-3.816-1.407a4.02,4.02,0,0,1-1.254-.754,5.983,5.983,0,0,0-8.928.868,6.752,6.752,0,0,0-1.153,4.261c.023.923-.367,1.323-1.288,1.279a5.345,5.345,0,0,1-1.664-.347,21.787,21.787,0,0,1-7.929-5.59,8.612,8.612,0,0,0-3.446-2.474c-1.959-.658-3.968-1.166-5.953-1.746-.769-.225-1.531-.472-2.367-.732a9.3,9.3,0,0,0,.674-5.061,27.527,27.527,0,0,1,.085-3.2c.014-.326.075-.65.117-.993A19.733,19.733,0,0,0,72.551.037Q67.429.45,62.3.833a33.77,33.77,0,0,0-8.511,1.343c-2.36.81-4.645,1.839-6.964,2.769-2.211.886-4.434,1.646-6.848.78a10.052,10.052,0,0,0-1.241-.33c-.767-.168-1.532-.356-2.308-.468-2.4-.347-3.694.4-4.386,2.7a5.319,5.319,0,0,1-2.707,3.325c-.587.315-1.146.682-1.715,1.03a8.955,8.955,0,0,0-3.491,3.592,30.466,30.466,0,0,0-1.868,4.544,12.67,12.67,0,0,1-6.013,7.658,14.362,14.362,0,0,0-3.558,2.6A47.076,47.076,0,0,0,5.687,41.109a25.676,25.676,0,0,0-1.081,2.643C3.43,46.917,2.464,50.183,0,52.817c.521.178.88.3,1.24.423,1.406.471,1.646.791,1.64,2.277-.009,2.168-.007,4.336-.054,6.5a12.235,12.235,0,0,1-1.1,5.409A27.923,27.923,0,0,0,.6,70.205c-.563,1.49-.755,2.956.337,4.329a1.238,1.238,0,0,1,.106,1.338,4.378,4.378,0,0,0,.123,3.474,7.024,7.024,0,0,0,2.6,3.067,16.235,16.235,0,0,1,5.461,6.569,35.11,35.11,0,0,0,14.579,15.154,7.419,7.419,0,0,0,7.1.467c.846-.382,1.7-.738,2.555-1.106a4.95,4.95,0,0,1,3.4-.329c1.353.377,2.729.665,4.091,1.011a3.878,3.878,0,0,0,2.831-.258c1.467-.736,2.974-1.4,4.486-2.038,2.189-.925,4.369-1.886,6.609-2.673a4.866,4.866,0,0,1,5.6,1.589c.361.41.742.8,1.1,1.215a7.761,7.761,0,0,0,6.873,2.923c.8-.074,1.615-.126,2.422-.122,2.24.012,3.406,1.026,3.662,3.257a8.85,8.85,0,0,1-.03,2.629c-.5,2.592-1,5.189-1.688,7.735a8.481,8.481,0,0,0,1.263,7.4,17.853,17.853,0,0,0,1.605,2.1,27.113,27.113,0,0,1,6.718,12.112c.971,3.877,1.774,7.8,2.614,11.707a6.858,6.858,0,0,1-.592,5.114c-.181.307-.34.628-.49.952-1.1,2.373-2.348,4.69-3.254,7.135a15.29,15.29,0,0,0-.142,11.381,61.464,61.464,0,0,0,3.275,6.494,21.4,21.4,0,0,1,2.88,8.083c.175,1.607.329,3.219.432,4.832a25.426,25.426,0,0,0,3.188,11.377c1.015,1.75,1.978,3.531,2.972,5.294a38.468,38.468,0,0,1,3.341,7.25,1.249,1.249,0,0,1-.157,1.317,3.035,3.035,0,0,0-.565,2.3c.3,2.913,4.175,5.918,7.057,5.4a30.559,30.559,0,0,0,3.369-.911,22.324,22.324,0,0,1,8.149-1.14c1.322.1,2.633.335,4.017.517v-1.416a7.245,7.245,0,0,1,1.191.081,1.987,1.987,0,0,0,1.8-.549,68.008,68.008,0,0,0,10.585-10.478c1.839-2.242,3.664-4.511,5.278-6.914a9.448,9.448,0,0,0,1.579-6.945c-.243-1.469-.193-1.552,1.242-2,.136-.042.274-.079.412-.115a7.723,7.723,0,0,0,5.494-5.338,14.286,14.286,0,0,0-.827-11.424c-.2-.414-.259-.689.146-1.026a115.607,115.607,0,0,1,11.775-9.155c2.833-1.795,4.736-4.228,5.011-7.647.213-2.652.289-5.32.306-7.981a10.927,10.927,0,0,0-1.388-5.124c-.506-.971-1.009-1.945-1.485-2.931a7.243,7.243,0,0,1-.9-4.059,17.515,17.515,0,0,0-.153-5.248c-.688-3.885.409-7.455,2.263-10.833a48.016,48.016,0,0,1,7.979-10.214c3.371-3.466,6.838-6.838,10.212-10.3a37.521,37.521,0,0,0,6.07-7.738,77.237,77.237,0,0,0,6.135-14.584,5.454,5.454,0,0,0-2.49-6.377" transform="translate(0 -0.004)" fill="#dcefe6"/>
      <path id="Path_151" data-name="Path 151" d="M1175.289,1092.448a.646.646,0,0,0-.836-.269,6.449,6.449,0,0,0-3.49,2.355c-1.07,1.54-2.029,3.159-3,4.768a7.684,7.684,0,0,1-3.34,3.108,35.808,35.808,0,0,0-3.872,2.132,6.834,6.834,0,0,0-3.426,6.408,38.922,38.922,0,0,0,.543,4.166,4.83,4.83,0,0,1-.294,3.338,12.379,12.379,0,0,1-1.134,1.643,7.557,7.557,0,0,0-1.852,5.477c.022.356.034.713.068,1.068a14.538,14.538,0,0,0,2.327,7.329,4.383,4.383,0,0,0,4.876,2.021c2.851-.712,5.227-2.129,6.282-5.054,1.509-4.185,2.993-8.382,4.371-12.612a70.61,70.61,0,0,0,2.265-8.246c.419-2.141.89-4.08,2.68-5.543a2.962,2.962,0,0,0,.844-1.97,13.692,13.692,0,0,0-.286-3.589,15.622,15.622,0,0,0-2.729-6.531" transform="translate(-989.486 -935.967)" fill="#dcefe6"/>
    </g>
  </g>
</svg>
