<svg id="Group_59" data-name="Group 59" xmlns="http://www.w3.org/2000/svg" xmlns:xlink="http://www.w3.org/1999/xlink" width="63.152" height="46.168" viewBox="0 0 63.152 46.168">
  <defs>
    <clipPath id="clip-path">
      <rect id="Rectangle_59" data-name="Rectangle 59" width="63.152" height="46.168" fill="#fff"/>
    </clipPath>
  </defs>
  <g id="Group_58" data-name="Group 58" clip-path="url(#clip-path)">
    <path id="Path_124" data-name="Path 124" d="M182.311,114.151q-4.356,0-8.712,0c-.712,0-.754-.065-.47-.733a54.719,54.719,0,0,0,3.723-14.128,60.455,60.455,0,0,0,.606-9.376c-.011-.6.188-.779.765-.775,2.711.02,5.423.025,8.135,0,.664-.007.829.239.816.867a62.69,62.69,0,0,0,1.512,14.925,40.86,40.86,0,0,0,2.793,8.5c.308.661.273.717-.456.718q-4.356,0-8.712,0v.007" transform="translate(-150.802 -77.713)" fill="#fff"/>
    <path id="Path_125" data-name="Path 125" d="M372.434,159.786c-2.071,0-4.142,0-6.213,0-.764,0-.814-.065-.542-.754a44.545,44.545,0,0,0,2.63-11.569,56.837,56.837,0,0,0,.376-6.9c-.01-.837.016-.852.863-.854,1.964,0,3.929.016,5.892-.016.605-.01.762.21.749.784A55.706,55.706,0,0,0,377.784,155a30.29,30.29,0,0,0,1.238,3.9c.343.874.341.876-.568.877q-3.01,0-6.021,0v.006" transform="translate(-318.691 -121.794)" fill="#fff"/>
    <path id="Path_126" data-name="Path 126" d="M26.139,159.8c-2.091,0-4.182-.01-6.273.007-.527,0-.635-.144-.429-.635A40.863,40.863,0,0,0,21.992,149.1a50.955,50.955,0,0,0,.524-8.669c-.014-.527.156-.716.69-.71,1.984.023,3.969.007,5.953.013.85,0,.865.013.859.858a62.685,62.685,0,0,0,1.023,11.7,35.82,35.82,0,0,0,1.884,6.833c.238.6.179.68-.513.682-2.091.006-4.182,0-6.273,0V159.8" transform="translate(-16.861 -121.815)" fill="#fff"/>
    <path id="Path_127" data-name="Path 127" d="M162.609,310.437q-5.7,0-11.4,0c-.863,0-.905-.044-.909-.907-.009-1.9,0-3.8-.009-5.7,0-.479.165-.7.671-.7,2.406.011,4.813,0,7.219,0q6.016,0,12.033.009c1.3,0,2.606.024,3.907-.011.624-.017.822.225.814.825-.024,1.815,0,3.63-.01,5.445,0,1.017-.03,1.048-1.04,1.049q-5.637.008-11.274,0v-.01" transform="translate(-131.031 -264.283)" fill="#fff"/>
    <path id="Path_128" data-name="Path 128" d="M179.59,8.879q-4.355,0-8.709,0c-.845,0-.854-.015-.856-.866,0-2.391.02-4.782-.016-7.173-.01-.668.238-.855.858-.829.874.038,1.75.018,2.625.011.431,0,.607.176.6.617-.021,1.024.01,2.05-.015,3.074-.011.456.119.669.61.654.81-.026,1.623-.024,2.433,0,.482.014.631-.188.619-.65-.025-1,0-2.007-.018-3.01-.011-.489.167-.7.668-.691.832.02,1.665.018,2.5,0,.509-.011.742.179.727.712-.024.875-.008,1.75,0,2.626,0,1.005.007,1.007.98,1.007.64,0,1.282-.03,1.921,0,.469.021.648-.135.634-.62-.029-1.024.01-2.05-.019-3.074-.015-.525.229-.665.7-.657.854.014,1.708.022,2.561-.005.589-.019.831.173.822.807-.032,2.391-.01,4.782-.014,7.173,0,.882-.022.9-.89.906q-4.355.006-8.71,0V8.879" transform="translate(-148.224 0)" fill="#fff"/>
    <path id="Path_129" data-name="Path 129" d="M8.369,321.457c-2.52,0-5.039-.013-7.559.009-.605.006-.826-.186-.808-.811.041-1.387.027-2.776,0-4.164-.009-.514.15-.72.692-.719q7.719.019,15.439,0c.517,0,.73.171.723.7-.019,1.388-.028,2.776.008,4.164.017.659-.263.847-.876.842-2.541-.019-5.082-.008-7.623-.008v-.011" transform="translate(-0.001 -275.307)" fill="#fff"/>
    <path id="Path_130" data-name="Path 130" d="M369.741,315.777c2.541,0,5.082.016,7.622-.012.613-.007.824.186.808.8q-.054,2.048,0,4.1c.018.634-.232.8-.825.8-4.163-.016-8.326-.006-12.489-.006-.961,0-1.921-.012-2.882,0-.456,0-.66-.186-.657-.649.011-1.473.018-2.946,0-4.419-.006-.543.286-.618.733-.616,2.562.011,5.124.005,7.686.006" transform="translate(-315.021 -275.304)" fill="#fff"/>
    <path id="Path_131" data-name="Path 131" d="M29.745,87.05c-1.9,0-3.8-.014-5.7.009-.538.006-.782-.154-.769-.724.029-1.216.026-2.433.015-3.65,0-.491.2-.683.688-.682q5.8.009,11.59-.01c.506,0,.68.23.674.7-.014,1.216-.025,2.433-.013,3.649,0,.518-.2.713-.724.707-1.921-.021-3.842-.008-5.763-.008v.008" transform="translate(-20.294 -71.487)" fill="#fff"/>
    <path id="Path_132" data-name="Path 132" d="M374.926,87.006c-1.9,0-3.8-.019-5.7.011-.6.009-.852-.179-.837-.8.028-1.174.022-2.348,0-3.522-.01-.554.214-.749.761-.746,3.757.016,7.514.008,11.271.017.88,0,.909.044.915.9.008,1.131-.013,2.264.02,3.394.017.593-.216.773-.794.764-1.878-.028-3.757-.011-5.636-.011v0" transform="translate(-321.184 -71.449)" fill="#fff"/>
    <path id="Path_133" data-name="Path 133" d="M393.05,5.643a3.868,3.868,0,0,1,3.868,3.926A3.92,3.92,0,0,1,392.93,13.4a3.972,3.972,0,0,1-3.776-3.93,3.855,3.855,0,0,1,3.9-3.832" transform="translate(-339.289 -4.919)" fill="#fff"/>
    <path id="Path_134" data-name="Path 134" d="M47.04,5.777a3.811,3.811,0,0,1,3.83,3.877,3.943,3.943,0,0,1-3.83,3.862,4.079,4.079,0,0,1-3.928-4.022A3.813,3.813,0,0,1,47.04,5.777" transform="translate(-37.589 -5.037)" fill="#fff"/>
  </g>
</svg>
