<svg xmlns="http://www.w3.org/2000/svg" width="22.185" height="22.762" viewBox="0 0 22.185 22.762">
  <path id="Icon_awesome-arrow-down" data-name="Icon awesome-arrow-down" d="M21.1,11.928l1.128,1.128a1.214,1.214,0,0,1,0,1.722l-9.871,9.876a1.214,1.214,0,0,1-1.722,0L.755,14.778a1.214,1.214,0,0,1,0-1.722l1.128-1.128a1.221,1.221,0,0,1,1.742.02L9.458,18.07V3.469A1.216,1.216,0,0,1,10.677,2.25H12.3a1.216,1.216,0,0,1,1.219,1.219v14.6l5.832-6.122a1.212,1.212,0,0,1,1.742-.02Z" transform="translate(-0.397 -2.25)" fill="#1aaa67"/>
</svg>
