<svg xmlns="http://www.w3.org/2000/svg" width="22.18" height="22.762" viewBox="0 0 22.18 22.762">
  <path id="Icon_awesome-arrow-up" data-name="Icon awesome-arrow-up" d="M1.883,15.33.755,14.2a1.214,1.214,0,0,1,0-1.722L10.626,2.6a1.214,1.214,0,0,1,1.722,0l9.871,9.871a1.214,1.214,0,0,1,0,1.722l-1.128,1.128a1.221,1.221,0,0,1-1.742-.02L13.522,9.188v14.6A1.216,1.216,0,0,1,12.3,25.008H10.677a1.216,1.216,0,0,1-1.219-1.219V9.188L3.626,15.31a1.212,1.212,0,0,1-1.742.02Z" transform="translate(-0.397 -2.246)" fill="#1aaa67"/>
</svg>
